<?xml version="1.0" encoding="UTF-8"?><svg id="b" xmlns="http://www.w3.org/2000/svg" viewBox="0 0 1377.49 700.75"><path d="M530.92,185.8c-.55-1.33-1.28-2.46-2.19-3.41-.92-.95-1.98-1.74-3.19-2.36-1.21-.63-2.48-1.15-3.79-1.56-1.32-.41-2.66-.75-4.02-1.01-1.36-.26-2.66-.49-3.89-.69l-2.98-.49c-.83-.15-1.65-.29-2.47-.42-.82-.14-1.6-.3-2.34-.5-.74-.2-1.42-.42-2.06-.68-.64-.26-1.19-.57-1.65-.93s-.83-.79-1.1-1.27c-.26-.48-.4-1.04-.4-1.69,0-.83.23-1.58.69-2.25.46-.68,1.11-1.26,1.95-1.74.84-.49,1.85-.86,3.02-1.13s2.47-.4,3.88-.4c1.6,0,3.01.17,4.23.51,1.22.34,2.25.82,3.08,1.44.83.63,1.46,1.38,1.88,2.25.3.63.5,1.32.58,2.06.06.51.49.9,1,.9h8.01c.58,0,1.05-.49,1.01-1.06-.12-1.91-.55-3.66-1.3-5.24-.89-1.87-2.18-3.47-3.89-4.78-1.7-1.31-3.8-2.32-6.27-3.02-2.48-.7-5.3-1.05-8.47-1.05s-5.73.32-8.13.96c-2.4.64-4.44,1.56-6.11,2.75-1.67,1.19-2.95,2.63-3.85,4.33-.89,1.69-1.34,3.59-1.34,5.68,0,1.68.26,3.13.79,4.35.53,1.23,1.23,2.28,2.12,3.17.88.89,1.9,1.63,3.06,2.23,1.15.6,2.36,1.1,3.61,1.5,1.26.4,2.52.72,3.79.96,1.27.25,2.46.46,3.57.65l3.01.53c.96.18,1.9.35,2.81.52.91.17,1.77.37,2.59.59.81.22,1.56.48,2.24.78.68.3,1.26.65,1.74,1.05.49.41.87.88,1.15,1.42.28.54.42,1.19.42,1.93,0,.91-.24,1.72-.72,2.43-.48.71-1.18,1.31-2.09,1.81-.92.49-2.03.87-3.34,1.13s-2.81.39-4.49.39c-1.87,0-3.49-.16-4.88-.49-1.39-.33-2.54-.81-3.46-1.44-.92-.64-1.6-1.42-2.05-2.36-.33-.69-.54-1.46-.63-2.3-.05-.51-.49-.9-1.01-.9h-8.01c-.58,0-1.04.48-1.01,1.05.11,2.08.55,3.94,1.32,5.59.9,1.92,2.23,3.54,4,4.86,1.77,1.32,3.97,2.32,6.61,3.01,2.64.68,5.7,1.02,9.17,1.02s6.27-.31,8.83-.93c2.56-.63,4.7-1.53,6.45-2.72,1.74-1.19,3.06-2.65,3.96-4.39.9-1.73,1.35-3.71,1.35-5.95,0-1.79-.27-3.34-.82-4.67Z" fill="#4e4e4a"/><path d="M547.78,187.83c0,1.4.13,2.6.39,3.6.26,1.01.64,1.84,1.17,2.5.52.66,1.19,1.15,2,1.47.81.32,1.78.49,2.9.49.88,0,1.92-.1,3.13-.3.89-.15,1.89-.36,3.01-.63.64-.15,1.25.33,1.25.98v6.18c0,.45-.3.86-.74.98-1.54.42-3,.74-4.39.96-1.6.25-3.11.38-4.52.38-2.35,0-4.42-.35-6.21-1.05-1.79-.7-3.28-1.75-4.5-3.15-1.21-1.39-2.13-3.13-2.75-5.2-.62-2.07-.93-4.48-.93-7.23v-20.04c0-.56-.45-1.01-1.01-1.01h-3.82c-.56,0-1.01-.45-1.01-1.01v-6.26c0-.56.45-1.01,1.01-1.01h3.82c.56,0,1.01-.45,1.01-1.01v-8.28c0-.56.45-1.01,1.01-1.01h8.16c.56,0,1.01.45,1.01,1.01v8.28c0,.56.45,1.01,1.01,1.01h11.82c.56,0,1.01.45,1.01,1.01v6.26c0,.56-.45,1.01-1.01,1.01h-11.82c-.56,0-1.01.45-1.01,1.01v20.06Z" fill="#4e4e4a"/><path d="M605.27,174.17c-.49-2.08-1.19-4-2.1-5.76-.92-1.75-2.03-3.32-3.34-4.7-1.31-1.38-2.8-2.55-4.45-3.5-1.65-.95-3.46-1.68-5.42-2.19-1.96-.51-4.05-.76-6.25-.76s-4.29.25-6.25.76c-1.96.51-3.77,1.24-5.42,2.19-1.65.95-3.13,2.12-4.45,3.5-1.31,1.38-2.42,2.95-3.34,4.7-.91,1.76-1.61,3.67-2.1,5.76-.49,2.08-.73,4.31-.73,6.68s.25,4.6.73,6.69c.49,2.09,1.19,4.01,2.1,5.76.92,1.75,2.03,3.31,3.35,4.69,1.32,1.38,2.8,2.55,4.45,3.51,1.64.96,3.45,1.7,5.41,2.2,1.96.51,4.05.76,6.25.76s4.31-.25,6.26-.76c1.96-.51,3.76-1.24,5.4-2.2,1.64-.96,3.13-2.13,4.45-3.51,1.32-1.38,2.44-2.94,3.35-4.69.91-1.75,1.61-3.66,2.1-5.76.49-2.09.73-4.32.73-6.69s-.24-4.59-.73-6.68ZM594.94,186.99c-.55,1.81-1.34,3.34-2.37,4.6-1.04,1.26-2.3,2.22-3.79,2.87-1.49.66-3.17.99-5.05.99s-3.57-.33-5.06-.99c-1.5-.66-2.77-1.62-3.81-2.87-1.04-1.25-1.84-2.78-2.39-4.59-.55-1.81-.82-3.85-.82-6.14s.27-4.33.82-6.14c.55-1.81,1.34-3.34,2.39-4.59,1.04-1.25,2.31-2.21,3.81-2.86,1.49-.66,3.18-.99,5.06-.99s3.57.33,5.05.99c1.49.66,2.75,1.61,3.79,2.86,1.04,1.25,1.83,2.78,2.37,4.59.55,1.81.82,3.85.82,6.14s-.27,4.34-.82,6.14Z" fill="#4e4e4a"/><path d="M649.31,169.05c-.7-2.54-1.7-4.69-3.02-6.44-1.32-1.74-2.95-3.07-4.88-3.99-1.94-.91-4.15-1.37-6.64-1.37-2.08,0-4.01.33-5.78.99-1.77.66-3.35,1.61-4.73,2.86-1.38,1.25-2.55,2.79-3.51,4.61-.07.14-.15.28-.22.42-.47.95-1.92.61-1.92-.46v-6.19c0-.56-.45-1.01-1.01-1.01h-8.16c-.56,0-1.01.45-1.01,1.01v42.74c0,.56.45,1.01,1.01,1.01h8.16c.56,0,1.01-.45,1.01-1.01v-22.84c0-1.4.11-2.69.35-3.88.23-1.19.57-2.27,1.02-3.25.45-.97,1-1.83,1.65-2.58.66-.75,1.41-1.37,2.26-1.87.85-.5,1.79-.88,2.82-1.15,1.03-.27,2.15-.4,3.37-.4,1.69,0,3.17.26,4.43.78,1.26.52,2.31,1.3,3.16,2.34.85,1.04,1.47,2.34,1.89,3.89.41,1.55.62,3.37.62,5.45v23.49c0,.56.45,1.01,1.01,1.01h8.16c.56,0,1.01-.45,1.01-1.01v-24.5c0-3.23-.35-6.12-1.04-8.67Z" fill="#4e4e4a"/><path d="M696.46,171.03c-1.02-2.89-2.46-5.35-4.33-7.39-1.88-2.04-4.13-3.61-6.77-4.72-2.64-1.11-5.59-1.66-8.85-1.66s-6.28.56-8.99,1.69c-2.71,1.13-5.03,2.73-6.96,4.8-1.93,2.07-3.43,4.55-4.5,7.44-1.06,2.89-1.59,6.09-1.59,9.61s.53,6.75,1.6,9.66c1.07,2.91,2.58,5.4,4.55,7.47,1.96,2.07,4.31,3.67,7.05,4.81,2.73,1.14,5.77,1.7,9.11,1.7,2.66,0,5.15-.37,7.45-1.11,2.3-.74,4.35-1.81,6.16-3.21,1.81-1.4,3.34-3.1,4.61-5.1,1.04-1.65,1.86-3.48,2.45-5.49.19-.65-.29-1.31-.97-1.31h-7.83c-.4,0-.77.24-.93.61-.44,1.01-.95,1.92-1.54,2.71-.7.95-1.51,1.75-2.41,2.39-.91.64-1.92,1.12-3.05,1.44-1.12.32-2.35.48-3.67.48-1.95,0-3.71-.33-5.27-1-1.56-.67-2.89-1.64-3.99-2.89-1.1-1.26-1.94-2.78-2.53-4.58-.3-.93-.53-1.91-.67-2.95-.06.04-.15.02-.16-.07-.38-2.08-.72-5.65.57-9.33,0-.02.01-.04.02-.06.06-.24.13-.48.2-.71.56-1.81,1.37-3.35,2.42-4.62,1.05-1.26,2.32-2.23,3.83-2.89,1.5-.66,3.21-1,5.11-1s3.54.33,4.98.98c1.44.66,2.65,1.62,3.64,2.9.98,1.28,1.72,2.86,2.23,4.73.09.33.17.68.25,1.03.13.63-.34,1.23-.99,1.23h-17.74c-.26,0-.51.1-.7.28-.51.48-1.03,1.05-1.52,1.74-1,1.41-1.53,2.85-1.81,4.04-.15.64.33,1.25.99,1.25h31.01c.53,0,.97-.41,1.01-.94.02-.25.03-.48.04-.72.02-.53.03-1.05.03-1.58,0-3.56-.51-6.78-1.52-9.67Z" fill="#4e4e4a"/><path d="M734.38,189.71c-.56,1.16-1.28,2.16-2.17,3.01-.89.85-1.96,1.52-3.21,2-1.24.48-2.68.72-4.3.72-1.88,0-3.57-.33-5.06-.99-1.5-.66-2.77-1.62-3.81-2.87-1.04-1.25-1.84-2.78-2.39-4.59-.55-1.81-.82-3.85-.82-6.14s.28-4.33.82-6.14c.55-1.81,1.34-3.34,2.39-4.59,1.04-1.25,2.31-2.21,3.81-2.86,1.5-.66,3.18-.99,5.06-.99,1.62,0,3.06.24,4.3.72s2.32,1.14,3.21,1.99c.89.85,1.62,1.85,2.17,3.01.45.94.8,1.93,1.05,2.98.11.45.52.77.98.77h8.17c.63,0,1.11-.57,1-1.19-.4-2.2-1.06-4.26-2.01-6.18-1.11-2.26-2.56-4.21-4.36-5.86-1.8-1.65-3.92-2.94-6.36-3.87-2.44-.93-5.17-1.4-8.17-1.4-2.21,0-4.29.25-6.25.76-1.96.51-3.77,1.24-5.42,2.19-1.65.95-3.13,2.12-4.45,3.5-1.31,1.38-2.42,2.95-3.34,4.7-.92,1.76-1.62,3.67-2.1,5.76-.49,2.08-.73,4.31-.73,6.68s.24,4.6.73,6.69c.49,2.09,1.19,4.01,2.1,5.76.91,1.75,2.03,3.31,3.35,4.69,1.32,1.38,2.8,2.55,4.45,3.51,1.64.96,3.45,1.7,5.41,2.2,1.96.51,4.05.76,6.25.76,3,0,5.72-.47,8.16-1.4,2.44-.93,4.56-2.22,6.36-3.87,1.81-1.64,3.26-3.59,4.38-5.86.94-1.92,1.61-3.98,2.01-6.18.11-.62-.37-1.19-1-1.19h-8.17c-.47,0-.87.32-.98.77-.25,1.05-.6,2.04-1.05,2.97Z" fill="#4e4e4a"/><path d="M776.42,158.47c-2.3,0-4.36.35-6.16,1.05-1.81.7-3.38,1.7-4.72,3.01-1.34,1.31-2.45,2.91-3.34,4.79,0,.02-.02.04-.03.05-.46.98-1.91.67-1.91-.41v-7.48c0-.56-.45-1.01-1.01-1.01h-8.16c-.56,0-1.01.45-1.01,1.01v42.74c0,.56.45,1.01,1.01,1.01h8.16c.56,0,1.01-.45,1.01-1.01v-20.3c0-2.36.25-4.4.75-6.13.5-1.73,1.33-3.17,2.5-4.3,1.16-1.14,2.72-1.98,4.66-2.54,1.94-.56,4.36-.83,7.24-.83h2.34c.56,0,1.01-.45,1.01-1.01v-7.62c0-.56-.45-1.01-1.01-1.01h-1.32Z" fill="#4e4e4a"/><path d="M822.5,171.03c-1.02-2.89-2.46-5.35-4.33-7.39-1.88-2.04-4.13-3.61-6.77-4.72-2.64-1.11-5.59-1.66-8.85-1.66s-6.29.56-8.99,1.69c-2.71,1.13-5.03,2.73-6.96,4.8-1.93,2.07-3.43,4.55-4.5,7.44-1.06,2.89-1.59,6.09-1.59,9.61s.53,6.75,1.6,9.66c1.07,2.91,2.58,5.4,4.55,7.47,1.96,2.07,4.31,3.67,7.05,4.81,2.73,1.14,5.77,1.7,9.11,1.7,2.67,0,5.15-.37,7.45-1.11,2.3-.74,4.36-1.81,6.16-3.21,1.81-1.4,3.34-3.1,4.61-5.1,1.04-1.65,1.86-3.48,2.45-5.49.19-.65-.29-1.31-.97-1.31h-7.83c-.4,0-.77.24-.93.61-.44,1.01-.95,1.92-1.54,2.71-.7.95-1.51,1.75-2.41,2.39-.91.64-1.92,1.12-3.05,1.44-1.12.32-2.35.48-3.67.48-1.95,0-3.71-.33-5.27-1-1.56-.67-2.89-1.64-3.99-2.89-1.1-1.26-1.94-2.78-2.53-4.58-.25-.75-.44-1.54-.58-2.36,0-.04-.02-.08-.03-.12l-.15-.48-.03-.12c-.19-1.04-.36-2.44-.33-4.03,0-.03,0-.05,0-.07-.03-2.99.64-5.99,2.17-8.59.01-.02.03-.04.04-.07.38-.69.8-1.33,1.28-1.91.04-.05.08-.09.12-.14.21-.25.44-.49.68-.72.88-.85,1.89-1.53,3.03-2.03,1.5-.66,3.21-1,5.11-1s3.54.33,4.98.98c1.44.66,2.65,1.62,3.64,2.9.98,1.28,1.72,2.86,2.23,4.73.09.33.17.68.25,1.03.13.63-.34,1.23-.99,1.23h-17.68c-.26,0-.51.1-.7.28-.51.48-1.04,1.06-1.52,1.75-1,1.41-1.53,2.85-1.81,4.04-.15.64.33,1.25.99,1.25h30.95c.53,0,.97-.41,1.01-.94.02-.25.03-.49.04-.72.02-.53.03-1.05.03-1.58,0-3.56-.51-6.78-1.52-9.67Z" fill="#4e4e4a"/><path d="M869.35,171.03c-1.02-2.89-2.46-5.35-4.34-7.39-1.87-2.04-4.13-3.61-6.77-4.72-2.64-1.11-5.59-1.66-8.85-1.66s-6.29.56-8.99,1.69c-2.71,1.13-5.03,2.73-6.96,4.8-1.93,2.07-3.43,4.55-4.5,7.44-1.06,2.89-1.59,6.09-1.59,9.61s.53,6.75,1.6,9.66c1.07,2.91,2.59,5.4,4.55,7.47,1.96,2.07,4.31,3.67,7.04,4.81,2.73,1.14,5.77,1.7,9.12,1.7,2.66,0,5.15-.37,7.45-1.11,2.3-.74,4.35-1.81,6.16-3.21,1.81-1.4,3.34-3.1,4.61-5.1,1.04-1.65,1.86-3.48,2.45-5.5.19-.65-.29-1.31-.97-1.31h-7.83c-.4,0-.77.24-.93.61-.44,1.01-.95,1.92-1.54,2.71-.7.95-1.51,1.75-2.42,2.39-.91.64-1.92,1.12-3.04,1.44-1.12.32-2.35.48-3.67.48-1.95,0-3.7-.33-5.27-1-1.57-.67-2.89-1.64-3.99-2.89-1.1-1.26-1.94-2.78-2.53-4.58-.31-.93-.53-1.93-.68-2.98h0s-.01-.03-.02-.04c-.33-1.77-.62-4.64.1-7.73h0c.14-.83.32-1.62.56-2.37.16-.53.35-1.04.56-1.52,0-.02.01-.03.02-.04.49-1.15,1.1-2.17,1.84-3.05.22-.27.46-.53.7-.77h0s.08-.08.11-.12c.87-.84,1.88-1.51,3.01-2,1.5-.66,3.21-1,5.11-1s3.54.33,4.98.98c1.44.66,2.65,1.62,3.63,2.9.98,1.28,1.73,2.86,2.24,4.73.09.33.17.68.25,1.03.13.63-.34,1.23-.99,1.23h-17.6c-.26,0-.51.1-.7.28-.51.48-1.04,1.06-1.52,1.75-1,1.41-1.53,2.85-1.81,4.04-.15.64.33,1.25.99,1.25h30.87c.53,0,.97-.41,1.01-.94.02-.25.03-.48.04-.72.02-.53.03-1.05.03-1.58,0-3.56-.51-6.78-1.52-9.67Z" fill="#4e4e4a"/><path d="M894.64,180.45l20.37-20.24c.64-.64.19-1.73-.71-1.73h-9.56c-.27,0-.53.11-.72.31l-16.9,17.3c-.63.65-1.74.2-1.74-.71v-31.21c0-.56-.45-1.01-1.01-1.01h-8.16c-.56,0-1.01.45-1.01,1.01v58.06c0,.56.45,1.01,1.01,1.01h8.16c.56,0,1.01-.45,1.01-1.01v-14.59c0-.88,1.04-1.34,1.69-.75l17.7,16.09c.19.17.43.26.68.26h10.58c.93,0,1.37-1.15.67-1.77l-22.02-19.54c-.44-.39-.46-1.06-.04-1.48Z" fill="#4e4e4a"/><path d="M331.61,201.43h106.47c.45,0,.84-.31.96-.74.02-.08.04-.15.05-.22,0,0,.24-1.15-.13-2.31-.07-.21-.14-.35-.17-.4,0,0,0,0,0,0-.17-.3-.5-.47-.84-.47h-106.31c-4.47-.04-8.64-1.89-11.15-4.92h-4.98c.46.89,1.02,1.74,1.68,2.55,3.34,4.07,8.6,6.46,14.43,6.52Z" fill="#4e4e4a"/><path d="M292.69,173.56c-.42,2.18.31,4.55,2.04,6.67,2.53,3.07,6.75,4.94,11.26,4.98h122.81c4.57.06,8.81,1.54,12.03,4.15.89.71,1.7,1.5,2.41,2.39,1.39,1.68,2.33,3.59,2.76,5.52.33,1.39.42,2.78.19,4.15,0,.13-.02.25-.04.37-1.23,6.6-8.66,11.69-17.03,11.69h-139.69c-.59,0-1.06-.48-1.06-1.06v-2.03c0-.59.48-1.06,1.06-1.06h139.38c7.04.19,12.17-3.95,13.17-7.91.02-.05.03-.1.05-.15.02-.08.05-.17.06-.25.23-1.23.08-2.51-.39-3.76-.33-1-.91-1.97-1.66-2.91-2.51-3.07-6.73-4.94-11.24-5.01h-122.81c-4.57-.04-8.81-1.52-12.03-4.13-.89-.71-1.7-1.52-2.41-2.39-2.49-3.01-3.55-6.69-2.93-10.05,1.25-6.6,8.68-11.69,17.03-11.69h139.71c.59,0,1.06.48,1.06,1.06v2.03c0,.59-.48,1.06-1.06,1.06h-139.38c-7.31-.15-12.5,4.22-13.27,8.31Z" fill="#4e4e4a"/><path d="M331.3,173.17c-7.21,0-13.75,3.78-16.18,9.05h4.86c2.18-2.72,6.25-4.9,11.32-4.9h138.63c.59,0,1.06-.48,1.06-1.06v-2.03c0-.59-.48-1.06-1.06-1.06h-138.63Z" fill="#4e4e4a"/><path d="M449.18,201.43h20.74c.59,0,1.06-.48,1.06-1.06v-2.03c0-.59-.48-1.06-1.06-1.06h-20.91c.29,1.41.35,2.8.17,4.15Z" fill="#4e4e4a"/><path d="M500.46,540.88c-14.44-2.15-26.16-4.08-36.94-5.94-10.77-1.87-20.59-3.67-30.95-5.68-10.36-2.01-21.28-4.22-33.99-6.97-12.84-14.73-23.21-26.3-32.7-36.67-9.49-10.36-18.09-19.53-27.13-28.87-8.86-9.15-18.15-18.51-28.82-28.71.02,14.25.05,25.04.07,35.82.02,10.96.04,21.93.07,36.55-12.84-3.57-22-6.26-30.94-8.95-8.93-2.68-17.63-5.36-28.59-8.89v-157.33c10.85-3.59,19.49-6.34,28.36-9.08,8.88-2.75,18-5.52,30.8-9.18.03,16.16.05,28.28.07,40.41.03,11.93.05,23.87.08,39.66,10.35-11.03,19.34-21.15,27.93-31.06,8.76-10.11,17.09-20.04,26.29-31.27,9.2-11.23,19.25-23.76,31.72-39.74,11.86-2.66,22.03-4.81,31.69-6.77,9.66-1.96,18.8-3.72,28.83-5.56,10.02-1.83,20.94-3.74,34.37-5.88-11.11,12.76-20.89,23.92-29.88,34.07-9,10.16-17.2,19.33-25.07,28.01-7.87,8.68-15.41,16.89-23.03,25.04-7.61,8.15-15.31,16.24-23.43,24.58-7.9,8.11-16.21,16.46-25.18,25.15,9.67,8.61,18.63,16.93,27.16,25.04,8.75,8.31,17.04,16.41,25.25,24.57,8.21,8.17,16.34,16.41,24.82,25.14,8.49,8.72,17.32,17.94,27,28.17,9.69,10.24,20.21,21.48,32.14,34.34Z" fill="#4e4e4a"/><path d="M594.53,552c-12.47-1.1-22.68-2.13-32.11-3.15-9.43-1.02-18.08-2.04-27.27-3.2-9.19-1.16-18.94-2.46-30.4-4.14.01-15.83.03-30.52.04-44.41.01-13.89.02-26.97.03-39.57.01-12.6.02-24.71.03-36.66.01-11.95.02-23.74.03-35.69,0-11.95.02-24.06.03-36.66.01-12.6.02-25.68.03-39.57.01-13.89.02-28.58.04-44.41,11.55-1.73,21.36-3.08,30.63-4.28,9.27-1.2,17.99-2.25,27.5-3.31,9.51-1.06,19.82-2.12,32.4-3.25-.06,17.04-.11,32.87-.16,47.83-.05,14.96-.1,29.05-.14,42.61-.05,13.57-.09,26.61-.13,39.48-.04,12.87-.09,25.57-.13,38.44-.04,12.87-.09,25.91-.13,39.48-.05,13.57-.09,27.65-.14,42.61-.05,14.96-.1,30.78-.16,47.83Z" fill="#4e4e4a"/><path d="M946.81,363.12c-3.63-12.64-8.98-24.46-16.11-35.54-7.14-11.09-15.9-21.34-26.4-30.72-10.51-9.38-22.53-17.68-36.2-24.75-6.84-3.53-14.05-6.73-21.66-9.58-7.61-2.84-15.61-5.33-24.03-7.43-8.42-2.1-17.18-3.76-26.32-4.96-9.13-1.19-18.63-1.91-28.51-2.14-15.22-.35-28.89-.44-41.4-.39-12.51.05-23.91.24-35.2.55-11.28.3-22.44.72-34.37,1.31-11.93.59-24.63,1.35-38.88,2.42-.07,17.25-.13,33.27-.19,48.41-.06,15.14-.12,29.4-.18,43.13-.05,13.73-.1,26.93-.16,39.96-.05,13.02-.1,25.87-.15,38.9-.05,13.03-.11,26.23-.16,39.96-.06,13.73-.11,27.99-.18,43.12-.06,15.14-.12,31.16-.19,48.41,14.11,1.04,26.68,1.79,38.48,2.37,11.8.58,22.84,1,33.99,1.31,11.16.31,22.43.51,34.8.58,12.36.07,26.02.01,41.19-.3,9.85-.21,19.32-.9,28.45-2.07,9.12-1.16,17.89-2.79,26.32-4.86,8.43-2.07,16.45-4.53,24.09-7.35,7.64-2.81,14.9-5.98,21.78-9.49,13.77-7,25.94-15.25,36.61-24.57,10.67-9.32,19.63-19.54,26.97-30.58,7.35-11.05,12.93-22.84,16.81-35.45,3.89-12.61,5.89-25.92,6.03-40.11.14-14.2-1.59-27.51-5.23-40.14ZM856.32,428.77c-1.89,7.87-4.65,15-8.29,21.41-3.64,6.4-8.15,12.11-13.57,17.1-5.43,4.99-11.67,9.23-18.76,12.69-7.09,3.46-15.05,6.12-23.93,7.95-8.88,1.82-18.62,2.81-29.28,2.92-11.4.11-20.19.14-28.82.14-5.91,0-11.79-.01-18.54-.06.09-12.28.18-23.57.25-34.24.1-12.89.18-24.86.27-36.52.09-11.66.17-23.02.26-34.68.08-11.66.17-23.63.26-36.52.08-10.67.17-21.96.25-34.24,6.8-.04,12.73-.04,18.68-.03,8.68.01,17.44.06,28.86.2,10.68.13,20.43,1.15,29.29,3,8.86,1.86,16.79,4.55,23.83,8.03,7.04,3.49,13.21,7.75,18.55,12.76,5.34,5.01,9.76,10.73,13.28,17.15,3.52,6.42,6.14,13.57,7.89,21.44,1.75,7.88,2.58,16.45,2.49,25.76-.09,9.3-1.08,17.87-2.97,25.74Z" fill="#4e4e4a"/><path d="M1148.19,305.47c13.54,6.91,24.45,14.24,33.17,21.8,8.72,7.56,15.13,15.23,19.54,23.18,4.41,7.96,6.55,16.01,6.54,24.69-10.94-1.26-19.58-2.22-28.44-3.18-8.86-.96-17.94-1.93-30.6-3.21.03-4.28-1.07-8.24-3.3-11.98-2.24-3.74-5.44-7.16-9.67-10.29-4.22-3.13-9.39-5.89-15.59-8.26-6.2-2.37-13.23-4.22-21.18-5.47-4.4-.69-8.71-1.13-12.91-1.3-4.2-.17-8.23-.05-12.07.37-3.84.42-7.39,1.13-10.64,2.14-3.25,1.01-6.05,2.33-8.39,3.96-2.34,1.63-4.18,3.55-5.52,5.76-1.34,2.21-2.02,4.74-2.05,7.55-.03,2.87.52,5.42,1.63,7.63,1.11,2.21,2.82,4.16,5.09,5.86,2.28,1.69,5.14,3.2,8.58,4.51,3.44,1.32,7.42,2.54,11.93,3.66,4.51,1.13,9.55,2.2,15.09,3.22,5.54,1.02,11.61,2.11,18.15,3.26,3.93.69,5.87,1.03,9.73,1.69,7.58,1.28,15.35,2.67,23.27,4.15,7.92,1.47,15.52,3.23,22.8,5.19,7.28,1.96,14.04,4.26,20.32,6.83,6.28,2.56,11.64,5.58,16.18,9.02,4.54,3.44,8.08,7.41,10.71,11.96,2.63,4.55,3.93,9.9,3.93,16.28,0,8.29-2.28,15.95-7.01,23.53-4.72,7.58-11.58,14.94-20.93,22.23-9.34,7.28-20.99,14.42-35.41,21.17-7.21,3.37-15.03,6.6-23.5,9.6-8.48,3-17.62,5.79-27.48,8.25-10.56,2.64-20.75,4.62-30.5,5.88-9.75,1.26-19.04,1.79-27.8,1.56-8.76-.23-16.96-1.18-24.53-2.86-7.57-1.67-14.51-4.07-20.77-7.17-12.51-6.2-22.19-15.13-28.72-26.5-6.53-11.36-9.78-24.89-9.62-40.15,16.7-.78,28.87-1.42,40.85-2.09,11.98-.67,23.78-1.36,39-2.34-.06,5.88,1.39,11.02,4.32,15.31,2.93,4.29,7.16,7.7,12.63,10.18,5.47,2.48,12.08,3.96,19.74,4.48,7.66.51,16.2.02,25.48-1.39,7.9-1.2,15.1-2.87,21.64-4.93,6.54-2.06,12.1-4.45,16.76-7.12,4.66-2.67,8.27-5.59,10.91-8.76,2.63-3.18,3.95-6.55,3.97-10.22.02-2.44-.46-4.51-1.44-6.21-.97-1.7-2.46-3.13-4.47-4.28-2.01-1.15-4.5-2.1-7.49-2.84-2.99-.74-6.5-1.35-10.55-1.83-4.05-.48-8.65-.89-13.83-1.22-5.18-.33-10.88-.69-17.14-1.08-5.34-.35-8.03-.54-13.48-.93-7.74-.49-16.03-1.16-24.89-2.03-8.87-.87-17.76-2.22-26.66-4.09-8.9-1.87-17.52-4.44-25.84-7.76-8.31-3.32-15.75-7.69-22.22-13.11-6.47-5.43-11.66-12.1-15.49-19.99-3.83-7.89-5.71-17.3-5.6-28.11.1-9.77,1.86-18.67,5.27-26.55,3.4-7.88,8.19-14.74,14.29-20.5,6.1-5.76,13.41-10.42,21.82-13.93,8.41-3.51,17.7-5.86,27.75-7.07,10.06-1.2,20.76-1.25,31.98-.21,11.22,1.04,22.75,3.14,34.47,6.15,9.36,2.4,18.02,5.16,26.02,8.18,8.01,3.01,15.36,6.28,22.14,9.74Z" fill="#4e4e4a"/><path d="M228.71,342.23c-.81-21.77-16.4-36.25-38.17-35.44,21.77-.81,36.25-16.4,35.44-38.17.81,21.77,16.4,36.25,38.17,35.44-21.77.81-36.25,16.4-35.44,38.17Z"/><path d="M1162.13,594.48c-.81-21.77-16.4-36.25-38.17-35.44,21.77-.81,36.25-16.4,35.44-38.17.81,21.77,16.4,36.25,38.17,35.44-21.77.81-36.25,16.4-35.44,38.17Z"/><path d="M1124.58,611.33c-.37-9.97-7.51-16.59-17.47-16.22,9.97-.37,16.59-7.51,16.22-17.47.37,9.97,7.51,16.59,17.47,16.22-9.97.37-16.59,7.51-16.22,17.47Z"/></svg>