<?xml version="1.0" encoding="UTF-8"?>
<svg id="a" xmlns="http://www.w3.org/2000/svg" version="1.1" viewBox="0 0 1545 428.4">
  <!-- Generator: Adobe Illustrator 29.2.1, SVG Export Plug-In . SVG Version: 2.1.0 Build 116)  -->
  <defs>
    <style>
      .st0, .st1 {
        isolation: isolate;
      }

      .st2, .st1 {
        fill: #f0efe7;
      }

      .st1 {
        font-family: Recoleta-RegularDEMO, Recoleta;
        font-size: 78.9px;
      }
    </style>
  </defs>
  <path class="st2" d="M682.6,159.5c-1.2-2.9-2.8-5.4-4.8-7.5-2-2.1-4.4-3.8-7-5.2-2.7-1.4-5.5-2.5-8.4-3.4s-5.9-1.6-8.9-2.2c-3-.6-5.9-1.1-8.6-1.5l-6.6-1.1c-1.8-.3-3.6-.6-5.4-.9s-3.5-.7-5.2-1.1c-1.6-.4-3.1-.9-4.5-1.5-1.4-.6-2.6-1.3-3.7-2.1-1-.8-1.8-1.7-2.4-2.8-.6-1.1-.9-2.3-.9-3.7s.5-3.5,1.5-5,2.4-2.8,4.3-3.8c1.8-1.1,4.1-1.9,6.7-2.5s5.5-.9,8.6-.9,6.6.4,9.3,1.1c2.7.7,5,1.8,6.8,3.2,1.8,1.4,3.2,3,4.1,5,.5,1.1.9,2.3,1.2,3.6.3,1.7,1.7,2.9,3.4,2.9h16.6c1.3,0,2.3-1.1,2.2-2.3-.3-4.2-1.2-8.1-2.9-11.6-2-4.1-4.8-7.6-8.6-10.5-3.8-2.9-8.4-5.1-13.8-6.7-5.5-1.6-11.7-2.3-18.7-2.3s-12.6.7-17.9,2.1c-5.3,1.4-9.8,3.4-13.5,6.1-3.7,2.6-6.5,5.8-8.5,9.5-2,3.7-3,7.9-3,12.5s.6,6.9,1.8,9.6c1.2,2.7,2.7,5,4.7,7,2,2,4.2,3.6,6.7,4.9,2.5,1.3,5.2,2.4,8,3.3,2.8.9,5.6,1.6,8.4,2.1,2.8.5,5.4,1,7.9,1.4l6.6,1.2c2.1.4,4.2.8,6.2,1.1s3.9.8,5.7,1.3c1.8.5,3.4,1.1,4.9,1.7,1.5.6,2.8,1.4,3.8,2.3,1.1.9,1.9,1.9,2.5,3.1.6,1.2.9,2.6.9,4.2s-.5,3.8-1.6,5.4c-1.1,1.6-2.6,2.9-4.6,4-2,1.1-4.5,1.9-7.4,2.5-2.9.6-6.2.9-9.9.9s-7.7-.4-10.8-1.1c-3.1-.7-5.6-1.8-7.6-3.2s-3.5-3.1-4.5-5.2c-.7-1.5-1.2-3.2-1.4-5.1-.1-1.1-1.1-2-2.2-2h-17.7c-1.3,0-2.3,1.1-2.2,2.3.2,4.6,1.2,8.7,2.9,12.3,2,4.2,4.9,7.8,8.8,10.7s8.8,5.1,14.6,6.6c5.8,1.5,12.6,2.3,20.2,2.3s13.8-.7,19.5-2.1c5.6-1.4,10.4-3.4,14.2-6,3.8-2.6,6.8-5.9,8.7-9.7,2-3.8,3-8.2,3-13.1s-.6-7.4-1.8-10.3h0Z"/>
  <path class="st2" d="M719.8,163.9c0,3.1.3,5.7.8,7.9.6,2.2,1.4,4.1,2.6,5.5s2.6,2.5,4.4,3.2c1.8.7,3.9,1.1,6.4,1.1s4.2-.2,6.9-.7c2-.3,4.2-.8,6.7-1.4,1.4-.3,2.8.7,2.8,2.2v13.6c0,1-.7,1.9-1.6,2.1-3.4.9-6.6,1.6-9.7,2.1-3.5.6-6.9.8-10,.8-5.2,0-9.8-.8-13.7-2.3-3.9-1.6-7.2-3.9-9.9-6.9-2.7-3.1-4.7-6.9-6.1-11.5s-2.1-9.9-2.1-15.9v-44.2c0-1.2-1-2.2-2.2-2.2h-8.4c-1.2,0-2.2-1-2.2-2.2v-13.8c0-1.2,1-2.2,2.2-2.2h8.4c1.2,0,2.2-1,2.2-2.2v-18.3c0-1.2,1-2.2,2.2-2.2h18c1.2,0,2.2,1,2.2,2.2v18.3c0,1.2,1,2.2,2.2,2.2h26.1c1.2,0,2.2,1,2.2,2.2v13.8c0,1.2-1,2.2-2.2,2.2h-26.1c-1.2,0-2.2,1-2.2,2.2v44.2h0Z"/>
  <path class="st2" d="M849,133.8c-1.1-4.6-2.6-8.8-4.6-12.7-2-3.9-4.5-7.3-7.4-10.4s-6.2-5.6-9.8-7.7-7.6-3.7-12-4.8c-4.3-1.1-8.9-1.7-13.8-1.7s-9.5.6-13.8,1.7c-4.3,1.1-8.3,2.7-12,4.8-3.6,2.1-6.9,4.7-9.8,7.7-2.9,3.1-5.3,6.5-7.4,10.4-2,3.9-3.6,8.1-4.6,12.7-1.1,4.6-1.6,9.5-1.6,14.7s.5,10.1,1.6,14.8c1.1,4.6,2.6,8.8,4.6,12.7,2,3.9,4.5,7.3,7.4,10.3,2.9,3.1,6.2,5.6,9.8,7.8,3.6,2.1,7.6,3.7,11.9,4.9s8.9,1.7,13.8,1.7,9.5-.6,13.8-1.7c4.3-1.1,8.3-2.7,11.9-4.9,3.6-2.1,6.9-4.7,9.8-7.8,2.9-3,5.4-6.5,7.4-10.3,2-3.9,3.6-8.1,4.6-12.7,1.1-4.6,1.6-9.5,1.6-14.8s-.5-10.1-1.6-14.7h0ZM826.2,162.1c-1.2,4-3,7.4-5.2,10.1-2.3,2.8-5.1,4.9-8.3,6.3-3.3,1.4-7,2.2-11.2,2.2s-7.9-.7-11.2-2.2c-3.3-1.5-6.1-3.6-8.4-6.3-2.3-2.8-4.1-6.1-5.3-10.1-1.2-4-1.8-8.5-1.8-13.6s.6-9.6,1.8-13.5c1.2-4,3-7.4,5.3-10.1s5.1-4.9,8.4-6.3c3.3-1.4,7-2.2,11.2-2.2s7.9.7,11.2,2.2c3.3,1.4,6.1,3.6,8.3,6.3,2.3,2.8,4,6.1,5.2,10.1,1.2,4,1.8,8.5,1.8,13.5s-.6,9.6-1.8,13.6h0Z"/>
  <path class="st2" d="M946.1,122.5c-1.5-5.6-3.8-10.3-6.7-14.2s-6.5-6.8-10.8-8.8-9.2-3-14.6-3-8.8.7-12.8,2.2c-3.9,1.4-7.4,3.6-10.4,6.3-3,2.8-5.6,6.2-7.8,10.2-.2.3-.3.6-.5.9-1,2.1-4.2,1.3-4.2-1v-13.7c0-1.2-1-2.2-2.2-2.2h-18c-1.2,0-2.2,1-2.2,2.2v94.3c0,1.2,1,2.2,2.2,2.2h18c1.2,0,2.2-1,2.2-2.2v-50.4c0-3.1.2-5.9.8-8.6.5-2.6,1.3-5,2.2-7.2,1-2.2,2.2-4,3.7-5.7,1.5-1.6,3.1-3,5-4.1,1.9-1.1,4-1.9,6.2-2.5,2.3-.6,4.8-.9,7.4-.9s7,.6,9.8,1.7,5.1,2.9,7,5.2c1.9,2.3,3.2,5.2,4.2,8.6.9,3.4,1.4,7.4,1.4,12v51.8c0,1.2,1,2.2,2.2,2.2h18c1.2,0,2.2-1,2.2-2.2v-54.1c0-7.1-.8-13.5-2.3-19.1h0Z"/>
  <path class="st2" d="M1050.1,126.9c-2.2-6.4-5.4-11.8-9.6-16.3-4.1-4.5-9.1-8-14.9-10.4-5.8-2.4-12.3-3.7-19.5-3.7s-13.9,1.2-19.8,3.7c-6,2.5-11.1,6-15.4,10.6-4.3,4.6-7.6,10-9.9,16.4-2.3,6.4-3.5,13.4-3.5,21.2s1.2,14.9,3.5,21.3,5.7,11.9,10,16.5c4.3,4.6,9.5,8.1,15.5,10.6,6,2.5,12.7,3.8,20.1,3.8s11.4-.8,16.4-2.4,9.6-4,13.6-7.1c4-3.1,7.4-6.8,10.2-11.3,2.3-3.6,4.1-7.7,5.4-12.1.4-1.4-.6-2.9-2.1-2.9h-17.3c-.9,0-1.7.5-2,1.3-1,2.2-2.1,4.2-3.4,6-1.6,2.1-3.3,3.9-5.3,5.3-2,1.4-4.2,2.5-6.7,3.2-2.5.7-5.2,1.1-8.1,1.1-4.3,0-8.2-.7-11.6-2.2s-6.4-3.6-8.8-6.4c-2.4-2.8-4.3-6.1-5.6-10.1-.7-2-1.2-4.2-1.5-6.5-.1,0-.3,0-.3-.1-.8-4.6-1.6-12.5,1.3-20.6,0,0,0,0,0-.1.1-.5.3-1.1.4-1.6,1.2-4,3-7.4,5.3-10.2,2.3-2.8,5.1-4.9,8.4-6.4s7.1-2.2,11.3-2.2,7.8.7,11,2.2c3.2,1.4,5.8,3.6,8,6.4,2.2,2.8,3.8,6.3,4.9,10.4.2.7.4,1.5.5,2.3.3,1.4-.8,2.7-2.2,2.7h-39.1c-.6,0-1.1.2-1.5.6-1.1,1.1-2.3,2.3-3.3,3.9-2.2,3.1-3.4,6.3-4,8.9-.3,1.4.7,2.8,2.2,2.8h68.4c1.2,0,2.1-.9,2.2-2.1,0-.5,0-1.1,0-1.6,0-1.2,0-2.3,0-3.5,0-7.9-1.1-15-3.3-21.3h0Z"/>
  <path class="st2" d="M1131.4,168.1c-1.2,2.6-2.8,4.8-4.8,6.6-2,1.9-4.3,3.4-7.1,4.4-2.7,1.1-5.9,1.6-9.5,1.6s-7.9-.7-11.2-2.2-6.1-3.6-8.4-6.3c-2.3-2.8-4.1-6.1-5.3-10.1-1.2-4-1.8-8.5-1.8-13.6s.6-9.6,1.8-13.5c1.2-4,3-7.4,5.3-10.1s5.1-4.9,8.4-6.3c3.3-1.4,7-2.2,11.2-2.2s6.8.5,9.5,1.6,5.1,2.5,7.1,4.4c2,1.9,3.6,4.1,4.8,6.7,1,2.1,1.8,4.3,2.3,6.6.2,1,1.1,1.7,2.2,1.7h18c1.4,0,2.4-1.2,2.2-2.6-.9-4.9-2.3-9.4-4.4-13.6-2.4-5-5.7-9.3-9.6-12.9s-8.7-6.5-14-8.5-11.4-3.1-18-3.1-9.5.6-13.8,1.7c-4.3,1.1-8.3,2.7-11.9,4.8-3.6,2.1-6.9,4.7-9.8,7.7-2.9,3.1-5.3,6.5-7.4,10.4-2,3.9-3.6,8.1-4.6,12.7-1.1,4.6-1.6,9.5-1.6,14.7s.5,10.1,1.6,14.8c1.1,4.6,2.6,8.8,4.6,12.7,2,3.9,4.5,7.3,7.4,10.3,2.9,3.1,6.2,5.6,9.8,7.8,3.6,2.1,7.6,3.7,11.9,4.9,4.3,1.1,8.9,1.7,13.8,1.7s12.6-1,18-3.1c5.4-2.1,10.1-4.9,14-8.5,4-3.6,7.2-7.9,9.7-12.9,2.1-4.2,3.6-8.8,4.4-13.6.2-1.4-.8-2.6-2.2-2.6h-18c-1,0-1.9.7-2.2,1.7-.6,2.3-1.3,4.5-2.3,6.6h0Z"/>
  <path class="st2" d="M1224.1,99.2c-5.1,0-9.6.8-13.6,2.3-4,1.5-7.5,3.8-10.4,6.7-2.9,2.9-5.4,6.4-7.4,10.6h0c-1,2.3-4.2,1.6-4.2-.8v-16.5c0-1.2-1-2.2-2.2-2.2h-18c-1.2,0-2.2,1-2.2,2.2v94.3c0,1.2,1,2.2,2.2,2.2h18c1.2,0,2.2-1,2.2-2.2v-44.8c0-5.2.6-9.7,1.7-13.5,1.1-3.8,2.9-7,5.5-9.5,2.6-2.5,6-4.4,10.3-5.6s9.6-1.8,16-1.8h5.2c1.2,0,2.2-1,2.2-2.2v-16.8c0-1.2-1-2.2-2.2-2.2h-2.9Z"/>
  <path class="st2" d="M1325.8,126.9c-2.2-6.4-5.4-11.8-9.6-16.3-4.1-4.5-9.1-8-14.9-10.4-5.8-2.4-12.3-3.7-19.5-3.7s-13.9,1.2-19.8,3.7c-6,2.5-11.1,6-15.4,10.6-4.3,4.6-7.6,10-9.9,16.4-2.3,6.4-3.5,13.4-3.5,21.2s1.2,14.9,3.5,21.3,5.7,11.9,10,16.5c4.3,4.6,9.5,8.1,15.5,10.6s12.7,3.8,20.1,3.8,11.4-.8,16.4-2.4c5.1-1.6,9.6-4,13.6-7.1s7.4-6.8,10.2-11.3c2.3-3.6,4.1-7.7,5.4-12.1.4-1.4-.6-2.9-2.1-2.9h-17.3c-.9,0-1.7.5-2,1.3-1,2.2-2.1,4.2-3.4,6-1.6,2.1-3.3,3.9-5.3,5.3-2,1.4-4.2,2.5-6.7,3.2-2.5.7-5.2,1.1-8.1,1.1-4.3,0-8.2-.7-11.6-2.2s-6.4-3.6-8.8-6.4c-2.4-2.8-4.3-6.1-5.6-10.1-.6-1.7-1-3.5-1.3-5.3l-.4-1.3h0c-.4-2.4-.8-5.5-.7-9.1v-.2c0-6.6,1.4-13.2,4.8-18.9,0,0,0-.1,0-.1.8-1.5,1.8-2.9,2.8-4.2,0,0,.2-.2.3-.3.5-.6,1-1.1,1.5-1.6,1.9-1.9,4.2-3.4,6.7-4.5,3.3-1.5,7.1-2.2,11.3-2.2s7.8.7,11,2.2c3.2,1.4,5.8,3.6,8,6.4,2.2,2.8,3.8,6.3,4.9,10.4.2.7.4,1.5.5,2.3.3,1.4-.8,2.7-2.2,2.7h-39c-.6,0-1.1.2-1.5.6-1.1,1.1-2.3,2.3-3.3,3.9-2.2,3.1-3.4,6.3-4,8.9-.3,1.4.7,2.8,2.2,2.8h68.3c1.2,0,2.1-.9,2.2-2.1,0-.5,0-1.1,0-1.6,0-1.2,0-2.3,0-3.5,0-7.9-1.1-15-3.3-21.3h0Z"/>
  <path class="st2" d="M1429.1,126.9c-2.2-6.4-5.4-11.8-9.6-16.3-4.1-4.5-9.1-8-14.9-10.4-5.8-2.4-12.3-3.7-19.5-3.7s-13.9,1.2-19.8,3.7c-6,2.5-11.1,6-15.4,10.6-4.3,4.6-7.6,10-9.9,16.4-2.3,6.4-3.5,13.4-3.5,21.2s1.2,14.9,3.5,21.3c2.4,6.4,5.7,11.9,10,16.5,4.3,4.6,9.5,8.1,15.5,10.6,6,2.5,12.7,3.8,20.1,3.8s11.4-.8,16.4-2.4c5.1-1.6,9.6-4,13.6-7.1,4-3.1,7.4-6.8,10.2-11.3,2.3-3.6,4.1-7.7,5.4-12.1.4-1.4-.6-2.9-2.1-2.9h-17.3c-.9,0-1.7.5-2,1.3-1,2.2-2.1,4.2-3.4,6-1.6,2.1-3.3,3.9-5.3,5.3-2,1.4-4.2,2.5-6.7,3.2-2.5.7-5.2,1.1-8.1,1.1-4.3,0-8.2-.7-11.6-2.2-3.4-1.5-6.4-3.6-8.8-6.4s-4.3-6.1-5.6-10.1c-.7-2.1-1.2-4.2-1.5-6.6h0s0,0,0-.1c-.7-3.9-1.4-10.2.2-17.1h0c.3-1.8.7-3.6,1.2-5.2.4-1.2.8-2.3,1.2-3.4,0,0,0,0,0-.1,1.1-2.5,2.4-4.8,4.1-6.7.5-.6,1-1.2,1.6-1.7h0c0,0,.2-.2.2-.3,1.9-1.8,4.1-3.3,6.6-4.4,3.3-1.5,7.1-2.2,11.3-2.2s7.8.7,11,2.2c3.2,1.4,5.8,3.6,8,6.4,2.2,2.8,3.8,6.3,4.9,10.4.2.7.4,1.5.5,2.3.3,1.4-.8,2.7-2.2,2.7h-38.8c-.6,0-1.1.2-1.5.6-1.1,1.1-2.3,2.3-3.3,3.9-2.2,3.1-3.4,6.3-4,8.9-.3,1.4.7,2.8,2.2,2.8h68.1c1.2,0,2.1-.9,2.2-2.1,0-.5,0-1.1,0-1.6,0-1.2,0-2.3,0-3.5,0-7.9-1.1-15-3.3-21.3h0Z"/>
  <path class="st2" d="M1484.9,147.7l44.9-44.7c1.4-1.4.4-3.8-1.6-3.8h-21.1c-.6,0-1.2.2-1.6.7l-37.3,38.2c-1.4,1.4-3.8.4-3.8-1.6v-68.8c0-1.2-1-2.2-2.2-2.2h-18c-1.2,0-2.2,1-2.2,2.2v128.1c0,1.2,1,2.2,2.2,2.2h18c1.2,0,2.2-1,2.2-2.2v-32.2c0-1.9,2.3-3,3.7-1.6l39.1,35.5c.4.4.9.6,1.5.6h23.3c2.1,0,3-2.5,1.5-3.9l-48.6-43.1c-1-.9-1-2.4,0-3.3h0Z"/>
  <path class="st2" d="M130.7,188.8h295.3c1.2,0,2.3-.9,2.6-2.1,0-.2.1-.4.1-.6,0,0,.7-3.2-.4-6.4-.2-.6-.4-1-.5-1.1h0c-.5-.8-1.4-1.3-2.3-1.3H130.7c-12.4-.1-24-5.2-30.9-13.6h-13.8c1.3,2.5,2.8,4.8,4.7,7.1,9.3,11.3,23.8,17.9,40,18.1h0Z"/>
  <path class="st2" d="M22.7,111.5c-1.1,6.1.9,12.6,5.6,18.5,7,8.5,18.7,13.7,31.2,13.8h340.6c12.7.2,24.4,4.3,33.4,11.5,2.5,2,4.7,4.1,6.7,6.6,3.9,4.7,6.5,10,7.7,15.3.9,3.9,1.1,7.7.5,11.5,0,.4,0,.7-.1,1-3.4,18.3-24,32.4-47.2,32.4H13.6c-1.6,0-2.9-1.3-2.9-2.9v-5.6c0-1.6,1.3-2.9,2.9-2.9h386.6c19.5.5,33.8-10.9,36.5-21.9,0-.1,0-.3.1-.4,0-.2.1-.5.2-.7.6-3.4.2-7-1.1-10.4-.9-2.8-2.5-5.5-4.6-8.1-7-8.5-18.7-13.7-31.2-13.9H59.5c-12.7-.1-24.4-4.2-33.3-11.5-2.5-2-4.7-4.2-6.7-6.6-6.9-8.4-9.9-18.6-8.1-27.9,3.5-18.3,24.1-32.4,47.2-32.4h387.5c1.6,0,3,1.3,3,2.9v5.6c0,1.6-1.3,2.9-3,2.9H59.5c-20.3-.4-34.7,11.7-36.8,23h0Z"/>
  <path class="st2" d="M129.8,110.4c-20,0-38.1,10.5-44.9,25.1h13.5c6.1-7.6,17.3-13.6,31.4-13.6h384.5c1.6,0,3-1.3,3-2.9v-5.6c0-1.6-1.3-2.9-3-2.9H129.8Z"/>
  <path class="st2" d="M456.8,188.8h57.5c1.6,0,3-1.3,3-2.9v-5.6c0-1.6-1.3-2.9-3-2.9h-58c.8,3.9,1,7.8.5,11.5h0Z"/>
  <g class="st0">
    <text class="st1" transform="translate(568.2 345)"><tspan x="0" y="0">G</tspan></text>
    <text class="st1" transform="translate(621.5 345)"><tspan x="0" y="0">o</tspan></text>
    <text class="st1" transform="translate(662.4 345)"><tspan x="0" y="0"> </tspan></text>
    <text class="st1" transform="translate(674.2 345)"><tspan x="0" y="0">T</tspan></text>
    <text class="st1" transform="translate(709.8 345)"><tspan x="0" y="0">ogethe</tspan></text>
    <text class="st1" transform="translate(946.9 345)"><tspan x="0" y="0">r</tspan></text>
  </g>
</svg>