<?xml version="1.0" encoding="UTF-8"?><svg id="a" xmlns="http://www.w3.org/2000/svg" viewBox="0 0 629.18 230.26"><path d="M507.08,4.47H122.1C60.99,4.47,11.44,54.02,11.44,115.13h0c0,61.11,49.54,110.66,110.66,110.66h384.98c61.11,0,110.66-49.54,110.66-110.66h0c0-61.11-49.54-110.66-110.66-110.66ZM441.22,140.94c0,.23-.04.46-.08.68-2.24,12.06-15.82,21.36-31.1,21.36h-255.12c-1.07,0-1.94-.87-1.94-1.94v-3.7c0-1.07.87-1.94,1.94-1.94h254.55c12.86.34,22.23-7.21,24.05-14.45.03-.08.06-.18.08-.27.04-.15.08-.31.11-.45.42-2.24.15-4.59-.72-6.87-.61-1.82-1.67-3.6-3.03-5.31-4.59-5.62-12.29-9.03-20.52-9.14h-224.29c-8.35-.08-16.08-2.77-21.96-7.55-1.63-1.29-3.11-2.77-4.4-4.36-4.55-5.5-6.49-12.21-5.35-18.36,2.28-12.06,15.85-21.36,31.1-21.36h255.16c1.07,0,1.94.87,1.94,1.94v3.7c0,1.07-.87,1.94-1.94,1.94h-254.55c-13.35-.27-22.84,7.7-24.24,15.17-.76,3.98.57,8.31,3.72,12.18,4.63,5.61,12.33,9.03,20.56,9.1h224.29c8.34.11,16.08,2.81,21.96,7.59,1.63,1.29,3.11,2.73,4.4,4.36,2.54,3.07,4.25,6.56,5.04,10.09.61,2.54.76,5.08.34,7.59ZM202.55,124.37h9.1c4.59,5.54,12.21,8.91,20.37,8.99h194.16c.63,0,1.22.32,1.54.86,0,0,0,0,0,0,.06.1.2.35.32.73.68,2.11.24,4.22.24,4.22-.03.12-.06.26-.09.41-.21.8-.92,1.36-1.75,1.36h-194.46c-10.66-.11-20.26-4.48-26.36-11.91-1.21-1.48-2.24-3.03-3.07-4.67ZM486.54,139c0,1.07-.87,1.94-1.94,1.94h-37.88c.34-2.47.23-5.01-.3-7.59h38.19c1.07,0,1.94.87,1.94,1.94v3.7ZM486.54,94.96c0,1.07-.87,1.94-1.94,1.94h-253.18c-9.26,0-16.69,3.98-20.67,8.95h-8.88c4.44-9.63,16.39-16.54,29.55-16.54h253.18c1.07,0,1.94.87,1.94,1.94v3.7Z" fill="#f0efe7"/></svg>