<?xml version="1.0" encoding="UTF-8"?><svg id="a" xmlns="http://www.w3.org/2000/svg" viewBox="0 0 591 202"><path d="M162.21,134.15h295.3c1.25,0,2.34-.85,2.65-2.06.06-.22.1-.43.14-.62,0,0,.66-3.2-.37-6.4-.18-.58-.39-.96-.48-1.12,0,0,0,0,0-.01-.48-.82-1.38-1.31-2.34-1.31H162.27c-12.38-.11-23.96-5.24-30.93-13.65h-13.82c1.27,2.48,2.82,4.84,4.67,7.09,9.27,11.29,23.85,17.91,40.03,18.09Z" fill="#f0efe7"/><path d="M54.26,56.85c-1.15,6.05.86,12.61,5.65,18.49,7.03,8.52,18.72,13.71,31.22,13.82h340.6c12.67.17,24.42,4.26,33.35,11.52,2.48,1.96,4.72,4.15,6.68,6.62,3.86,4.67,6.45,9.97,7.66,15.32.92,3.86,1.15,7.72.52,11.52,0,.35-.06.69-.12,1.04-3.4,18.32-24.02,32.43-47.23,32.43H45.17c-1.63,0-2.95-1.32-2.95-2.95v-5.63c0-1.63,1.32-2.95,2.95-2.95h386.56c19.53.52,33.76-10.94,36.52-21.95.04-.13.09-.27.13-.41.07-.23.13-.47.16-.69.63-3.4.23-6.97-1.09-10.43-.92-2.77-2.53-5.47-4.61-8.06-6.97-8.53-18.66-13.71-31.16-13.88H91.07c-12.67-.11-24.42-4.21-33.35-11.46-2.48-1.96-4.72-4.21-6.68-6.63-6.91-8.35-9.85-18.55-8.12-27.88,3.46-18.32,24.08-32.43,47.23-32.43h387.48c1.63,0,2.95,1.32,2.95,2.95v5.63c0,1.63-1.32,2.95-2.95,2.95H91.07c-20.28-.4-34.68,11.69-36.81,23.04Z" fill="#f0efe7"/><path d="M161.35,55.75c-19.99,0-38.13,10.48-44.87,25.11h13.48c6.05-7.55,17.34-13.59,31.39-13.59h384.48c1.63,0,2.95-1.32,2.95-2.95v-5.63c0-1.63-1.32-2.95-2.95-2.95H161.35Z" fill="#f0efe7"/><path d="M488.3,134.15h57.53c1.63,0,2.95-1.32,2.95-2.95v-5.63c0-1.63-1.32-2.95-2.95-2.95h-57.99c.81,3.92.98,7.78.46,11.52Z" fill="#f0efe7"/></svg>