<?xml version="1.0" encoding="UTF-8"?><svg id="a" xmlns="http://www.w3.org/2000/svg" viewBox="0 0 1545 271"><path d="M682.64,161.96c-1.21-2.92-2.82-5.43-4.83-7.52-2.02-2.09-4.36-3.83-7.03-5.21-2.67-1.39-5.46-2.54-8.37-3.45-2.91-.91-5.87-1.65-8.86-2.22-3-.57-5.86-1.07-8.58-1.52l-6.58-1.08c-1.82-.33-3.64-.64-5.44-.94-1.8-.3-3.52-.66-5.15-1.1-1.62-.43-3.14-.93-4.54-1.5-1.4-.57-2.62-1.26-3.65-2.06s-1.83-1.74-2.42-2.8c-.58-1.06-.87-2.3-.87-3.74,0-1.82.51-3.48,1.53-4.97,1.02-1.49,2.44-2.78,4.3-3.85,1.85-1.08,4.07-1.9,6.67-2.49s5.45-.87,8.56-.87c3.52,0,6.63.38,9.34,1.12,2.7.74,4.97,1.81,6.8,3.18,1.84,1.38,3.22,3.03,4.14,4.97.54,1.12.92,2.33,1.15,3.61.29,1.68,1.72,2.92,3.43,2.92h16.59c1.28,0,2.31-1.07,2.23-2.34-.26-4.21-1.21-8.06-2.86-11.56-1.96-4.13-4.81-7.64-8.57-10.54-3.76-2.89-8.38-5.12-13.84-6.67-5.47-1.55-11.69-2.33-18.67-2.33s-12.64.71-17.93,2.12c-5.3,1.42-9.79,3.44-13.47,6.07-3.69,2.63-6.52,5.8-8.49,9.54-1.97,3.73-2.95,7.91-2.95,12.54,0,3.7.58,6.9,1.75,9.6,1.16,2.7,2.72,5.03,4.68,6.99,1.95,1.96,4.2,3.6,6.74,4.92,2.54,1.33,5.19,2.44,7.97,3.32,2.78.88,5.56,1.59,8.37,2.12,2.81.54,5.43,1.02,7.88,1.43l6.63,1.16c2.12.39,4.19.77,6.2,1.14,2.01.37,3.91.81,5.71,1.3,1.79.49,3.43,1.06,4.93,1.72,1.49.65,2.78,1.43,3.85,2.33,1.08.9,1.92,1.94,2.53,3.13.62,1.19.92,2.62.92,4.25,0,2-.53,3.79-1.59,5.35-1.06,1.56-2.6,2.89-4.61,3.98-2.02,1.09-4.47,1.92-7.37,2.49s-6.19.85-9.9.85c-4.12,0-7.71-.36-10.76-1.07-3.06-.72-5.61-1.78-7.64-3.18-2.03-1.4-3.53-3.13-4.52-5.19-.74-1.53-1.2-3.22-1.39-5.08-.11-1.13-1.08-1.99-2.22-1.99h-17.66c-1.27,0-2.3,1.06-2.23,2.32.24,4.58,1.21,8.68,2.92,12.32,1.98,4.23,4.92,7.81,8.82,10.72,3.9,2.91,8.75,5.12,14.57,6.63,5.82,1.51,12.57,2.26,20.24,2.26s13.84-.68,19.48-2.06c5.64-1.38,10.38-3.38,14.22-6,3.83-2.63,6.75-5.85,8.73-9.68,1.99-3.82,2.98-8.19,2.98-13.12,0-3.95-.6-7.37-1.82-10.3Z" fill="#6c7e7c"/><path d="M719.83,166.44c0,3.08.28,5.72.85,7.95.57,2.23,1.42,4.06,2.57,5.51,1.15,1.45,2.62,2.53,4.41,3.25,1.79.71,3.92,1.07,6.4,1.07,1.94,0,4.24-.22,6.89-.67,1.96-.33,4.17-.79,6.65-1.38,1.4-.33,2.75.73,2.75,2.17v13.63c0,1-.66,1.89-1.63,2.15-3.4.93-6.62,1.64-9.68,2.11-3.54.55-6.86.83-9.96.83-5.19,0-9.75-.78-13.7-2.33-3.94-1.55-7.24-3.87-9.92-6.94-2.67-3.07-4.7-6.89-6.07-11.46-1.37-4.57-2.06-9.88-2.06-15.94v-44.2c0-1.23-1-2.23-2.23-2.23h-8.43c-1.23,0-2.23-1-2.23-2.23v-13.8c0-1.23,1-2.23,2.23-2.23h8.43c1.23,0,2.23-1,2.23-2.23v-18.27c0-1.23,1-2.23,2.23-2.23h18.01c1.23,0,2.23,1,2.23,2.23v18.27c0,1.23,1,2.23,2.23,2.23h26.06c1.23,0,2.23,1,2.23,2.23v13.8c0,1.23-1,2.23-2.23,2.23h-26.06c-1.23,0-2.23,1-2.23,2.23v44.24Z" fill="#6c7e7c"/><path d="M848.99,136.31c-1.07-4.6-2.62-8.83-4.63-12.7-2.02-3.87-4.47-7.32-7.37-10.36-2.9-3.04-6.17-5.62-9.81-7.72-3.64-2.1-7.63-3.71-11.95-4.83-4.33-1.12-8.92-1.68-13.79-1.68s-9.46.56-13.79,1.68c-4.33,1.12-8.31,2.73-11.96,4.83-3.64,2.1-6.91,4.68-9.8,7.72-2.89,3.05-5.35,6.5-7.37,10.36-2.01,3.87-3.56,8.1-4.63,12.7-1.07,4.6-1.61,9.51-1.61,14.73s.54,10.14,1.61,14.75c1.08,4.62,2.62,8.84,4.63,12.7,2.02,3.85,4.48,7.3,7.39,10.34,2.91,3.05,6.18,5.63,9.8,7.75,3.63,2.12,7.6,3.74,11.93,4.86,4.33,1.12,8.92,1.68,13.79,1.68s9.5-.56,13.82-1.68c4.31-1.11,8.28-2.74,11.91-4.86,3.63-2.12,6.89-4.7,9.8-7.75,2.91-3.04,5.37-6.49,7.39-10.34,2.01-3.85,3.56-8.08,4.63-12.7,1.08-4.61,1.61-9.53,1.61-14.75s-.54-10.13-1.61-14.73ZM826.23,164.58c-1.21,3.99-2.95,7.37-5.24,10.14-2.28,2.78-5.07,4.89-8.35,6.33-3.28,1.45-7,2.17-11.15,2.17s-7.88-.73-11.17-2.19c-3.3-1.46-6.1-3.58-8.39-6.34-2.3-2.76-4.06-6.13-5.26-10.12-1.21-3.98-1.82-8.5-1.82-13.55s.6-9.56,1.82-13.54c1.21-3.99,2.96-7.36,5.26-10.12,2.3-2.76,5.1-4.87,8.39-6.31,3.29-1.45,7.02-2.17,11.17-2.17s7.87.73,11.15,2.17c3.29,1.45,6.07,3.55,8.35,6.31,2.28,2.76,4.03,6.13,5.24,10.12,1.21,3.98,1.82,8.5,1.82,13.54s-.6,9.56-1.82,13.55Z" fill="#6c7e7c"/><path d="M946.14,125.02c-1.54-5.61-3.76-10.35-6.67-14.2-2.91-3.85-6.5-6.78-10.77-8.79-4.27-2.01-9.15-3.02-14.64-3.02-4.6,0-8.85.72-12.76,2.17-3.91,1.45-7.39,3.55-10.43,6.31-3.05,2.76-5.63,6.15-7.75,10.17-.16.31-.32.62-.48.93-1.05,2.1-4.22,1.34-4.22-1.01v-13.65c0-1.23-1-2.23-2.23-2.23h-18.01c-1.23,0-2.23,1-2.23,2.23v94.26c0,1.23,1,2.23,2.23,2.23h18.01c1.23,0,2.23-1,2.23-2.23v-50.38c0-3.08.25-5.93.76-8.55.5-2.63,1.26-5.02,2.24-7.16.98-2.15,2.2-4.04,3.65-5.69,1.45-1.64,3.11-3.02,4.99-4.12,1.88-1.11,3.95-1.95,6.22-2.53,2.27-.58,4.75-.87,7.43-.87,3.73,0,6.99.57,9.76,1.72,2.78,1.15,5.1,2.87,6.96,5.17,1.86,2.3,3.25,5.16,4.16,8.57.91,3.42,1.37,7.43,1.37,12.03v51.81c0,1.23,1,2.23,2.23,2.23h18.01c1.23,0,2.23-1,2.23-2.23v-54.05c0-7.13-.77-13.5-2.3-19.12Z" fill="#6c7e7c"/><path d="M1050.13,129.39c-2.24-6.38-5.43-11.8-9.56-16.3-4.14-4.49-9.12-7.96-14.94-10.41-5.82-2.44-12.33-3.67-19.52-3.67s-13.86,1.24-19.83,3.74c-5.97,2.49-11.09,6.03-15.36,10.59-4.27,4.57-7.57,10.04-9.92,16.41-2.34,6.38-3.51,13.44-3.51,21.2s1.18,14.89,3.54,21.31c2.36,6.42,5.7,11.91,10.03,16.48,4.33,4.57,9.51,8.11,15.54,10.61,6.03,2.5,12.73,3.76,20.1,3.76,5.88,0,11.36-.81,16.43-2.44,5.07-1.63,9.6-3.99,13.59-7.08,3.98-3.09,7.37-6.84,10.16-11.26,2.3-3.64,4.1-7.68,5.4-12.12.42-1.44-.64-2.89-2.14-2.89h-17.28c-.89,0-1.69.53-2.04,1.34-.96,2.23-2.09,4.23-3.4,5.99-1.55,2.1-3.32,3.87-5.32,5.28-2,1.42-4.24,2.48-6.72,3.18-2.47.7-5.18,1.05-8.1,1.05-4.3,0-8.17-.74-11.62-2.22-3.45-1.48-6.38-3.61-8.8-6.38-2.42-2.78-4.27-6.14-5.58-10.09-.66-2.04-1.16-4.22-1.48-6.52-.12.09-.32.04-.35-.15-.84-4.58-1.6-12.46,1.26-20.58.02-.04.03-.09.04-.13.14-.53.28-1.06.44-1.58,1.24-4,3.02-7.39,5.33-10.19,2.31-2.79,5.13-4.92,8.44-6.38,3.31-1.46,7.07-2.2,11.28-2.2s7.82.73,10.99,2.17c3.18,1.45,5.85,3.58,8.02,6.4,2.16,2.82,3.8,6.3,4.92,10.43.2.74.38,1.49.54,2.27.3,1.4-.75,2.72-2.18,2.72h-39.13c-.57,0-1.12.22-1.54.61-1.13,1.06-2.28,2.33-3.35,3.85-2.2,3.12-3.37,6.28-4,8.9-.34,1.41.73,2.76,2.18,2.76h68.39c1.17,0,2.14-.91,2.23-2.08.04-.54.07-1.07.09-1.59.05-1.16.07-2.33.07-3.5,0-7.85-1.11-14.96-3.35-21.33Z" fill="#6c7e7c"/><path d="M1131.4,170.58c-1.22,2.55-2.82,4.77-4.79,6.65-1.97,1.88-4.33,3.35-7.08,4.41-2.74,1.06-5.91,1.59-9.49,1.59-4.15,0-7.87-.73-11.17-2.19-3.3-1.46-6.1-3.58-8.39-6.34-2.3-2.76-4.06-6.13-5.26-10.12-1.21-3.98-1.82-8.5-1.82-13.55s.61-9.56,1.82-13.54c1.21-3.99,2.96-7.36,5.26-10.12,2.3-2.76,5.1-4.87,8.39-6.31,3.3-1.45,7.02-2.17,11.17-2.17,3.58,0,6.75.53,9.49,1.59s5.11,2.52,7.08,4.39c1.97,1.86,3.56,4.08,4.79,6.65.99,2.07,1.76,4.26,2.32,6.58.24,1,1.14,1.7,2.16,1.7h18.02c1.39,0,2.45-1.25,2.21-2.61-.87-4.86-2.35-9.4-4.42-13.63-2.45-4.99-5.66-9.29-9.63-12.92-3.97-3.63-8.65-6.47-14.04-8.53-5.39-2.06-11.4-3.09-18.02-3.09-4.87,0-9.47.56-13.79,1.68-4.33,1.12-8.31,2.73-11.95,4.83-3.64,2.1-6.91,4.68-9.81,7.72-2.89,3.05-5.35,6.5-7.36,10.36-2.02,3.87-3.56,8.1-4.63,12.7-1.08,4.6-1.61,9.51-1.61,14.73s.54,10.14,1.61,14.75c1.07,4.62,2.62,8.84,4.63,12.7,2.01,3.85,4.47,7.3,7.39,10.34,2.91,3.05,6.18,5.63,9.8,7.75,3.63,2.12,7.61,3.74,11.93,4.86,4.33,1.12,8.92,1.68,13.79,1.68,6.62,0,12.62-1.03,18-3.09,5.37-2.06,10.05-4.9,14.04-8.53,3.98-3.63,7.2-7.93,9.65-12.92,2.08-4.23,3.55-8.78,4.42-13.63.24-1.36-.82-2.61-2.21-2.61h-18.02c-1.03,0-1.92.7-2.16,1.7-.56,2.32-1.33,4.5-2.32,6.56Z" fill="#6c7e7c"/><path d="M1224.13,101.69c-5.08,0-9.61.77-13.59,2.31-3.99,1.54-7.46,3.75-10.41,6.65-2.95,2.9-5.41,6.42-7.37,10.57-.02.04-.04.08-.06.12-1,2.15-4.22,1.47-4.22-.91v-16.5c0-1.23-1-2.23-2.23-2.23h-18.01c-1.23,0-2.23,1-2.23,2.23v94.26c0,1.23,1,2.23,2.23,2.23h18.01c1.23,0,2.23-1,2.23-2.23v-44.78c0-5.19.55-9.7,1.66-13.52,1.1-3.82,2.94-6.99,5.51-9.49,2.57-2.51,5.99-4.38,10.27-5.6,4.28-1.22,9.61-1.83,15.97-1.83h5.15c1.23,0,2.23-1,2.23-2.23v-16.8c0-1.23-1-2.23-2.23-2.23h-2.91Z" fill="#6c7e7c"/><path d="M1325.76,129.39c-2.24-6.38-5.43-11.8-9.56-16.3-4.14-4.49-9.12-7.96-14.94-10.41-5.82-2.44-12.33-3.67-19.52-3.67s-13.87,1.24-19.84,3.74c-5.97,2.49-11.09,6.03-15.36,10.59-4.27,4.57-7.57,10.04-9.92,16.41-2.34,6.38-3.51,13.44-3.51,21.2s1.18,14.89,3.54,21.31c2.36,6.42,5.7,11.91,10.03,16.48,4.33,4.57,9.51,8.11,15.54,10.61,6.03,2.5,12.73,3.76,20.1,3.76,5.88,0,11.36-.81,16.43-2.44,5.07-1.63,9.61-3.99,13.59-7.08,3.98-3.09,7.37-6.84,10.16-11.26,2.3-3.64,4.1-7.68,5.4-12.12.42-1.44-.64-2.89-2.14-2.89h-17.28c-.89,0-1.69.53-2.04,1.34-.96,2.23-2.09,4.23-3.4,5.99-1.55,2.1-3.32,3.87-5.32,5.28-2,1.42-4.24,2.48-6.72,3.18-2.47.7-5.18,1.05-8.1,1.05-4.3,0-8.17-.74-11.62-2.22-3.45-1.48-6.38-3.61-8.8-6.38-2.42-2.78-4.27-6.14-5.57-10.09-.55-1.69-.99-3.47-1.3-5.34l-.39-1.27-.03-.11c-.42-2.3-.81-5.41-.74-8.97,0-.06,0-.11,0-.16-.06-6.6,1.4-13.22,4.78-18.94.03-.05.06-.1.09-.15.83-1.53,1.77-2.93,2.83-4.2.09-.1.17-.21.26-.31.47-.56.97-1.09,1.5-1.59,1.94-1.88,4.17-3.37,6.68-4.48,3.31-1.46,7.08-2.2,11.28-2.2s7.82.73,10.99,2.17c3.18,1.45,5.85,3.58,8.02,6.4,2.16,2.82,3.8,6.3,4.92,10.43.2.74.38,1.49.54,2.27.3,1.4-.75,2.72-2.18,2.72h-38.99c-.57,0-1.12.22-1.54.61-1.14,1.06-2.28,2.33-3.35,3.85-2.2,3.12-3.37,6.28-4,8.9-.34,1.41.73,2.76,2.18,2.76h68.27c1.17,0,2.14-.91,2.23-2.08.04-.54.07-1.07.09-1.59.04-1.16.06-2.33.06-3.5,0-7.85-1.11-14.96-3.35-21.33Z" fill="#6c7e7c"/><path d="M1429.11,129.39c-2.24-6.38-5.43-11.8-9.56-16.3-4.13-4.49-9.11-7.96-14.93-10.41-5.82-2.44-12.33-3.67-19.52-3.67s-13.87,1.24-19.84,3.74c-5.97,2.49-11.08,6.03-15.36,10.59-4.27,4.57-7.58,10.04-9.92,16.41-2.34,6.38-3.51,13.44-3.51,21.2s1.18,14.89,3.53,21.31c2.36,6.42,5.71,11.91,10.03,16.48,4.33,4.57,9.51,8.11,15.53,10.61,6.03,2.5,12.73,3.76,20.11,3.76,5.88,0,11.36-.81,16.43-2.44,5.07-1.63,9.6-3.99,13.59-7.08,3.98-3.09,7.37-6.84,10.16-11.26,2.3-3.64,4.1-7.69,5.4-12.12.42-1.44-.64-2.88-2.14-2.88h-17.28c-.89,0-1.69.53-2.04,1.34-.96,2.23-2.1,4.22-3.39,5.98-1.55,2.1-3.33,3.87-5.33,5.28-2,1.42-4.23,2.48-6.71,3.18-2.47.7-5.18,1.05-8.11,1.05-4.3,0-8.17-.74-11.61-2.22-3.45-1.48-6.38-3.61-8.8-6.38-2.42-2.78-4.28-6.14-5.58-10.09-.68-2.06-1.18-4.25-1.5-6.57h0s-.03-.06-.04-.1c-.72-3.91-1.37-10.23.23-17.05h0c.3-1.83.71-3.58,1.22-5.24.36-1.18.78-2.29,1.23-3.36.01-.04.02-.07.04-.1,1.09-2.54,2.44-4.78,4.05-6.73.49-.6,1.01-1.16,1.55-1.7l.02-.02c.08-.08.17-.16.25-.24,1.93-1.85,4.14-3.32,6.63-4.42,3.31-1.46,7.07-2.2,11.28-2.2s7.82.73,10.99,2.17c3.18,1.45,5.85,3.58,8.01,6.4,2.17,2.82,3.81,6.3,4.93,10.43.2.74.38,1.49.54,2.27.3,1.4-.75,2.72-2.18,2.72h-38.83c-.57,0-1.12.22-1.54.61-1.14,1.06-2.28,2.33-3.35,3.85-2.2,3.12-3.37,6.28-4,8.9-.34,1.41.73,2.75,2.18,2.75h68.1c1.17,0,2.14-.91,2.23-2.08.04-.54.07-1.07.09-1.59.05-1.16.07-2.33.07-3.5,0-7.85-1.12-14.96-3.35-21.33Z" fill="#6c7e7c"/><path d="M1484.88,150.16l44.93-44.65c1.41-1.41.42-3.82-1.58-3.82h-21.09c-.6,0-1.18.24-1.6.67l-37.28,38.15c-1.4,1.43-3.83.44-3.83-1.56v-68.83c0-1.23-1-2.23-2.23-2.23h-18.01c-1.23,0-2.23,1-2.23,2.23v128.06c0,1.23,1,2.23,2.23,2.23h18.01c1.23,0,2.23-1,2.23-2.23v-32.19c0-1.94,2.3-2.96,3.74-1.65l39.05,35.5c.41.37.95.58,1.5.58h23.34c2.06,0,3.02-2.54,1.48-3.91l-48.58-43.1c-.96-.86-1.01-2.35-.09-3.26Z" fill="#6c7e7c"/><path d="M130.68,174.7h295.3c1.25,0,2.34-.85,2.65-2.06.06-.22.1-.43.14-.62,0,0,.66-3.2-.37-6.4-.18-.58-.39-.96-.48-1.12,0,0,0,0,0-.01-.48-.82-1.38-1.31-2.34-1.31H130.74c-12.38-.11-23.96-5.24-30.93-13.65h-13.82c1.27,2.48,2.82,4.84,4.67,7.09,9.27,11.29,23.85,17.91,40.03,18.09Z" fill="#6c7e7c"/><path d="M22.73,97.4c-1.15,6.05.86,12.61,5.65,18.49,7.03,8.52,18.72,13.71,31.22,13.82h340.6c12.67.17,24.42,4.26,33.35,11.52,2.48,1.96,4.72,4.15,6.68,6.62,3.86,4.67,6.45,9.97,7.66,15.32.92,3.86,1.15,7.72.52,11.52,0,.35-.06.69-.12,1.04-3.4,18.32-24.02,32.43-47.23,32.43H13.64c-1.63,0-2.95-1.32-2.95-2.95v-5.63c0-1.63,1.32-2.95,2.95-2.95h386.56c19.53.52,33.76-10.94,36.52-21.95.04-.13.09-.27.13-.41.07-.23.13-.47.16-.69.63-3.4.23-6.97-1.09-10.43-.92-2.77-2.53-5.47-4.61-8.06-6.97-8.53-18.66-13.71-31.16-13.88H59.54c-12.67-.11-24.42-4.21-33.35-11.46-2.48-1.96-4.72-4.21-6.68-6.63-6.91-8.35-9.85-18.55-8.12-27.88,3.46-18.32,24.08-32.43,47.23-32.43h387.48c1.63,0,2.95,1.32,2.95,2.95v5.63c0,1.63-1.32,2.95-2.95,2.95H59.54c-20.28-.4-34.68,11.69-36.81,23.04Z" fill="#6c7e7c"/><path d="M129.82,96.3c-19.99,0-38.13,10.48-44.87,25.11h13.48c6.05-7.55,17.34-13.59,31.39-13.59h384.48c1.63,0,2.95-1.32,2.95-2.95v-5.63c0-1.63-1.32-2.95-2.95-2.95H129.82Z" fill="#6c7e7c"/><path d="M456.77,174.7h57.53c1.63,0,2.95-1.32,2.95-2.95v-5.63c0-1.63-1.32-2.95-2.95-2.95h-57.99c.81,3.92.98,7.78.46,11.52Z" fill="#6c7e7c"/></svg>