<?xml version="1.0" encoding="UTF-8"?><svg id="a" xmlns="http://www.w3.org/2000/svg" viewBox="0 0 1535.35 1403.57"><path d="M1168.83,293.2c-70,4.37-79.01,13.38-83.38,83.38-.09,1.44-2.21,1.44-2.3,0-4.37-70-13.38-79.01-83.38-83.38-1.44-.09-1.44-2.21,0-2.3,70-4.37,79.01-13.38,83.38-83.38.09-1.44,2.21-1.44,2.3,0,4.37,70,13.38,79.01,83.38,83.38,1.44.09,1.44,2.21,0,2.3Z"/><path d="M914.95,495.32c-2.33-2.09-5.41-3.37-8.79-3.37h-114.31c-7.25,0-13.13,5.88-13.13,13.13v359.27c0,7.25-5.88,13.13-13.13,13.13h-99.04c-7.25,0-13.13-5.88-13.13-13.13v-359.27c.12-1,.47-4.86-2.06-8.36-2.25-3.11-6.29-4.39-11.07-4.77-10.2-.79-74.1-1.11-161.64-.65-.9.03-4,.25-6.64,2.65-1.75,1.6-2.5,3.43-2.81,4.37-62.64,115.07-108.34,199.04-109.56,201.27-.18.33-.81,1.45-1.23,3.07-.28,1.07-.42,2.17-.42,3.28v158.41c0,7.25-5.88,13.13-13.13,13.13h-99.04c-7.25,0-13.13-5.88-13.13-13.13v-157.97c0-2.21-.56-4.39-1.62-6.32L69.72,406.45c-4.82-8.75,1.52-19.46,11.51-19.46h106.04c4.96,0,9.49,2.79,11.72,7.21l85.7,169.63c4.84,9.58,18.52,9.62,23.41.07l87-169.77c2.25-4.38,6.76-7.14,11.69-7.14h444.14c-16.19,3.57-36.51,5.57-62.12,7.17-2.23.14-2.23,3.41,0,3.55,96.63,6.03,117.91,17.8,126.14,97.61Z"/><path d="M1343.76,400.13v464.23c0,7.25-5.88,13.13-13.13,13.13h-99.05c-7.25,0-13.13-5.88-13.13-13.13v-165.47c0-7.25-5.88-13.13-13.13-13.13h-147.6c-7.25,0-13.13,5.88-13.13,13.13v165.47c0,7.25-5.88,13.13-13.13,13.13h-99.04c-7.25,0-13.13-5.88-13.13-13.13v-336.38c.82-.03,1.6-.58,1.67-1.65,6.63-106.23,20.19-121.4,123.47-128.28.1.68.16,1.37.16,2.08v166.51c0,7.25,5.88,13.13,13.13,13.13h147.6c7.25,0,13.13-5.88,13.13-13.13v-166.51c0-7.25,5.88-13.13,13.13-13.13h99.05c7.25,0,13.13,5.88,13.13,13.13Z"/><path d="M253.41,1013.98l-27.45,72.9c-1.48,3.92-3.21,7.3-5.18,10.15-1.97,2.85-4.24,5.2-6.81,7.06-2.57,1.87-5.45,3.24-8.64,4.12-3.19.89-6.75,1.33-10.67,1.33-1.31,0-2.62-.05-3.91-.16-1.29-.11-2.6-.26-3.91-.47v-13.25c1.27.17,2.45.29,3.52.38,1.07.08,2.1.13,3.08.13,2.02,0,3.86-.19,5.51-.55,1.65-.37,3.13-.95,4.44-1.74,1.31-.79,2.47-1.8,3.47-3.02,1-1.22,1.86-2.67,2.57-4.33l2.07-5.4-1.06,7.18-27.6-74.32h16.43l21.53,64.36h-5.26l21.81-64.36h16.05Z" fill="#e1ff83"/><path d="M254.26,1038.41c.75-3.24,1.83-6.23,3.24-8.96s3.12-5.17,5.15-7.32c2.02-2.15,4.31-3.97,6.85-5.45,2.54-1.49,5.33-2.62,8.36-3.41,3.03-.79,6.24-1.19,9.64-1.19s6.61.4,9.64,1.19c3.03.79,5.81,1.93,8.36,3.41,2.54,1.49,4.83,3.3,6.85,5.45,2.02,2.15,3.74,4.59,5.15,7.32s2.49,5.72,3.24,8.96c.75,3.25,1.13,6.71,1.13,10.4s-.38,7.16-1.13,10.42c-.75,3.26-1.83,6.24-3.24,8.96s-3.13,5.15-5.16,7.3c-2.03,2.15-4.32,3.97-6.85,5.47-2.54,1.5-5.31,2.64-8.33,3.43s-6.23,1.19-9.65,1.19-6.61-.39-9.64-1.19-5.8-1.93-8.34-3.43-4.82-3.32-6.85-5.47c-2.03-2.15-3.76-4.58-5.16-7.3s-2.49-5.71-3.24-8.96c-.75-3.26-1.13-6.73-1.13-10.42s.38-7.15,1.13-10.4ZM270.17,1058.38c.84,2.81,2.07,5.2,3.68,7.14,1.61,1.95,3.56,3.44,5.87,4.47,2.31,1.03,4.91,1.55,7.81,1.55s5.5-.51,7.79-1.53c2.29-1.02,4.24-2.51,5.84-4.47,1.6-1.96,2.82-4.35,3.66-7.16.84-2.81,1.27-6,1.27-9.56s-.42-6.75-1.27-9.56c-.85-2.81-2.07-5.19-3.66-7.14-1.6-1.95-3.54-3.44-5.84-4.46-2.3-1.02-4.89-1.53-7.79-1.53s-5.5.51-7.81,1.53c-2.31,1.02-4.26,2.51-5.87,4.46s-2.83,4.33-3.68,7.14c-.84,2.81-1.27,6-1.27,9.56s.42,6.75,1.27,9.56Z" fill="#e1ff83"/><path d="M378,1013.98h15.71v69.71h-15.71v-20.9l.09-.06c-.77,3.62-1.9,6.86-3.38,9.69s-3.29,5.23-5.41,7.18c-2.13,1.95-4.56,3.44-7.29,4.46-2.73,1.02-5.71,1.53-8.92,1.53-3.84,0-7.25-.71-10.23-2.13-2.98-1.42-5.49-3.49-7.53-6.21s-3.59-6.06-4.66-10.02c-1.08-3.96-1.61-8.46-1.61-13.5v-39.74h15.71v38.16c0,3.25.32,6.07.95,8.49.64,2.41,1.61,4.43,2.91,6.05,1.3,1.62,2.93,2.84,4.87,3.65,1.94.81,4.21,1.22,6.82,1.22,1.88,0,3.61-.21,5.2-.62,1.58-.41,3.04-1.01,4.35-1.79,1.31-.78,2.48-1.75,3.49-2.91,1.01-1.16,1.86-2.5,2.55-4.02s1.21-3.2,1.57-5.06c.35-1.85.53-3.87.53-6.04v-37.14Z" fill="#e1ff83"/><path d="M400.22,1026.88v-12.9h46.07v12.9h-46.07ZM438.38,1084.96c-2.47.39-4.79.59-6.96.59-3.63,0-6.82-.55-9.58-1.64s-5.06-2.73-6.93-4.9c-1.87-2.17-3.28-4.87-4.24-8.09-.96-3.22-1.44-6.97-1.44-11.25v-61.74h15.71v61.77c0,2.17.2,4.04.59,5.61.4,1.57,1,2.87,1.8,3.89.8,1.02,1.83,1.79,3.08,2.29s2.74.76,4.48.76c1.36,0,2.96-.16,4.82-.47,1.86-.32,4.05-.8,6.57-1.46v12.84c-2.8.82-5.43,1.43-7.9,1.82Z" fill="#e1ff83"/><path d="M469.91,1083.68h-15.71v-93.57h15.71v44.76l-.09.06c.77-3.62,1.9-6.85,3.38-9.69,1.48-2.83,3.29-5.23,5.41-7.18s4.56-3.43,7.29-4.46c2.73-1.02,5.71-1.53,8.92-1.53,3.84,0,7.25.71,10.23,2.13,2.98,1.42,5.49,3.49,7.53,6.21s3.59,6.06,4.66,10.02c1.07,3.96,1.61,8.46,1.61,13.5v39.74h-15.71v-38.16c0-3.24-.32-6.07-.96-8.49-.64-2.41-1.61-4.43-2.91-6.05s-2.93-2.84-4.87-3.65c-1.94-.81-4.21-1.22-6.82-1.22-1.88,0-3.61.21-5.2.62-1.59.41-3.04,1.01-4.35,1.79-1.31.78-2.48,1.75-3.49,2.91-1.01,1.16-1.86,2.5-2.55,4.01s-1.21,3.2-1.56,5.06c-.36,1.85-.53,3.87-.53,6.04v37.14Z" fill="#e1ff83"/><path d="M558.63,1027.76c1.5-3.31,3.65-6.13,6.43-8.46,2.79-2.33,6.18-4.12,10.17-5.36,4-1.24,8.48-1.87,13.44-1.87s9.84.69,13.94,2.05c4.1,1.37,7.57,3.35,10.41,5.94,2.84,2.59,5.01,5.76,6.52,9.5s2.27,7.99,2.27,12.75v41.35h-15.71v-18.65h.09c-.52,2.13-1.24,4.11-2.14,5.94-.91,1.83-1.99,3.52-3.24,5.04s-2.67,2.88-4.26,4.06c-1.59,1.18-3.31,2.18-5.18,3s-3.87,1.44-5.99,1.87-4.37.63-6.73.63c-3.65,0-6.97-.5-9.97-1.49s-5.55-2.4-7.68-4.22c-2.13-1.82-3.77-4.01-4.93-6.57-1.16-2.56-1.74-5.4-1.74-8.52s.64-6.15,1.91-8.72c1.27-2.57,3.1-4.76,5.49-6.56,2.39-1.8,5.3-3.18,8.73-4.12,3.43-.95,7.32-1.42,11.66-1.42h24.44v11.13h-23.53c-2.15,0-4.03.19-5.65.55-1.62.37-2.97.92-4.07,1.64-1.09.73-1.92,1.63-2.49,2.7-.56,1.07-.85,2.32-.85,3.73s.31,2.79.92,3.95c.62,1.16,1.52,2.13,2.71,2.91s2.66,1.38,4.41,1.79c1.75.41,3.77.62,6.04.62,2.13,0,4.15-.18,6.07-.55,1.92-.37,3.69-.88,5.32-1.55,1.63-.66,3.1-1.46,4.41-2.4s2.44-2,3.36-3.18c.93-1.18,1.64-2.46,2.13-3.84.49-1.38.74-2.84.74-4.38v-14.73c0-2.63-.41-5-1.22-7.1-.81-2.1-1.99-3.88-3.52-5.36-1.53-1.47-3.4-2.6-5.59-3.38s-4.66-1.17-7.42-1.17-5.25.32-7.29.96c-2.04.64-3.74,1.55-5.07,2.72-1.33,1.17-2.33,2.59-2.97,4.27-.65,1.68-.97,3.55-.97,5.61h-15.68c0-4.11.75-7.82,2.25-11.13Z" fill="#e1ff83"/><path d="M627.27,1026.88v-12.9h46.07v12.9h-46.07ZM665.43,1084.96c-2.47.39-4.79.59-6.96.59-3.63,0-6.82-.55-9.58-1.64s-5.06-2.73-6.93-4.9c-1.87-2.17-3.28-4.87-4.24-8.09-.96-3.22-1.44-6.97-1.44-11.25v-61.74h15.71v61.77c0,2.17.2,4.04.59,5.61.4,1.57,1,2.87,1.8,3.89.8,1.02,1.83,1.79,3.08,2.29s2.74.76,4.48.76c1.36,0,2.96-.16,4.82-.47,1.86-.32,4.05-.8,6.57-1.46v12.84c-2.8.82-5.43,1.43-7.9,1.82Z" fill="#e1ff83"/><path d="M771.72,1054.63c-.85-2.07-1.99-3.84-3.41-5.32-1.43-1.47-3.08-2.71-4.97-3.68-1.89-.98-3.86-1.79-5.92-2.44-2.06-.64-4.15-1.17-6.26-1.57-2.12-.4-4.14-.76-6.06-1.07l-4.65-.76c-1.29-.23-2.57-.45-3.85-.66-1.27-.21-2.49-.47-3.64-.78-1.15-.3-2.22-.66-3.21-1.06-.99-.4-1.85-.89-2.58-1.46s-1.3-1.23-1.71-1.98c-.41-.75-.62-1.63-.62-2.64,0-1.29.36-2.46,1.08-3.51.72-1.05,1.73-1.96,3.04-2.72,1.31-.76,2.88-1.34,4.72-1.76s3.85-.62,6.05-.62c2.49,0,4.69.27,6.6.79,1.91.53,3.51,1.28,4.81,2.24,1.3.97,2.27,2.14,2.93,3.51.38.79.65,1.65.81,2.55.21,1.19,1.22,2.06,2.42,2.06h11.72c.9,0,1.63-.76,1.58-1.66-.18-2.97-.86-5.7-2.02-8.17-1.38-2.92-3.4-5.4-6.06-7.45-2.66-2.04-5.92-3.62-9.78-4.72-3.86-1.1-8.26-1.64-13.2-1.64s-8.93.5-12.68,1.5c-3.75,1-6.92,2.43-9.52,4.29-2.61,1.86-4.61,4.1-6,6.74-1.39,2.64-2.09,5.59-2.09,8.86,0,2.61.41,4.88,1.24,6.79.82,1.91,1.92,3.55,3.31,4.94,1.38,1.38,2.97,2.54,4.76,3.48,1.79.94,3.67,1.72,5.63,2.34,1.96.62,3.93,1.12,5.92,1.5,1.98.38,3.84.72,5.57,1.01l4.68.82c1.5.27,2.96.54,4.38.81,1.42.26,2.77.57,4.03.92,1.27.35,2.43.75,3.48,1.22,1.05.46,1.96,1.01,2.72,1.64.76.64,1.36,1.37,1.79,2.21.43.84.65,1.85.65,3.01,0,1.41-.37,2.68-1.12,3.78-.75,1.1-1.84,2.04-3.26,2.81-1.43.77-3.16,1.36-5.21,1.76-2.04.4-4.38.6-6.99.6-2.91,0-5.45-.25-7.61-.76-2.17-.51-3.96-1.26-5.4-2.25-1.44-.99-2.5-2.21-3.19-3.67-.52-1.08-.85-2.28-.98-3.59-.08-.8-.76-1.41-1.57-1.41h-12.48c-.9,0-1.63.75-1.58,1.64.17,3.23.86,6.14,2.06,8.71,1.4,2.99,3.48,5.52,6.23,7.58,2.75,2.06,6.19,3.62,10.3,4.68,4.11,1.07,8.88,1.6,14.3,1.6s9.78-.48,13.77-1.45c3.98-.97,7.33-2.39,10.05-4.24,2.71-1.86,4.77-4.14,6.17-6.84,1.4-2.7,2.11-5.79,2.11-9.27,0-2.79-.43-5.21-1.28-7.28Z"/><path d="M798.01,1057.8c0,2.17.2,4.05.6,5.62.4,1.57,1,2.87,1.82,3.89.81,1.02,1.85,1.79,3.12,2.3,1.27.5,2.77.76,4.52.76,1.37,0,3-.16,4.87-.47,1.38-.23,2.95-.56,4.7-.97.99-.24,1.95.52,1.95,1.54v9.64c0,.71-.47,1.33-1.15,1.52-2.4.66-4.68,1.16-6.84,1.49-2.5.39-4.85.59-7.04.59-3.67,0-6.89-.55-9.68-1.64-2.78-1.1-5.12-2.73-7.01-4.91-1.89-2.17-3.32-4.87-4.29-8.1-.97-3.23-1.45-6.99-1.45-11.27v-31.24c0-.87-.71-1.58-1.58-1.58h-5.96c-.87,0-1.58-.71-1.58-1.58v-9.76c0-.87.71-1.58,1.58-1.58h5.96c.87,0,1.58-.71,1.58-1.58v-12.91c0-.87.71-1.58,1.58-1.58h12.73c.87,0,1.58.71,1.58,1.58v12.91c0,.87.71,1.58,1.58,1.58h18.42c.87,0,1.58.71,1.58,1.58v9.76c0,.87-.71,1.58-1.58,1.58h-18.42c-.87,0-1.58.71-1.58,1.58v31.27Z"/><path d="M889.3,1036.5c-.76-3.25-1.85-6.24-3.27-8.97-1.43-2.73-3.16-5.17-5.21-7.33-2.05-2.15-4.36-3.97-6.93-5.46-2.57-1.49-5.39-2.62-8.45-3.41-3.06-.79-6.31-1.19-9.75-1.19s-6.69.4-9.74,1.19c-3.06.79-5.88,1.93-8.45,3.41-2.58,1.49-4.88,3.31-6.93,5.46-2.04,2.15-3.78,4.59-5.21,7.33-1.42,2.74-2.51,5.72-3.28,8.97-.76,3.25-1.14,6.72-1.14,10.41s.38,7.17,1.14,10.43c.76,3.26,1.85,6.25,3.28,8.97,1.43,2.72,3.17,5.16,5.22,7.31,2.06,2.15,4.37,3.98,6.93,5.48,2.56,1.5,5.37,2.64,8.43,3.43,3.06.79,6.31,1.19,9.74,1.19s6.72-.4,9.77-1.19c3.05-.79,5.85-1.94,8.42-3.43,2.56-1.5,4.87-3.32,6.93-5.48,2.06-2.15,3.8-4.58,5.22-7.31,1.42-2.72,2.51-5.71,3.27-8.97.76-3.26,1.14-6.73,1.14-10.43s-.38-7.16-1.14-10.41ZM873.21,1056.48c-.85,2.82-2.09,5.21-3.7,7.17-1.61,1.96-3.58,3.45-5.9,4.48-2.32,1.03-4.95,1.54-7.88,1.54s-5.57-.52-7.89-1.55c-2.33-1.04-4.31-2.53-5.93-4.48-1.63-1.95-2.87-4.33-3.72-7.15-.86-2.81-1.28-6.01-1.28-9.57s.43-6.76,1.28-9.57c.85-2.82,2.09-5.2,3.72-7.15,1.62-1.95,3.6-3.44,5.93-4.46,2.33-1.02,4.96-1.54,7.89-1.54s5.56.51,7.88,1.54c2.32,1.02,4.29,2.51,5.9,4.46,1.61,1.95,2.85,4.33,3.7,7.15.86,2.81,1.28,6.01,1.28,9.57s-.43,6.76-1.28,9.57Z"/><path d="M957.96,1028.53c-1.09-3.97-2.66-7.31-4.72-10.03-2.06-2.72-4.59-4.79-7.61-6.22-3.02-1.42-6.46-2.14-10.35-2.14-3.25,0-6.25.51-9.02,1.54-2.77,1.02-5.22,2.51-7.37,4.46-2.15,1.95-3.98,4.35-5.48,7.19-.11.22-.23.44-.34.66-.74,1.49-2.99.95-2.99-.71v-9.65c0-.87-.71-1.58-1.58-1.58h-12.73c-.87,0-1.58.71-1.58,1.58v66.62c0,.87.71,1.58,1.58,1.58h12.73c.87,0,1.58-.71,1.58-1.58v-35.6c0-2.17.18-4.19.54-6.05.36-1.86.89-3.55,1.58-5.06.7-1.52,1.55-2.86,2.58-4.02,1.02-1.16,2.2-2.13,3.53-2.91,1.33-.78,2.79-1.38,4.4-1.79,1.61-.41,3.35-.62,5.25-.62,2.64,0,4.94.4,6.9,1.22,1.96.81,3.6,2.03,4.92,3.65,1.32,1.63,2.3,3.65,2.94,6.06.64,2.42.97,5.25.97,8.5v36.62c0,.87.71,1.58,1.58,1.58h12.73c.87,0,1.58-.71,1.58-1.58v-38.2c0-5.04-.54-9.54-1.63-13.51Z"/><path d="M1031.45,1031.61c-1.58-4.51-3.84-8.34-6.76-11.52-2.92-3.18-6.44-5.63-10.56-7.36-4.11-1.73-8.71-2.59-13.8-2.59s-9.8.88-14.01,2.64c-4.22,1.76-7.84,4.26-10.86,7.49-3.01,3.23-5.35,7.09-7.01,11.6-1.66,4.51-2.48,9.5-2.48,14.99s.83,10.53,2.5,15.06c1.67,4.54,4.03,8.42,7.09,11.64,3.06,3.23,6.72,5.73,10.98,7.5,4.26,1.77,9,2.66,14.21,2.66,4.15,0,8.03-.57,11.61-1.72,3.58-1.15,6.79-2.82,9.6-5,2.81-2.18,5.21-4.84,7.18-7.96,1.63-2.58,2.9-5.43,3.82-8.57.3-1.02-.45-2.04-1.51-2.04h-12.21c-.63,0-1.2.37-1.44.95-.68,1.58-1.48,2.99-2.4,4.23-1.1,1.49-2.35,2.73-3.76,3.73-1.41,1-3,1.75-4.75,2.25-1.75.5-3.66.74-5.72.74-3.04,0-5.78-.52-8.21-1.57-2.44-1.04-4.51-2.55-6.22-4.51-1.71-1.96-3.02-4.34-3.94-7.13-.47-1.44-.82-2.98-1.05-4.61-.09.06-.23.03-.25-.1-.59-3.24-1.13-8.8.89-14.54.01-.03.02-.06.03-.1.1-.38.2-.75.31-1.11.87-2.83,2.13-5.22,3.77-7.2,1.63-1.97,3.62-3.48,5.96-4.51,2.34-1.04,5-1.55,7.97-1.55s5.52.51,7.77,1.54c2.25,1.02,4.14,2.53,5.67,4.52,1.53,1.99,2.69,4.45,3.48,7.37.14.52.27,1.06.38,1.6.21.99-.53,1.92-1.54,1.92h-27.65c-.41,0-.79.16-1.09.43-.8.75-1.61,1.64-2.37,2.72-1.56,2.2-2.38,4.44-2.83,6.29-.24.99.52,1.95,1.54,1.95h48.34c.83,0,1.51-.64,1.58-1.47.03-.38.05-.76.06-1.12.03-.82.05-1.64.05-2.47,0-5.55-.79-10.57-2.37-15.08Z"/><path d="M1088.88,1060.72c-.87,1.81-1.99,3.37-3.38,4.7-1.39,1.33-3.06,2.37-5,3.12-1.94.75-4.18,1.12-6.71,1.12-2.93,0-5.56-.52-7.89-1.55-2.33-1.04-4.31-2.53-5.93-4.48-1.63-1.95-2.87-4.33-3.72-7.15-.85-2.81-1.28-6.01-1.28-9.57s.43-6.76,1.28-9.57c.85-2.82,2.09-5.2,3.72-7.15,1.62-1.95,3.6-3.44,5.93-4.46,2.33-1.02,4.96-1.54,7.89-1.54,2.53,0,4.77.37,6.71,1.12s3.61,1.78,5,3.1c1.39,1.32,2.52,2.88,3.38,4.7.7,1.46,1.24,3.01,1.64,4.65.17.71.8,1.2,1.53,1.2h12.74c.98,0,1.73-.88,1.56-1.85-.62-3.43-1.66-6.64-3.13-9.64-1.73-3.52-4-6.57-6.8-9.13-2.81-2.57-6.12-4.58-9.92-6.03-3.81-1.46-8.06-2.18-12.74-2.18-3.44,0-6.69.4-9.75,1.19-3.06.79-5.88,1.93-8.45,3.41-2.58,1.49-4.88,3.31-6.93,5.46-2.04,2.15-3.78,4.59-5.2,7.33-1.43,2.74-2.52,5.72-3.28,8.97-.76,3.25-1.14,6.72-1.14,10.41s.38,7.17,1.14,10.43c.76,3.26,1.85,6.25,3.28,8.97,1.42,2.72,3.16,5.16,5.22,7.31,2.06,2.15,4.37,3.98,6.93,5.48,2.56,1.5,5.38,2.64,8.43,3.43,3.06.79,6.31,1.19,9.75,1.19,4.68,0,8.92-.73,12.72-2.18,3.8-1.45,7.1-3.46,9.92-6.03,2.81-2.56,5.09-5.6,6.82-9.13,1.47-2.99,2.51-6.2,3.13-9.64.17-.96-.58-1.85-1.56-1.85h-12.74c-.73,0-1.36.5-1.53,1.2-.4,1.64-.94,3.18-1.64,4.64Z"/><path d="M1154.42,1012.04c-3.59,0-6.79.54-9.6,1.63-2.82,1.09-5.27,2.65-7.36,4.7-2.09,2.05-3.82,4.54-5.21,7.47-.01.03-.03.06-.04.08-.71,1.52-2.98,1.04-2.98-.64v-11.66c0-.87-.71-1.58-1.58-1.58h-12.73c-.87,0-1.58.71-1.58,1.58v66.62c0,.87.71,1.58,1.58,1.58h12.73c.87,0,1.58-.71,1.58-1.58v-31.65c0-3.67.39-6.86,1.17-9.56.78-2.7,2.07-4.94,3.89-6.71,1.81-1.77,4.23-3.09,7.26-3.96,3.03-.87,6.79-1.3,11.28-1.3h3.64c.87,0,1.58-.71,1.58-1.58v-11.87c0-.87-.71-1.58-1.58-1.58h-2.06Z"/><path d="M1226.26,1031.61c-1.58-4.51-3.84-8.34-6.76-11.52-2.92-3.18-6.44-5.63-10.56-7.36-4.11-1.73-8.71-2.59-13.79-2.59s-9.8.88-14.02,2.64c-4.22,1.76-7.84,4.26-10.86,7.49-3.01,3.23-5.35,7.09-7.01,11.6-1.66,4.51-2.48,9.5-2.48,14.99s.83,10.53,2.5,15.06c1.67,4.54,4.03,8.42,7.09,11.64,3.06,3.23,6.72,5.73,10.98,7.5,4.26,1.77,9,2.66,14.21,2.66,4.16,0,8.03-.57,11.61-1.72,3.58-1.15,6.79-2.82,9.6-5,2.81-2.18,5.21-4.84,7.18-7.96,1.63-2.58,2.9-5.43,3.82-8.57.3-1.02-.45-2.04-1.51-2.04h-12.21c-.63,0-1.2.37-1.44.95-.68,1.58-1.48,2.99-2.4,4.23-1.1,1.49-2.35,2.73-3.76,3.73-1.41,1-3,1.75-4.75,2.25-1.75.5-3.66.74-5.72.74-3.04,0-5.78-.52-8.21-1.57-2.44-1.04-4.51-2.55-6.22-4.51-1.71-1.96-3.02-4.34-3.94-7.13-.39-1.2-.7-2.45-.92-3.77l-.27-.89-.02-.08c-.29-1.62-.57-3.82-.52-6.34,0-.04,0-.08,0-.11-.04-4.66.99-9.34,3.38-13.39.02-.03.04-.07.06-.1.59-1.08,1.25-2.07,2-2.97.06-.07.12-.15.18-.22.33-.4.69-.77,1.06-1.12,1.37-1.33,2.94-2.38,4.72-3.17,2.34-1.04,5-1.55,7.97-1.55s5.52.51,7.77,1.54c2.25,1.02,4.14,2.53,5.67,4.52,1.53,1.99,2.69,4.45,3.48,7.37.14.52.27,1.06.38,1.6.21.99-.53,1.92-1.54,1.92h-27.56c-.41,0-.79.16-1.09.43-.8.75-1.61,1.64-2.37,2.72-1.56,2.2-2.38,4.44-2.83,6.29-.24.99.52,1.95,1.54,1.95h48.25c.83,0,1.51-.64,1.58-1.47.03-.38.05-.76.07-1.12.03-.82.04-1.64.04-2.47,0-5.55-.79-10.57-2.37-15.08Z"/><path d="M1299.29,1031.61c-1.58-4.51-3.84-8.34-6.76-11.52-2.92-3.18-6.44-5.63-10.55-7.36-4.11-1.73-8.71-2.59-13.8-2.59s-9.8.88-14.02,2.64c-4.22,1.76-7.83,4.26-10.85,7.49-3.01,3.23-5.35,7.09-7.01,11.6-1.66,4.51-2.48,9.5-2.48,14.99s.83,10.53,2.5,15.06c1.67,4.54,4.03,8.42,7.09,11.64,3.06,3.23,6.72,5.73,10.98,7.5,4.26,1.77,9,2.66,14.21,2.66,4.15,0,8.03-.57,11.61-1.72,3.58-1.15,6.79-2.82,9.6-5,2.81-2.18,5.21-4.84,7.18-7.96,1.63-2.58,2.9-5.43,3.81-8.57.3-1.02-.45-2.04-1.51-2.04h-12.21c-.63,0-1.2.37-1.44.95-.68,1.58-1.48,2.99-2.4,4.23-1.1,1.49-2.35,2.73-3.77,3.73-1.41,1-2.99,1.75-4.75,2.25-1.75.5-3.66.74-5.73.74-3.04,0-5.77-.52-8.21-1.57-2.44-1.04-4.51-2.55-6.22-4.51s-3.02-4.34-3.94-7.13c-.48-1.45-.83-3-1.06-4.64h0s-.02-.04-.03-.07c-.51-2.76-.97-7.23.16-12.05h0c.21-1.3.5-2.53.87-3.7.26-.83.55-1.62.87-2.38,0-.03.02-.05.03-.07.77-1.79,1.72-3.38,2.86-4.75.35-.42.71-.82,1.1-1.2h.01c.06-.07.12-.13.17-.18,1.36-1.3,2.92-2.35,4.68-3.12,2.34-1.04,5-1.55,7.97-1.55s5.52.51,7.77,1.54c2.25,1.02,4.14,2.53,5.66,4.52,1.53,1.99,2.69,4.45,3.48,7.37.14.52.27,1.06.38,1.6.21.99-.53,1.92-1.54,1.92h-27.44c-.41,0-.79.16-1.09.43-.8.75-1.61,1.64-2.37,2.72-1.56,2.2-2.38,4.44-2.83,6.29-.24.99.52,1.95,1.54,1.95h48.13c.83,0,1.51-.64,1.58-1.47.03-.38.05-.76.06-1.12.03-.82.05-1.64.05-2.47,0-5.55-.79-10.57-2.37-15.08Z"/><path d="M1338.71,1046.29l31.75-31.56c1-.99.3-2.7-1.11-2.7h-14.91c-.43,0-.83.17-1.13.48l-26.35,26.97c-.99,1.01-2.71.31-2.71-1.1v-48.65c0-.87-.71-1.58-1.58-1.58h-12.73c-.87,0-1.58.71-1.58,1.58v90.51c0,.87.71,1.58,1.58,1.58h12.73c.87,0,1.58-.71,1.58-1.58v-22.75c0-1.37,1.63-2.09,2.64-1.17l27.6,25.09c.29.26.67.41,1.06.41h16.5c1.45,0,2.13-1.8,1.05-2.76l-34.33-30.46c-.68-.6-.71-1.66-.07-2.3Z"/><path d="M1065.68,390.65c-117.73,6.84-130.54,19.65-137.38,137.38-.1,1.77-2.71,1.77-2.81,0-6.84-117.73-19.65-130.54-137.38-137.38-1.77-.1-1.77-2.71,0-2.81,117.73-6.84,130.54-19.65,137.38-137.38.1-1.77,2.71-1.77,2.81,0,6.84,117.73,19.65,130.54,137.38,137.38,1.77.1,1.77,2.71,0,2.81Z" fill="none" stroke="#000" stroke-miterlimit="10" stroke-width="8"/></svg>