<?xml version="1.0" encoding="UTF-8"?><svg id="Layer_1" xmlns="http://www.w3.org/2000/svg" viewBox="0 0 1845.97 857.31"><g id="Vertical_-_Black"><path d="M317.99,501.2c-2-4.85-4.67-9.01-8.01-12.48-3.35-3.46-7.24-6.35-11.67-8.64-4.43-2.31-9.05-4.21-13.89-5.71-4.82-1.51-9.73-2.73-14.71-3.69-4.99-.93-9.72-1.78-14.23-2.52l-10.91-1.79c-3.03-.54-6.04-1.06-9.03-1.55-2.99-.5-5.84-1.1-8.55-1.82-2.7-.71-5.21-1.54-7.53-2.48s-4.35-2.08-6.05-3.42-3.04-2.87-4.02-4.65c-.96-1.75-1.45-3.82-1.45-6.2,0-3.03.85-5.77,2.53-8.25,1.68-2.48,4.05-4.6,7.13-6.38,3.07-1.79,6.76-3.15,11.06-4.12,4.3-.97,9.04-1.45,14.19-1.45,5.84,0,11,.62,15.49,1.86,4.47,1.24,8.24,3,11.28,5.27,3.05,2.29,5.34,5.03,6.87,8.25.9,1.87,1.53,3.87,1.9,5.99.49,2.78,2.85,4.85,5.68,4.85h27.51c2.11,0,3.83-1.78,3.7-3.89-.42-6.99-2.01-13.38-4.74-19.17-3.25-6.85-7.99-12.69-14.23-17.49-6.24-4.8-13.9-8.49-22.95-11.06-9.06-2.57-19.39-3.85-30.98-3.85s-20.96,1.18-29.75,3.53c-8.8,2.36-16.24,5.71-22.35,10.07-6.12,4.36-10.82,9.63-14.08,15.83-3.27,6.19-4.91,13.12-4.91,20.79,0,6.13.96,11.45,2.9,15.93,1.93,4.49,4.51,8.34,7.76,11.59,3.24,3.25,6.96,5.97,11.18,8.17,4.21,2.21,8.62,4.04,13.22,5.5,4.6,1.46,9.23,2.64,13.89,3.53,4.66.9,9.02,1.68,13.07,2.38l10.99,1.93c3.52.64,6.94,1.27,10.29,1.9,3.34.61,6.49,1.34,9.46,2.15,2.97.82,5.7,1.76,8.18,2.86,2.48,1.09,4.6,2.38,6.38,3.85,1.79,1.5,3.19,3.21,4.19,5.2,1.02,1.99,1.52,4.33,1.52,7.06,0,3.32-.88,6.28-2.64,8.88-1.75,2.59-4.31,4.8-7.65,6.61-3.35,1.81-7.42,3.19-12.22,4.12-4.8.93-10.27,1.41-16.41,1.41-6.83,0-12.78-.6-17.86-1.78-5.08-1.19-9.3-2.96-12.67-5.28-3.36-2.32-5.86-5.2-7.5-8.62-1.23-2.53-1.99-5.34-2.3-8.42-.19-1.88-1.79-3.31-3.68-3.31h-29.24c-2.1,0-3.82,1.75-3.7,3.85.4,7.59,2.01,14.4,4.84,20.44,3.28,7.02,8.17,12.95,14.64,17.79,6.46,4.82,14.52,8.49,24.18,10.99,9.66,2.5,20.85,3.75,33.57,3.75s22.95-1.13,32.31-3.41c9.36-2.29,17.22-5.61,23.59-9.95,6.37-4.36,11.19-9.71,14.47-16.05,3.29-6.33,4.94-13.59,4.94-21.76,0-6.54-1-12.23-3.01-17.09v-.05Z"/><path d="M379.69,508.63c0,5.1.47,9.5,1.41,13.18.93,3.69,2.36,6.74,4.26,9.14,1.9,2.39,4.35,4.19,7.32,5.39,2.97,1.18,6.51,1.78,10.62,1.78,3.21,0,7.03-.36,11.44-1.11,3.25-.55,6.93-1.31,11.03-2.29,2.32-.55,4.57,1.21,4.57,3.6v22.62c0,1.66-1.1,3.13-2.7,3.57-5.64,1.54-10.99,2.72-16.05,3.5-5.88.92-11.38,1.38-16.53,1.38-8.61,0-16.18-1.28-22.73-3.85-6.53-2.57-12.02-6.41-16.45-11.52-4.43-5.09-7.79-11.44-10.07-19.01-2.28-7.58-3.41-16.4-3.41-26.45v-73.33c0-2.04-1.66-3.7-3.7-3.7h-13.98c-2.04,0-3.7-1.66-3.7-3.7v-22.9c0-2.04,1.66-3.7,3.7-3.7h13.98c2.04,0,3.7-1.66,3.7-3.7v-30.31c0-2.04,1.66-3.7,3.7-3.7h29.87c2.04,0,3.7,1.66,3.7,3.7v30.31c0,2.04,1.66,3.7,3.7,3.7h43.25c2.04,0,3.7,1.66,3.7,3.7v22.9c0,2.04-1.66,3.7-3.7,3.7h-43.25c-2.04,0-3.7,1.66-3.7,3.7v73.4h.01Z"/><path d="M593.98,458.64c-1.78-7.63-4.33-14.64-7.67-21.06-3.35-6.41-7.42-12.14-12.22-17.2-4.81-5.05-10.23-9.32-16.27-12.81-6.04-3.49-12.65-6.16-19.82-8.01-7.17-1.86-14.8-2.79-22.88-2.79s-15.69.93-22.87,2.79c-7.18,1.86-13.8,4.52-19.84,8.01-6.04,3.49-11.47,7.77-16.26,12.81-4.8,5.06-8.88,10.78-12.22,17.2-3.34,6.42-5.9,13.43-7.69,21.06-1.78,7.63-2.68,15.77-2.68,24.44s.9,16.82,2.68,24.47c1.79,7.66,4.35,14.67,7.69,21.06,3.35,6.39,7.43,12.11,12.27,17.15,4.82,5.06,10.26,9.35,16.26,12.85,6.02,3.52,12.6,6.2,19.8,8.06,7.17,1.86,14.8,2.79,22.87,2.79s15.77-.93,22.92-2.79c7.16-1.85,13.74-4.54,19.75-8.06s11.44-7.8,16.26-12.85c4.82-5.05,8.91-10.76,12.27-17.15,3.34-6.39,5.9-13.41,7.67-21.06,1.79-7.65,2.68-15.81,2.68-24.47s-.89-16.81-2.68-24.44h-.01ZM556.2,505.54c-2,6.61-4.91,12.22-8.69,16.82s-8.4,8.11-13.85,10.5c-5.44,2.41-11.61,3.61-18.49,3.61s-13.07-1.21-18.53-3.63c-5.48-2.43-10.12-5.93-13.92-10.51-3.82-4.58-6.73-10.17-8.73-16.79-2.01-6.61-3.01-14.1-3.01-22.48s1-15.85,3.01-22.46c2-6.61,4.91-12.21,8.73-16.79,3.81-4.58,8.46-8.07,13.92-10.48,5.47-2.39,11.63-3.61,18.53-3.61s13.05,1.2,18.49,3.61c5.46,2.39,10.07,5.89,13.85,10.48,3.78,4.58,6.69,10.17,8.69,16.79,2.01,6.61,3.01,14.1,3.01,22.46s-1,15.86-3.01,22.48Z"/><path d="M755.14,439.93c-2.56-9.31-6.24-17.16-11.06-23.55-4.82-6.38-10.78-11.25-17.87-14.59-7.09-3.34-15.17-5.01-24.29-5.01-7.63,0-14.68,1.19-21.17,3.61-6.49,2.39-12.27,5.89-17.31,10.47-5.06,4.58-9.35,10.21-12.85,16.87-.27.51-.54,1.03-.79,1.54-1.74,3.49-7.01,2.22-7.01-1.67v-22.65c0-2.04-1.66-3.7-3.7-3.7h-29.87c-2.04,0-3.7,1.66-3.7,3.7v156.38c0,2.04,1.66,3.7,3.7,3.7h29.87c2.04,0,3.7-1.66,3.7-3.7v-83.57c0-5.1.42-9.84,1.26-14.19.84-4.36,2.08-8.32,3.71-11.88,1.64-3.56,3.64-6.71,6.05-9.44,2.39-2.72,5.15-5,8.28-6.83,3.12-1.83,6.55-3.24,10.33-4.19,3.77-.97,7.87-1.45,12.34-1.45,6.19,0,11.59.95,16.19,2.86,4.6,1.9,8.46,4.77,11.55,8.57,3.1,3.82,5.4,8.55,6.9,14.23,1.51,5.68,2.27,12.32,2.27,19.95v85.95c0,2.04,1.66,3.7,3.7,3.7h29.87c2.04,0,3.7-1.66,3.7-3.7v-89.67c0-11.83-1.27-22.41-3.82-31.72v-.02Z"/><path d="M927.65,447.16c-3.71-10.58-9.01-19.58-15.85-27.04-6.86-7.45-15.12-13.21-24.78-17.28-9.65-4.05-20.45-6.09-32.39-6.09s-22.99,2.07-32.9,6.2c-9.91,4.14-18.4,10-25.49,17.57-7.08,7.58-12.56,16.66-16.45,27.22-3.89,10.58-5.83,22.3-5.83,35.17s1.95,24.71,5.88,35.36c3.91,10.65,9.45,19.75,16.63,27.33,7.17,7.58,15.77,13.45,25.78,17.6,10,4.16,21.12,6.24,33.35,6.24,9.75,0,18.84-1.34,27.26-4.04,8.41-2.71,15.93-6.61,22.55-11.74,6.61-5.13,12.23-11.35,16.86-18.68,3.82-6.04,6.8-12.74,8.96-20.1.7-2.38-1.06-4.79-3.55-4.79h-28.65c-1.47,0-2.8.88-3.39,2.22-1.6,3.7-3.47,7.01-5.63,9.93-2.57,3.49-5.51,6.41-8.83,8.76-3.32,2.36-7.03,4.11-11.14,5.28-4.1,1.17-8.59,1.74-13.43,1.74-7.14,0-13.56-1.23-19.27-3.68-5.71-2.45-10.58-5.98-14.6-10.58s-7.09-10.19-9.25-16.74c-1.1-3.39-1.93-7-2.46-10.82-.2.14-.53.07-.58-.25-1.39-7.59-2.65-20.66,2.09-34.13.02-.07.05-.15.07-.22.22-.88.47-1.75.74-2.62,2.06-6.64,5-12.27,8.84-16.9,3.83-4.63,8.5-8.15,13.99-10.58,5.49-2.43,11.73-3.64,18.71-3.64s12.97,1.2,18.23,3.61c5.28,2.39,9.71,5.95,13.31,10.62,3.59,4.67,6.31,10.46,8.17,17.31.33,1.23.63,2.48.9,3.76.49,2.32-1.25,4.51-3.62,4.51h-64.91c-.96,0-1.86.37-2.56,1.02-1.88,1.75-3.77,3.85-5.55,6.38-3.66,5.17-5.6,10.42-6.64,14.77-.56,2.34,1.21,4.57,3.61,4.57h113.46c1.95,0,3.55-1.51,3.7-3.46.07-.9.12-1.78.15-2.63.08-1.93.12-3.85.12-5.79,0-13.01-1.85-24.82-5.56-35.38l-.04.02Z"/><path d="M1062.47,515.5c-2.03,4.24-4.67,7.91-7.94,11.03s-7.18,5.56-11.74,7.32c-4.56,1.75-9.8,2.64-15.75,2.64-6.88,0-13.06-1.21-18.53-3.63-5.47-2.43-10.12-5.93-13.92-10.51-3.82-4.58-6.73-10.17-8.73-16.79-2-6.61-3.01-14.1-3.01-22.48s1.02-15.85,3.01-22.46,4.91-12.21,8.73-16.79c3.81-4.58,8.46-8.07,13.92-10.48,5.48-2.39,11.65-3.61,18.53-3.61,5.95,0,11.19.88,15.75,2.64s8.47,4.18,11.74,7.28c3.27,3.1,5.91,6.78,7.94,11.03,1.64,3.43,2.92,7.08,3.84,10.92.4,1.66,1.89,2.83,3.59,2.83h29.89c2.3,0,4.07-2.08,3.66-4.33-1.45-8.06-3.9-15.59-7.34-22.62-4.07-8.27-9.38-15.42-15.97-21.44-6.59-6.03-14.36-10.75-23.29-14.15-8.95-3.42-18.91-5.13-29.89-5.13-8.07,0-15.7.93-22.88,2.79-7.17,1.86-13.8,4.52-19.82,8.01-6.04,3.49-11.47,7.77-16.27,12.81-4.8,5.06-8.88,10.78-12.21,17.2-3.35,6.42-5.91,13.43-7.69,21.06-1.79,7.63-2.68,15.77-2.68,24.44s.89,16.82,2.68,24.47c1.78,7.66,4.33,14.67,7.69,21.06,3.34,6.39,7.42,12.11,12.25,17.15,4.82,5.06,10.26,9.35,16.26,12.85,6.02,3.52,12.62,6.2,19.8,8.06,7.17,1.86,14.8,2.79,22.88,2.79,10.98,0,20.95-1.71,29.86-5.13,8.91-3.41,16.67-8.13,23.29-14.15,6.61-6.02,11.95-13.15,16.02-21.44,3.45-7.02,5.89-14.57,7.34-22.62.41-2.27-1.36-4.33-3.66-4.33h-29.89c-1.71,0-3.19,1.17-3.59,2.82-.93,3.84-2.21,7.46-3.84,10.89l-.02-.02Z"/><path d="M1216.32,401.22c-8.42,0-15.93,1.27-22.55,3.83s-12.37,6.23-17.28,11.03c-4.91,4.81-8.97,10.65-12.22,17.53-.04.07-.06.13-.09.2-1.67,3.57-7,2.44-7-1.51v-27.37c0-2.04-1.66-3.7-3.7-3.7h-29.87c-2.04,0-3.7,1.66-3.7,3.7v156.38c0,2.04,1.66,3.7,3.7,3.7h29.87c2.04,0,3.7-1.66,3.7-3.7v-74.29c0-8.62.91-16.1,2.75-22.43,1.82-6.34,4.87-11.59,9.14-15.75,4.25-4.17,9.93-7.25,17.04-9.29,7.1-2.03,15.93-3.04,26.48-3.04h8.55c2.04,0,3.7-1.66,3.7-3.7v-27.87c0-2.04-1.66-3.7-3.7-3.7h-4.82v-.02Z"/><path d="M1384.93,447.16c-3.71-10.58-9.01-19.58-15.85-27.04-6.86-7.45-15.12-13.21-24.78-17.28-9.65-4.05-20.45-6.09-32.38-6.09s-23,2.07-32.91,6.2c-9.91,4.14-18.4,10-25.49,17.57-7.08,7.58-12.56,16.66-16.45,27.22-3.89,10.58-5.83,22.3-5.83,35.17s1.95,24.71,5.88,35.36c3.91,10.65,9.45,19.75,16.63,27.33,7.17,7.58,15.77,13.45,25.78,17.6,10,4.16,21.12,6.24,33.35,6.24,9.77,0,18.84-1.34,27.26-4.04,8.41-2.71,15.93-6.61,22.55-11.74,6.61-5.13,12.23-11.35,16.86-18.68,3.82-6.04,6.8-12.74,8.96-20.1.7-2.38-1.06-4.79-3.55-4.79h-28.65c-1.47,0-2.8.88-3.39,2.22-1.6,3.7-3.47,7.01-5.63,9.93-2.57,3.49-5.51,6.41-8.83,8.76-3.32,2.36-7.03,4.11-11.14,5.28-4.1,1.17-8.59,1.74-13.43,1.74-7.14,0-13.56-1.23-19.27-3.68s-10.58-5.98-14.6-10.58c-4.02-4.6-7.09-10.19-9.24-16.74-.92-2.8-1.65-5.76-2.16-8.87l-.64-2.1-.05-.18c-.69-3.81-1.34-8.97-1.23-14.88v-.27c-.11-10.95,2.32-21.93,7.93-31.42.05-.08.09-.16.14-.25,1.38-2.53,2.94-4.86,4.7-6.97.14-.18.28-.35.43-.51.78-.93,1.61-1.81,2.48-2.64,3.21-3.12,6.92-5.6,11.09-7.43,5.49-2.43,11.74-3.64,18.71-3.64s12.97,1.2,18.23,3.61c5.28,2.39,9.71,5.95,13.31,10.62,3.59,4.67,6.31,10.46,8.17,17.31.33,1.23.63,2.48.9,3.76.49,2.32-1.25,4.51-3.62,4.51h-64.69c-.95,0-1.86.37-2.56,1.02-1.88,1.75-3.78,3.87-5.56,6.39-3.66,5.17-5.6,10.42-6.64,14.77-.56,2.34,1.21,4.57,3.61,4.57h113.25c1.95,0,3.55-1.51,3.7-3.46.07-.9.12-1.78.15-2.63.07-1.93.11-3.85.11-5.79,0-13.01-1.85-24.82-5.56-35.38h-.04Z"/><path d="M1556.38,447.16c-3.71-10.58-9.01-19.58-15.86-27.04-6.85-7.45-15.12-13.21-24.76-17.28-9.66-4.05-20.45-6.09-32.39-6.09s-23,2.07-32.91,6.2c-9.91,4.14-18.39,10-25.48,17.57-7.08,7.58-12.57,16.66-16.45,27.22-3.89,10.58-5.83,22.3-5.83,35.17s1.95,24.71,5.86,35.36c3.91,10.65,9.46,19.75,16.65,27.33,7.17,7.58,15.77,13.45,25.77,17.6,10.01,4.16,21.12,6.24,33.36,6.24,9.75,0,18.84-1.34,27.26-4.04,8.41-2.71,15.93-6.61,22.55-11.74,6.61-5.13,12.23-11.35,16.86-18.68,3.82-6.05,6.81-12.74,8.95-20.1.7-2.38-1.06-4.79-3.55-4.79h-28.65c-1.47,0-2.8.88-3.39,2.22-1.6,3.7-3.48,7.01-5.63,9.93-2.57,3.49-5.53,6.41-8.84,8.76-3.32,2.36-7.02,4.11-11.14,5.28-4.1,1.17-8.59,1.74-13.45,1.74-7.13,0-13.55-1.23-19.26-3.68-5.72-2.45-10.58-5.98-14.6-10.58-4.02-4.6-7.09-10.19-9.25-16.74-1.12-3.41-1.95-7.04-2.48-10.9h0s-.05-.11-.06-.16c-1.19-6.48-2.28-16.97.37-28.28h0c.5-3.04,1.18-5.93,2.03-8.69.61-1.95,1.28-3.8,2.04-5.57.02-.06.04-.12.07-.16,1.81-4.21,4.04-7.92,6.72-11.16.82-.99,1.67-1.93,2.57-2.82l.04-.04c.13-.13.28-.27.41-.4,3.2-3.06,6.86-5.51,10.99-7.34,5.49-2.43,11.73-3.64,18.71-3.64s12.97,1.2,18.23,3.61c5.28,2.39,9.71,5.95,13.29,10.62,3.6,4.67,6.32,10.46,8.18,17.31.33,1.23.63,2.48.9,3.76.49,2.32-1.25,4.51-3.62,4.51h-64.41c-.95,0-1.86.37-2.56,1.02-1.88,1.75-3.78,3.87-5.56,6.39-3.66,5.17-5.6,10.42-6.64,14.77-.56,2.34,1.21,4.57,3.61,4.57h112.97c1.95,0,3.55-1.51,3.7-3.46.07-.9.12-1.78.15-2.63.08-1.93.12-3.85.12-5.79,0-13.01-1.86-24.82-5.56-35.38h-.04Z"/><path d="M1648.91,481.63l74.54-74.07c2.35-2.34.7-6.33-2.62-6.33h-34.99c-.99,0-1.95.4-2.65,1.12l-61.85,63.3c-2.32,2.37-6.35.74-6.35-2.59v-114.19c0-2.04-1.66-3.7-3.7-3.7h-29.87c-2.04,0-3.7,1.66-3.7,3.7v212.45c0,2.04,1.66,3.7,3.7,3.7h29.87c2.04,0,3.7-1.66,3.7-3.7v-53.41c0-3.22,3.82-4.91,6.2-2.75l64.79,58.89c.68.62,1.58.97,2.49.97h38.72c3.41,0,5.01-4.22,2.46-6.48l-80.59-71.5c-1.6-1.43-1.67-3.89-.15-5.4h0Z"/><path d="M727.63,186.36h491.94c2.09,0,3.9-1.43,4.42-3.43.09-.37.18-.71.23-1.03,0,0,1.1-5.33-.61-10.67-.3-.96-.65-1.6-.81-1.86,0,0,0-.01-.01-.02-.81-1.37-2.3-2.18-3.89-2.18h-491.18c-20.63-.19-39.92-8.73-51.53-22.74h-23.02c2.11,4.12,4.71,8.06,7.77,11.8,15.45,18.81,39.73,29.85,66.69,30.13h0Z"/><path d="M547.8,57.58c-1.92,10.07,1.44,21.02,9.4,30.8,11.7,14.2,31.19,22.84,52.01,23.02h567.4c21.11.29,40.69,7.1,55.56,19.19,4.12,3.26,7.87,6.9,11.13,11.03,6.42,7.78,10.75,16.6,12.76,25.52,1.54,6.42,1.92,12.86.86,19.19,0,.57-.09,1.16-.2,1.73-5.67,30.51-40.01,54.03-78.69,54.03h-645.37c-2.71,0-4.91-2.2-4.91-4.91v-9.37c0-2.71,2.2-4.91,4.91-4.91h643.95c32.53.86,56.24-18.23,60.84-36.56.07-.21.14-.44.21-.68.12-.39.21-.78.27-1.14,1.06-5.67.39-11.61-1.82-17.37-1.53-4.6-4.22-9.11-7.67-13.43-11.61-14.2-31.08-22.84-51.91-23.13h-567.4c-21.11-.19-40.69-7.01-55.56-19.1-4.12-3.26-7.87-7.01-11.13-11.04-11.52-13.91-16.41-30.9-13.53-46.43,5.76-30.51,40.1-54.03,78.69-54.03h645.49c2.71,0,4.91,2.2,4.91,4.91v9.37c0,2.71-2.2,4.91-4.91,4.91h-643.95c-33.77-.67-57.77,19.47-61.32,38.39h-.01Z"/><path d="M726.19,55.76c-33.29,0-63.52,17.46-74.75,41.83h22.45c10.08-12.57,28.89-22.64,52.3-22.64h640.49c2.71,0,4.91-2.2,4.91-4.91v-9.37c0-2.71-2.2-4.91-4.91-4.91h-640.49Z"/><path d="M1270.85,186.36h95.84c2.71,0,4.91-2.2,4.91-4.91v-9.37c0-2.71-2.2-4.91-4.91-4.91h-96.61c1.34,6.53,1.64,12.95.77,19.19h0Z"/></g><path d="M533.91,658.1l21.94,57.94,22.77-57.94h9.26v66.09h-6.29v-57.11h-.19l-22.58,57.11h-5.92l-21.75-57.11h-.19v57.11h-6.29v-66.09h9.26Z"/><path d="M603.33,658.1v9.35h-5.83v-9.35h5.83ZM603.33,676.43v47.76h-5.83v-47.76h5.83Z"/><path d="M617.95,676.43v8.24h.19c1.11-2.9,3.08-5.23,5.92-6.99,2.84-1.76,5.95-2.64,9.35-2.64s6.12.43,8.38,1.3c2.25.86,4.06,2.08,5.42,3.66,1.36,1.57,2.31,3.5,2.87,5.78.56,2.28.83,4.85.83,7.68v30.73h-5.83v-29.8c0-2.04-.19-3.93-.56-5.69-.37-1.76-1.02-3.29-1.94-4.58-.93-1.3-2.18-2.31-3.75-3.05-1.57-.74-3.53-1.11-5.88-1.11s-4.43.42-6.25,1.25c-1.82.83-3.36,1.98-4.63,3.42-1.27,1.45-2.25,3.18-2.96,5.18-.71,2.01-1.1,4.18-1.16,6.53v27.86h-5.83v-47.76h5.83Z"/><path d="M665.52,658.1v9.35h-5.83v-9.35h5.83ZM665.52,676.43v47.76h-5.83v-47.76h5.83Z"/><path d="M701.9,685.73c-.68-1.33-1.59-2.42-2.73-3.29-1.14-.86-2.45-1.5-3.93-1.9-1.48-.4-3.05-.6-4.72-.6-1.3,0-2.61.14-3.93.42-1.33.28-2.55.74-3.66,1.39-1.11.65-2.01,1.5-2.68,2.55-.68,1.05-1.02,2.35-1.02,3.89,0,1.3.32,2.39.97,3.29.65.9,1.47,1.65,2.45,2.27.99.62,2.07,1.13,3.24,1.53,1.17.4,2.25.73,3.24.97l7.77,1.76c1.67.25,3.32.69,4.95,1.34,1.63.65,3.08,1.5,4.35,2.55,1.26,1.05,2.3,2.35,3.1,3.89.8,1.54,1.2,3.36,1.2,5.46,0,2.59-.59,4.8-1.76,6.62-1.17,1.82-2.67,3.3-4.49,4.44-1.82,1.14-3.87,1.96-6.16,2.45-2.28.49-4.54.74-6.76.74-5.62,0-10.17-1.33-13.65-3.98-3.49-2.65-5.48-6.91-5.97-12.77h5.83c.25,3.95,1.68,6.93,4.3,8.93,2.62,2.01,5.88,3.01,9.77,3.01,1.42,0,2.88-.15,4.4-.46,1.51-.31,2.92-.83,4.21-1.57,1.3-.74,2.36-1.68,3.19-2.82.83-1.14,1.25-2.55,1.25-4.21,0-1.42-.29-2.61-.88-3.56-.59-.96-1.37-1.76-2.36-2.41-.99-.65-2.11-1.19-3.38-1.62-1.27-.43-2.54-.8-3.84-1.11l-7.5-1.67c-1.91-.49-3.67-1.06-5.28-1.71-1.6-.65-3.01-1.45-4.21-2.41-1.2-.96-2.14-2.13-2.82-3.52-.68-1.39-1.02-3.1-1.02-5.14,0-2.41.54-4.47,1.62-6.2,1.08-1.73,2.48-3.12,4.21-4.17,1.73-1.05,3.66-1.82,5.78-2.31,2.13-.49,4.24-.74,6.34-.74,2.41,0,4.64.31,6.71.93,2.07.62,3.89,1.57,5.46,2.87,1.57,1.3,2.82,2.9,3.75,4.81.93,1.91,1.45,4.17,1.57,6.76h-5.83c-.06-1.79-.43-3.35-1.11-4.67Z"/><path d="M735.59,676.43v4.91h-9.72v32.21c0,1.91.26,3.41.79,4.49.52,1.08,1.84,1.68,3.93,1.81,1.67,0,3.33-.09,5-.28v4.91c-.87,0-1.73.03-2.59.09-.86.06-1.73.09-2.59.09-3.89,0-6.6-.75-8.15-2.27-1.54-1.51-2.28-4.3-2.22-8.38v-32.67h-8.33v-4.91h8.33v-14.35h5.83v14.35h9.72Z"/><path d="M746,708.41c.59,2.25,1.53,4.27,2.82,6.06,1.3,1.79,2.93,3.27,4.91,4.44,1.97,1.17,4.35,1.76,7.13,1.76,4.26,0,7.59-1.11,10-3.33,2.41-2.22,4.07-5.18,5-8.89h5.83c-1.24,5.43-3.5,9.63-6.8,12.59-3.3,2.96-7.98,4.44-14.02,4.44-3.76,0-7.02-.66-9.77-1.99-2.75-1.33-4.98-3.15-6.71-5.46-1.73-2.31-3.01-5-3.84-8.05-.83-3.05-1.25-6.28-1.25-9.67,0-3.15.42-6.23,1.25-9.26.83-3.02,2.11-5.72,3.84-8.1,1.73-2.38,3.96-4.29,6.71-5.74,2.75-1.45,6-2.18,9.77-2.18s7.1.77,9.81,2.31c2.71,1.54,4.92,3.56,6.62,6.06,1.7,2.5,2.92,5.37,3.66,8.61.74,3.24,1.05,6.53.93,9.86h-36.75c0,2.1.29,4.27.88,6.53ZM774.88,690.59c-.71-2.04-1.71-3.84-3.01-5.41-1.3-1.57-2.87-2.84-4.72-3.79-1.85-.96-3.95-1.43-6.29-1.43s-4.54.48-6.39,1.43c-1.85.96-3.42,2.22-4.72,3.79-1.3,1.57-2.33,3.39-3.1,5.46-.77,2.07-1.28,4.18-1.53,6.34h30.92c-.06-2.22-.45-4.35-1.16-6.39ZM755.95,656.71l9.72,13.05h-4.72l-12.22-13.05h7.22Z"/><path d="M792.79,676.43v11.2h.19c1.48-3.89,3.78-6.88,6.9-8.98,3.11-2.1,6.83-3.05,11.15-2.87v5.83c-2.65-.12-5.06.23-7.22,1.06-2.16.83-4.03,2.02-5.6,3.56-1.57,1.54-2.79,3.38-3.66,5.51-.86,2.13-1.3,4.46-1.3,6.99v25.45h-5.83v-47.76h5.37Z"/><path d="M816.9,708.41c.59,2.25,1.53,4.27,2.82,6.06,1.3,1.79,2.93,3.27,4.91,4.44,1.97,1.17,4.35,1.76,7.13,1.76,4.26,0,7.59-1.11,10-3.33,2.41-2.22,4.07-5.18,5-8.89h5.83c-1.24,5.43-3.5,9.63-6.8,12.59-3.3,2.96-7.98,4.44-14.02,4.44-3.76,0-7.02-.66-9.77-1.99-2.75-1.33-4.98-3.15-6.71-5.46-1.73-2.31-3.01-5-3.84-8.05-.83-3.05-1.25-6.28-1.25-9.67,0-3.15.42-6.23,1.25-9.26.83-3.02,2.11-5.72,3.84-8.1,1.73-2.38,3.96-4.29,6.71-5.74,2.75-1.45,6-2.18,9.77-2.18s7.1.77,9.81,2.31c2.71,1.54,4.92,3.56,6.62,6.06,1.7,2.5,2.92,5.37,3.66,8.61.74,3.24,1.05,6.53.93,9.86h-36.75c0,2.1.29,4.27.88,6.53ZM845.78,690.59c-.71-2.04-1.71-3.84-3.01-5.41-1.3-1.57-2.87-2.84-4.72-3.79-1.85-.96-3.95-1.43-6.29-1.43s-4.54.48-6.39,1.43c-1.85.96-3.42,2.22-4.72,3.79-1.3,1.57-2.33,3.39-3.1,5.46-.77,2.07-1.28,4.18-1.53,6.34h30.92c-.06-2.22-.45-4.35-1.16-6.39Z"/><path d="M924.78,658.1v5.37h-35.63v23.88h31.65v5.37h-31.65v31.47h-6.29v-66.09h41.93Z"/><path d="M934.5,676.43v11.2h.19c1.48-3.89,3.78-6.88,6.9-8.98,3.12-2.1,6.83-3.05,11.15-2.87v5.83c-2.65-.12-5.06.23-7.22,1.06-2.16.83-4.03,2.02-5.6,3.56-1.57,1.54-2.79,3.38-3.66,5.51-.86,2.13-1.3,4.46-1.3,6.99v25.45h-5.83v-47.76h5.37Z"/><path d="M957.17,683.83c.99-2.04,2.33-3.7,4.03-5,1.7-1.3,3.69-2.25,5.97-2.87,2.28-.62,4.81-.93,7.59-.93,2.1,0,4.2.2,6.29.6,2.1.4,3.98,1.16,5.65,2.27,1.67,1.11,3.02,2.67,4.07,4.67,1.05,2.01,1.57,4.61,1.57,7.82v25.36c0,2.35,1.14,3.52,3.42,3.52.68,0,1.3-.12,1.85-.37v4.91c-.68.12-1.28.22-1.8.28-.53.06-1.19.09-1.99.09-1.48,0-2.67-.2-3.56-.6-.9-.4-1.59-.97-2.08-1.71-.49-.74-.82-1.62-.97-2.64-.15-1.02-.23-2.14-.23-3.38h-.18c-1.05,1.54-2.11,2.92-3.19,4.12-1.08,1.2-2.28,2.21-3.61,3.01-1.33.8-2.84,1.42-4.54,1.85-1.7.43-3.72.65-6.06.65-2.22,0-4.3-.26-6.25-.79-1.94-.52-3.64-1.36-5.09-2.5-1.45-1.14-2.59-2.59-3.42-4.35-.83-1.76-1.25-3.84-1.25-6.25,0-3.33.74-5.94,2.22-7.82,1.48-1.88,3.44-3.32,5.88-4.3,2.44-.99,5.18-1.68,8.24-2.08,3.05-.4,6.16-.79,9.3-1.16,1.23-.12,2.31-.28,3.24-.46.93-.19,1.7-.51,2.31-.97.62-.46,1.09-1.09,1.43-1.9.34-.8.51-1.85.51-3.15,0-1.97-.32-3.59-.97-4.86-.65-1.26-1.54-2.27-2.68-3.01-1.14-.74-2.47-1.25-3.98-1.53-1.51-.28-3.13-.42-4.86-.42-3.7,0-6.73.88-9.07,2.64-2.35,1.76-3.58,4.58-3.7,8.47h-5.83c.19-2.78.77-5.18,1.76-7.22ZM986.33,698.09c-.37.68-1.08,1.17-2.13,1.48-1.05.31-1.98.52-2.78.65-2.47.43-5.01.82-7.64,1.16-2.62.34-5.01.85-7.17,1.53-2.16.68-3.93,1.65-5.32,2.92-1.39,1.27-2.08,3.07-2.08,5.41,0,1.48.29,2.79.88,3.93.58,1.14,1.37,2.13,2.36,2.96.99.83,2.13,1.47,3.42,1.9,1.3.43,2.62.65,3.98.65,2.22,0,4.35-.34,6.39-1.02,2.04-.68,3.81-1.67,5.32-2.96,1.51-1.3,2.71-2.87,3.61-4.72.89-1.85,1.34-3.95,1.34-6.29v-7.59h-.18Z"/><path d="M1007.43,676.43v8.24h.19c1.11-2.9,3.08-5.23,5.92-6.99,2.84-1.76,5.95-2.64,9.35-2.64s6.12.43,8.38,1.3c2.25.86,4.06,2.08,5.42,3.66,1.36,1.57,2.31,3.5,2.87,5.78.56,2.28.83,4.85.83,7.68v30.73h-5.83v-29.8c0-2.04-.19-3.93-.56-5.69-.37-1.76-1.02-3.29-1.94-4.58s-2.18-2.31-3.75-3.05c-1.57-.74-3.53-1.11-5.88-1.11s-4.43.42-6.25,1.25c-1.82.83-3.36,1.98-4.63,3.42-1.27,1.45-2.25,3.18-2.96,5.18-.71,2.01-1.1,4.18-1.16,6.53v27.86h-5.83v-47.76h5.83Z"/><path d="M1078.33,683c-2.16-2.04-5.18-3.05-9.07-3.05-2.78,0-5.21.59-7.31,1.76-2.1,1.17-3.84,2.72-5.23,4.63-1.39,1.91-2.44,4.09-3.15,6.53-.71,2.44-1.06,4.92-1.06,7.45s.35,5.01,1.06,7.45c.71,2.44,1.76,4.61,3.15,6.53,1.39,1.91,3.13,3.46,5.23,4.63,2.1,1.17,4.54,1.76,7.31,1.76,1.79,0,3.49-.34,5.09-1.02,1.6-.68,3.02-1.62,4.26-2.82,1.23-1.2,2.25-2.64,3.05-4.3.8-1.67,1.29-3.49,1.48-5.46h5.83c-.8,5.8-2.93,10.32-6.39,13.56-3.46,3.24-7.9,4.86-13.33,4.86-3.64,0-6.87-.66-9.67-1.99-2.81-1.33-5.17-3.13-7.08-5.41-1.91-2.28-3.36-4.95-4.35-8.01-.99-3.05-1.48-6.31-1.48-9.77s.49-6.71,1.48-9.76c.99-3.05,2.44-5.72,4.35-8.01,1.91-2.28,4.27-4.1,7.08-5.46,2.81-1.36,6.03-2.04,9.67-2.04,5.12,0,9.46,1.36,13,4.07,3.55,2.72,5.66,6.82,6.34,12.31h-5.83c-.8-3.58-2.28-6.39-4.44-8.42Z"/><path d="M1124.66,677.08c2.81,1.36,5.17,3.18,7.08,5.46,1.91,2.28,3.36,4.95,4.35,8.01.99,3.05,1.48,6.31,1.48,9.76s-.49,6.71-1.48,9.77c-.99,3.05-2.44,5.72-4.35,8.01-1.91,2.28-4.27,4.09-7.08,5.41-2.81,1.33-6.03,1.99-9.67,1.99s-6.87-.66-9.67-1.99c-2.81-1.33-5.17-3.13-7.08-5.41-1.91-2.28-3.36-4.95-4.35-8.01-.99-3.05-1.48-6.31-1.48-9.77s.49-6.71,1.48-9.76c.99-3.05,2.44-5.72,4.35-8.01,1.91-2.28,4.27-4.1,7.08-5.46,2.81-1.36,6.03-2.04,9.67-2.04s6.86.68,9.67,2.04ZM1107.67,681.7c-2.1,1.17-3.84,2.72-5.23,4.63-1.39,1.91-2.44,4.09-3.15,6.53-.71,2.44-1.06,4.92-1.06,7.45s.35,5.01,1.06,7.45c.71,2.44,1.76,4.61,3.15,6.53,1.39,1.91,3.13,3.46,5.23,4.63,2.1,1.17,4.54,1.76,7.31,1.76s5.21-.59,7.31-1.76c2.1-1.17,3.84-2.71,5.23-4.63,1.39-1.91,2.44-4.09,3.15-6.53.71-2.44,1.06-4.92,1.06-7.45s-.36-5.01-1.06-7.45c-.71-2.44-1.76-4.61-3.15-6.53-1.39-1.91-3.13-3.46-5.23-4.63-2.1-1.17-4.54-1.76-7.31-1.76s-5.21.59-7.31,1.76Z"/><path d="M1149.32,676.43v9.07h.19c1.36-3.33,3.56-5.91,6.62-7.73,3.05-1.82,6.53-2.73,10.41-2.73,3.64,0,6.8.68,9.49,2.04,2.68,1.36,4.92,3.19,6.71,5.51,1.79,2.31,3.12,5,3.98,8.05.86,3.05,1.3,6.28,1.3,9.67s-.43,6.62-1.3,9.67c-.86,3.05-2.19,5.74-3.98,8.05-1.79,2.31-4.03,4.13-6.71,5.46-2.68,1.33-5.85,1.99-9.49,1.99-1.73,0-3.46-.22-5.18-.65-1.73-.43-3.33-1.08-4.81-1.94-1.48-.86-2.79-1.94-3.93-3.24-1.14-1.3-2.02-2.81-2.64-4.54h-.19v26.66h-5.83v-65.35h5.37ZM1181.3,692.95c-.59-2.44-1.51-4.61-2.78-6.53-1.27-1.91-2.88-3.47-4.86-4.67-1.98-1.2-4.35-1.8-7.13-1.8-3.21,0-5.89.56-8.05,1.67-2.16,1.11-3.89,2.59-5.18,4.44s-2.21,4.01-2.73,6.48c-.53,2.47-.79,5.06-.79,7.77,0,2.47.29,4.92.88,7.36.59,2.44,1.54,4.61,2.87,6.53,1.33,1.91,3.05,3.47,5.18,4.67,2.13,1.2,4.74,1.81,7.82,1.81,2.78,0,5.15-.6,7.13-1.81,1.97-1.2,3.59-2.76,4.86-4.67,1.26-1.91,2.19-4.09,2.78-6.53.59-2.44.88-4.89.88-7.36s-.29-4.92-.88-7.36Z"/><path d="M1200.51,658.1v26.56h.19c1.11-2.9,3.08-5.23,5.92-6.99,2.84-1.76,5.95-2.64,9.35-2.64s6.12.43,8.38,1.3c2.25.86,4.06,2.08,5.42,3.66,1.36,1.57,2.31,3.5,2.87,5.78.56,2.28.83,4.85.83,7.68v30.73h-5.83v-29.8c0-2.04-.19-3.93-.56-5.69-.37-1.76-1.02-3.29-1.94-4.58s-2.18-2.31-3.75-3.05c-1.57-.74-3.53-1.11-5.88-1.11s-4.43.42-6.25,1.25c-1.82.83-3.36,1.98-4.63,3.42-1.27,1.45-2.25,3.18-2.96,5.18-.71,2.01-1.1,4.18-1.16,6.53v27.86h-5.83v-66.09h5.83Z"/><path d="M1272.01,677.08c2.81,1.36,5.17,3.18,7.08,5.46,1.91,2.28,3.36,4.95,4.35,8.01.99,3.05,1.48,6.31,1.48,9.76s-.49,6.71-1.48,9.77c-.99,3.05-2.44,5.72-4.35,8.01-1.91,2.28-4.27,4.09-7.08,5.41-2.81,1.33-6.03,1.99-9.67,1.99s-6.87-.66-9.67-1.99c-2.81-1.33-5.17-3.13-7.08-5.41-1.91-2.28-3.36-4.95-4.35-8.01-.99-3.05-1.48-6.31-1.48-9.77s.49-6.71,1.48-9.76c.99-3.05,2.44-5.72,4.35-8.01,1.91-2.28,4.27-4.1,7.08-5.46,2.81-1.36,6.03-2.04,9.67-2.04s6.86.68,9.67,2.04ZM1255.02,681.7c-2.1,1.17-3.84,2.72-5.23,4.63-1.39,1.91-2.44,4.09-3.15,6.53-.71,2.44-1.06,4.92-1.06,7.45s.35,5.01,1.06,7.45c.71,2.44,1.76,4.61,3.15,6.53,1.39,1.91,3.13,3.46,5.23,4.63,2.1,1.17,4.54,1.76,7.31,1.76s5.21-.59,7.31-1.76c2.1-1.17,3.84-2.71,5.23-4.63,1.39-1.91,2.44-4.09,3.15-6.53.71-2.44,1.06-4.92,1.06-7.45s-.36-5.01-1.06-7.45c-.71-2.44-1.76-4.61-3.15-6.53-1.39-1.91-3.13-3.46-5.23-4.63-2.1-1.17-4.54-1.76-7.31-1.76s-5.21.59-7.31,1.76Z"/><path d="M1297.04,676.43v8.24h.19c1.11-2.9,3.08-5.23,5.92-6.99,2.84-1.76,5.95-2.64,9.35-2.64s6.12.43,8.38,1.3c2.25.86,4.06,2.08,5.42,3.66,1.36,1.57,2.31,3.5,2.87,5.78.56,2.28.83,4.85.83,7.68v30.73h-5.83v-29.8c0-2.04-.19-3.93-.56-5.69-.37-1.76-1.02-3.29-1.94-4.58s-2.18-2.31-3.75-3.05c-1.57-.74-3.53-1.11-5.88-1.11s-4.43.42-6.25,1.25c-1.82.83-3.36,1.98-4.63,3.42-1.27,1.45-2.25,3.18-2.96,5.18-.71,2.01-1.1,4.18-1.16,6.53v27.86h-5.83v-47.76h5.83Z"/><path d="M1343,708.41c.59,2.25,1.53,4.27,2.82,6.06,1.3,1.79,2.93,3.27,4.91,4.44,1.97,1.17,4.35,1.76,7.13,1.76,4.26,0,7.59-1.11,10-3.33,2.41-2.22,4.07-5.18,5-8.89h5.83c-1.24,5.43-3.5,9.63-6.8,12.59-3.3,2.96-7.98,4.44-14.02,4.44-3.76,0-7.02-.66-9.76-1.99-2.75-1.33-4.98-3.15-6.71-5.46s-3.01-5-3.84-8.05c-.83-3.05-1.25-6.28-1.25-9.67,0-3.15.42-6.23,1.25-9.26.83-3.02,2.11-5.72,3.84-8.1,1.73-2.38,3.96-4.29,6.71-5.74,2.75-1.45,6-2.18,9.76-2.18s7.1.77,9.81,2.31c2.71,1.54,4.92,3.56,6.62,6.06,1.7,2.5,2.92,5.37,3.66,8.61.74,3.24,1.05,6.53.93,9.86h-36.75c0,2.1.29,4.27.88,6.53ZM1371.88,690.59c-.71-2.04-1.71-3.84-3.01-5.41-1.3-1.57-2.87-2.84-4.72-3.79-1.85-.96-3.95-1.43-6.29-1.43s-4.54.48-6.39,1.43c-1.85.96-3.42,2.22-4.72,3.79-1.3,1.57-2.33,3.39-3.1,5.46-.77,2.07-1.28,4.18-1.53,6.34h30.91c-.06-2.22-.45-4.35-1.16-6.39Z"/></svg>