<?xml version="1.0" encoding="UTF-8"?><svg id="Layer_1" xmlns="http://www.w3.org/2000/svg" viewBox="0 0 1930.42 850.9"><defs><style>.cls-1{fill:#fff;}</style></defs><g id="Horizontal_-_Black"><path class="cls-1" d="M849.59,125.37c-1.53-3.69-3.57-6.87-6.11-9.51-2.55-2.64-5.51-4.84-8.89-6.59-3.38-1.76-6.9-3.21-10.58-4.36s-7.42-2.09-11.2-2.81c-3.79-.72-7.41-1.35-10.85-1.92l-8.32-1.37c-2.3-.42-4.6-.81-6.88-1.19s-4.45-.83-6.51-1.39c-2.05-.54-3.97-1.18-5.74-1.9-1.77-.72-3.31-1.59-4.61-2.6s-2.31-2.2-3.06-3.54c-.73-1.34-1.1-2.91-1.1-4.73,0-2.3.64-4.4,1.93-6.28,1.29-1.88,3.09-3.51,5.44-4.87,2.34-1.37,5.15-2.4,8.43-3.15s6.89-1.1,10.82-1.1c4.45,0,8.38.48,11.81,1.42,3.41.94,6.28,2.29,8.6,4.02,2.33,1.74,4.07,3.83,5.23,6.28.68,1.42,1.16,2.95,1.45,4.56.37,2.12,2.17,3.69,4.34,3.69h20.98c1.62,0,2.92-1.35,2.82-2.96-.33-5.32-1.53-10.19-3.62-14.62-2.48-5.22-6.08-9.66-10.84-13.33-4.75-3.65-10.6-6.47-17.5-8.43-6.92-1.96-14.78-2.95-23.61-2.95s-15.98.9-22.67,2.68c-6.7,1.8-12.38,4.35-17.03,7.67-4.67,3.33-8.24,7.33-10.73,12.06-2.49,4.72-3.73,10-3.73,15.86,0,4.68.73,8.72,2.21,12.14,1.47,3.41,3.44,6.36,5.92,8.84,2.47,2.48,5.31,4.55,8.52,6.22,3.21,1.68,6.56,3.09,10.08,4.2,3.51,1.11,7.03,2.01,10.58,2.68,3.55.68,6.87,1.29,9.96,1.81l8.38,1.47c2.68.49,5.3.97,7.84,1.44s4.94,1.02,7.22,1.64c2.26.62,4.34,1.34,6.23,2.17,1.88.82,3.51,1.81,4.87,2.95,1.37,1.14,2.43,2.45,3.2,3.96.78,1.5,1.16,3.31,1.16,5.37,0,2.53-.67,4.79-2.01,6.76-1.34,1.97-3.29,3.65-5.83,5.03-2.55,1.38-5.65,2.43-9.32,3.15s-7.83,1.07-12.52,1.07c-5.21,0-9.75-.46-13.6-1.35-3.87-.91-7.09-2.25-9.66-4.02s-4.46-3.96-5.71-6.56c-.94-1.93-1.52-4.07-1.76-6.42-.14-1.43-1.37-2.52-2.81-2.52h-22.33c-1.61,0-2.91,1.34-2.82,2.93.3,5.79,1.53,10.97,3.69,15.58,2.5,5.35,6.22,9.87,11.15,13.55,4.93,3.68,11.06,6.47,18.42,8.38,7.36,1.91,15.89,2.86,25.59,2.86s17.5-.86,24.63-2.6c7.13-1.74,13.12-4.27,17.98-7.59,4.84-3.33,8.53-7.4,11.04-12.24,2.52-4.83,3.77-10.36,3.77-16.59,0-4.99-.76-9.32-2.3-13.02l-.06.04Z"/><path class="cls-1" d="M896.61,131.04c0,3.89.35,7.23,1.07,10.05.72,2.82,1.8,5.13,3.25,6.97s3.31,3.2,5.58,4.11c2.26.9,4.96,1.35,8.09,1.35,2.45,0,5.36-.28,8.71-.85,2.48-.42,5.27-1,8.41-1.74,1.77-.42,3.48.92,3.48,2.74v17.23c0,1.26-.83,2.39-2.06,2.72-4.3,1.18-8.37,2.07-12.24,2.67-4.48.7-8.67,1.05-12.59,1.05-6.56,0-12.33-.99-17.32-2.95-4.98-1.96-9.15-4.89-12.54-8.77-3.38-3.88-5.94-8.71-7.67-14.49s-2.6-12.49-2.6-20.15v-55.88c0-1.56-1.26-2.82-2.82-2.82h-10.66c-1.56,0-2.82-1.26-2.82-2.82v-17.45c0-1.56,1.26-2.82,2.82-2.82h10.66c1.56,0,2.82-1.26,2.82-2.82v-23.1c0-1.56,1.26-2.82,2.82-2.82h22.77c1.56,0,2.82,1.26,2.82,2.82v23.1c0,1.56,1.26,2.82,2.82,2.82h32.95c1.56,0,2.82,1.26,2.82,2.82v17.45c0,1.56-1.26,2.82-2.82,2.82h-32.95c-1.56,0-2.82,1.26-2.82,2.82v55.94h.04Z"/><path class="cls-1" d="M1059.91,92.93c-1.35-5.82-3.31-11.16-5.85-16.06-2.55-4.89-5.65-9.26-9.32-13.1s-7.8-7.11-12.4-9.76c-4.6-2.66-9.65-4.69-15.11-6.11-5.47-1.42-11.28-2.12-17.44-2.12s-11.96.71-17.44,2.12c-5.47,1.42-10.51,3.45-15.12,6.11-4.6,2.66-8.74,5.92-12.39,9.76-3.65,3.86-6.76,8.22-9.32,13.1-2.54,4.89-4.5,10.24-5.85,16.06-1.35,5.82-2.04,12.02-2.04,18.62s.68,12.82,2.04,18.65c1.37,5.84,3.31,11.18,5.85,16.06,2.55,4.87,5.66,9.23,9.34,13.07,3.68,3.86,7.81,7.12,12.39,9.8,4.59,2.68,9.61,4.73,15.08,6.14s11.28,2.12,17.44,2.12,12.01-.71,17.47-2.12c5.45-1.4,10.47-3.46,15.06-6.14,4.59-2.68,8.71-5.94,12.39-9.8,3.68-3.84,6.79-8.21,9.34-13.07,2.54-4.87,4.5-10.22,5.85-16.06,1.37-5.83,2.04-12.05,2.04-18.65s-.68-12.81-2.04-18.62h.01ZM1031.14,128.69c-1.53,5.04-3.73,9.32-6.63,12.82-2.88,3.51-6.41,6.18-10.56,8-4.15,1.83-8.85,2.74-14.1,2.74s-9.96-.92-14.12-2.77c-4.17-1.85-7.71-4.53-10.61-8.02-2.91-3.49-5.13-7.75-6.65-12.8-1.53-5.03-2.3-10.75-2.3-17.13s.76-12.09,2.3-17.12c1.53-5.04,3.74-9.31,6.65-12.8s6.45-6.16,10.61-7.98c4.16-1.83,8.88-2.74,14.12-2.74s9.95.92,14.1,2.74c4.16,1.83,7.67,4.49,10.56,7.98,2.88,3.49,5.1,7.75,6.63,12.8,1.53,5.03,2.3,10.75,2.3,17.12s-.76,12.09-2.3,17.13h0Z"/><path class="cls-1" d="M1182.75,78.67c-1.95-7.09-4.75-13.09-8.43-17.95s-8.22-8.57-13.62-11.11c-5.4-2.54-11.57-3.82-18.51-3.82-5.82,0-11.19.91-16.13,2.74-4.94,1.83-9.34,4.49-13.19,7.98-3.86,3.49-7.12,7.78-9.8,12.86-.2.39-.4.78-.61,1.18-1.33,2.66-5.34,1.69-5.34-1.28v-17.26c0-1.56-1.26-2.82-2.82-2.82h-22.77c-1.56,0-2.82,1.26-2.82,2.82v119.18c0,1.56,1.26,2.82,2.82,2.82h22.77c1.56,0,2.82-1.26,2.82-2.82v-63.7c0-3.89.32-7.5.96-10.81.63-3.33,1.59-6.35,2.83-9.05,1.24-2.72,2.78-5.11,4.61-7.19,1.83-2.07,3.93-3.82,6.31-5.21,2.38-1.4,4.99-2.47,7.86-3.2,2.87-.73,6.01-1.1,9.39-1.1,4.72,0,8.84.72,12.34,2.17,3.51,1.45,6.45,3.63,8.8,6.54,2.35,2.91,4.11,6.52,5.26,10.84,1.15,4.32,1.73,9.39,1.73,15.21v65.51c0,1.56,1.26,2.82,2.82,2.82h22.77c1.56,0,2.82-1.26,2.82-2.82v-68.34c0-9.01-.97-17.07-2.91-24.17h.01Z"/><path class="cls-1" d="M1314.23,84.18c-2.83-8.07-6.87-14.92-12.09-20.61-5.23-5.68-11.53-10.06-18.89-13.16-7.36-3.09-15.59-4.64-24.68-4.64s-17.52,1.57-25.07,4.73c-7.55,3.15-14.02,7.62-19.42,13.39-5.4,5.78-9.57,12.69-12.54,20.75-2.96,8.07-4.44,16.99-4.44,26.8s1.49,18.83,4.48,26.94c2.98,8.12,7.21,15.06,12.68,20.84,5.47,5.78,12.02,10.25,19.65,13.41,7.62,3.16,16.1,4.75,25.41,4.75,7.43,0,14.36-1.02,20.77-3.09s12.14-5.04,17.18-8.95c5.03-3.91,9.32-8.65,12.85-14.24,2.91-4.6,5.18-9.71,6.83-15.32.53-1.82-.81-3.65-2.71-3.65h-21.85c-1.13,0-2.14.67-2.58,1.69-1.21,2.82-2.64,5.35-4.3,7.57-1.96,2.66-4.2,4.89-6.73,6.68-2.53,1.8-5.36,3.14-8.5,4.02-3.12.89-6.55,1.33-10.24,1.33-5.44,0-10.33-.94-14.69-2.81s-8.07-4.56-11.13-8.07c-3.06-3.51-5.4-7.76-7.06-12.76-.83-2.58-1.47-5.34-1.87-8.24-.15.11-.4.05-.44-.19-1.06-5.79-2.02-15.75,1.59-26.02.03-.05.04-.11.05-.16.18-.67.35-1.34.56-2,1.57-5.06,3.82-9.34,6.74-12.88,2.92-3.53,6.49-6.22,10.67-8.07,4.19-1.85,8.94-2.78,14.26-2.78s9.89.92,13.9,2.74c4.02,1.83,7.4,4.53,10.14,8.09,2.73,3.57,4.8,7.97,6.22,13.19.25.94.48,1.88.68,2.87.38,1.77-.95,3.44-2.76,3.44h-49.47c-.72,0-1.42.28-1.95.77-1.43,1.34-2.88,2.95-4.24,4.87-2.78,3.94-4.26,7.94-5.06,11.25-.43,1.78.92,3.49,2.76,3.49h86.47c1.48,0,2.71-1.15,2.82-2.63.05-.68.09-1.35.11-2.01.06-1.47.09-2.95.09-4.43,0-9.93-1.4-18.91-4.24-26.97v.05Z"/><path class="cls-1" d="M1416.98,136.27c-1.54,3.22-3.57,6.03-6.06,8.41-2.49,2.38-5.47,4.24-8.95,5.58-3.46,1.34-7.47,2.01-12,2.01-5.25,0-9.95-.92-14.12-2.77-4.17-1.85-7.71-4.53-10.61-8.02-2.91-3.49-5.13-7.75-6.65-12.8-1.53-5.03-2.3-10.75-2.3-17.13s.77-12.09,2.3-17.12c1.53-5.04,3.74-9.31,6.65-12.8,2.91-3.49,6.45-6.16,10.61-7.98,4.17-1.83,8.88-2.74,14.12-2.74,4.53,0,8.53.67,12,2.01,3.46,1.34,6.46,3.19,8.95,5.55,2.49,2.35,4.5,5.16,6.06,8.41,1.25,2.62,2.23,5.39,2.93,8.32.3,1.26,1.44,2.15,2.73,2.15h22.78c1.76,0,3.1-1.58,2.79-3.3-1.1-6.14-2.97-11.88-5.59-17.23-3.1-6.31-7.16-11.75-12.18-16.34-5.02-4.59-10.94-8.18-17.75-10.79-6.81-2.6-14.41-3.91-22.78-3.91-6.16,0-11.97.71-17.44,2.12-5.47,1.42-10.51,3.45-15.11,6.11-4.6,2.66-8.74,5.92-12.4,9.76-3.65,3.86-6.76,8.22-9.31,13.1-2.55,4.89-4.5,10.24-5.85,16.06-1.37,5.82-2.04,12.02-2.04,18.62s.68,12.82,2.04,18.65c1.35,5.84,3.31,11.18,5.85,16.06,2.54,4.87,5.65,9.23,9.34,13.07,3.68,3.86,7.81,7.12,12.39,9.8,4.59,2.68,9.62,4.73,15.08,6.14,5.47,1.42,11.28,2.12,17.44,2.12,8.37,0,15.96-1.3,22.76-3.91,6.79-2.6,12.71-6.2,17.75-10.79,5.03-4.59,9.1-10.03,12.2-16.34,2.63-5.35,4.49-11.1,5.59-17.23.3-1.72-1.04-3.3-2.79-3.3h-22.78c-1.3,0-2.43.89-2.73,2.15-.71,2.93-1.68,5.69-2.93,8.29v-.03Z"/><path class="cls-1" d="M1534.23,49.17c-6.42,0-12.15.97-17.18,2.92-5.04,1.95-9.43,4.74-13.16,8.41-3.73,3.67-6.84,8.12-9.32,13.36l-.08.15c-1.26,2.72-5.34,1.86-5.34-1.15v-20.86c0-1.56-1.26-2.82-2.82-2.82h-22.77c-1.56,0-2.82,1.26-2.82,2.82v119.18c0,1.56,1.26,2.82,2.82,2.82h22.77c1.56,0,2.82-1.26,2.82-2.82v-56.62c0-6.56.7-12.26,2.1-17.09,1.39-4.83,3.72-8.84,6.97-12,3.25-3.17,7.57-5.54,12.99-7.08s12.15-2.31,20.19-2.31h6.51c1.56,0,2.82-1.26,2.82-2.82v-21.24c0-1.56-1.26-2.82-2.82-2.82h-3.68v-.03Z"/><path class="cls-1" d="M1662.72,84.18c-2.83-8.07-6.87-14.92-12.09-20.61-5.23-5.68-11.53-10.06-18.89-13.16-7.36-3.09-15.59-4.64-24.68-4.64s-17.54,1.57-25.08,4.73c-7.55,3.15-14.02,7.62-19.42,13.39-5.4,5.78-9.57,12.69-12.54,20.75-2.96,8.07-4.44,16.99-4.44,26.8s1.49,18.83,4.48,26.94c2.98,8.12,7.21,15.06,12.68,20.84,5.47,5.78,12.02,10.25,19.65,13.41,7.62,3.16,16.1,4.75,25.41,4.75,7.43,0,14.36-1.02,20.77-3.09,6.41-2.06,12.15-5.04,17.18-8.95,5.03-3.91,9.32-8.65,12.85-14.24,2.91-4.6,5.18-9.71,6.83-15.32.53-1.82-.81-3.65-2.71-3.65h-21.85c-1.13,0-2.14.67-2.58,1.69-1.21,2.82-2.64,5.35-4.3,7.57-1.96,2.66-4.2,4.89-6.73,6.68-2.53,1.8-5.36,3.14-8.5,4.02-3.12.89-6.55,1.33-10.24,1.33-5.44,0-10.33-.94-14.69-2.81-4.36-1.87-8.07-4.56-11.13-8.07-3.06-3.51-5.4-7.76-7.04-12.76-.7-2.14-1.25-4.39-1.64-6.75l-.49-1.61-.04-.14c-.53-2.91-1.02-6.84-.94-11.34v-.2c-.08-8.34,1.77-16.71,6.04-23.95.04-.06.08-.13.11-.19,1.05-1.93,2.24-3.7,3.58-5.31.11-.13.21-.27.33-.39.59-.71,1.23-1.38,1.9-2.01,2.45-2.38,5.27-4.26,8.45-5.66,4.19-1.85,8.95-2.78,14.26-2.78s9.89.92,13.9,2.74c4.02,1.83,7.4,4.53,10.14,8.09,2.73,3.57,4.8,7.97,6.22,13.19.25.94.48,1.88.68,2.87.38,1.77-.95,3.44-2.76,3.44h-49.3c-.72,0-1.42.28-1.95.77-1.44,1.34-2.88,2.95-4.24,4.87-2.78,3.94-4.26,7.94-5.06,11.25-.43,1.78.92,3.49,2.76,3.49h86.32c1.48,0,2.71-1.15,2.82-2.63.05-.68.09-1.35.11-2.01.05-1.47.08-2.95.08-4.43,0-9.93-1.4-18.91-4.24-26.97v.04Z"/><path class="cls-1" d="M1793.4,84.18c-2.83-8.07-6.87-14.92-12.09-20.61-5.22-5.68-11.52-10.06-18.88-13.16-7.36-3.09-15.59-4.64-24.68-4.64s-17.54,1.57-25.08,4.73c-7.55,3.15-14.01,7.62-19.42,13.39-5.4,5.78-9.58,12.69-12.54,20.75-2.96,8.07-4.44,16.99-4.44,26.8s1.49,18.83,4.46,26.94c2.98,8.12,7.22,15.06,12.68,20.84,5.47,5.78,12.02,10.25,19.64,13.41,7.62,3.16,16.1,4.75,25.43,4.75,7.43,0,14.36-1.02,20.77-3.09,6.41-2.06,12.14-5.04,17.18-8.95,5.03-3.91,9.32-8.65,12.85-14.24,2.91-4.6,5.18-9.72,6.83-15.32.53-1.82-.81-3.64-2.71-3.64h-21.85c-1.13,0-2.14.67-2.58,1.69-1.21,2.82-2.66,5.34-4.29,7.56-1.96,2.66-4.21,4.89-6.74,6.68-2.53,1.8-5.35,3.14-8.48,4.02-3.12.89-6.55,1.33-10.25,1.33-5.44,0-10.33-.94-14.68-2.81-4.36-1.87-8.07-4.56-11.13-8.07-3.06-3.51-5.41-7.76-7.06-12.76-.86-2.6-1.49-5.37-1.9-8.31h0s-.04-.08-.05-.13c-.91-4.94-1.73-12.93.29-21.56h0c.38-2.31.9-4.53,1.54-6.63.46-1.49.99-2.9,1.56-4.25.01-.05.03-.09.05-.13,1.38-3.21,3.08-6.04,5.12-8.51.62-.76,1.28-1.47,1.96-2.15l.03-.03c.1-.1.21-.2.32-.3,2.44-2.34,5.23-4.2,8.38-5.59,4.19-1.85,8.94-2.78,14.26-2.78s9.89.92,13.9,2.74c4.02,1.83,7.4,4.53,10.13,8.09,2.74,3.57,4.82,7.97,6.23,13.19.25.94.48,1.88.68,2.87.38,1.77-.95,3.44-2.76,3.44h-49.1c-.72,0-1.42.28-1.95.77-1.44,1.34-2.88,2.95-4.24,4.87-2.78,3.94-4.26,7.94-5.06,11.25-.43,1.78.92,3.48,2.76,3.48h86.1c1.48,0,2.71-1.15,2.82-2.63.05-.68.09-1.35.11-2.01.06-1.47.09-2.95.09-4.43,0-9.93-1.42-18.91-4.24-26.97v.06Z"/><path class="cls-1" d="M1863.91,110.45l56.81-56.45c1.78-1.78.53-4.83-2-4.83h-26.67c-.76,0-1.49.3-2.02.85l-47.14,48.24c-1.77,1.81-4.84.56-4.84-1.97V9.26c0-1.56-1.26-2.82-2.82-2.82h-22.77c-1.56,0-2.82,1.26-2.82,2.82v161.91c0,1.56,1.26,2.82,2.82,2.82h22.77c1.56,0,2.82-1.26,2.82-2.82v-40.7c0-2.45,2.91-3.74,4.73-2.09l49.37,44.88c.52.47,1.2.73,1.9.73h29.51c2.6,0,3.82-3.21,1.87-4.94l-61.42-54.49c-1.21-1.09-1.28-2.97-.11-4.12h.01Z"/><path class="cls-1" d="M151.71,141.47h373.37c1.58,0,2.96-1.07,3.35-2.6.08-.28.13-.54.18-.78,0,0,.83-4.05-.47-8.09-.23-.73-.49-1.21-.61-1.42h0c-.61-1.05-1.74-1.67-2.96-1.67H151.79c-15.65-.14-30.29-6.63-39.11-17.26h-17.47c1.61,3.14,3.57,6.12,5.9,8.96,11.72,14.27,30.16,22.64,50.61,22.87h-.01Z"/><path class="cls-1" d="M15.22,43.73c-1.45,7.65,1.09,15.94,7.14,23.38,8.89,10.77,23.67,17.33,39.47,17.47h430.64c16.02.21,30.88,5.39,42.17,14.57,3.14,2.48,5.97,5.25,8.45,8.37,4.88,5.9,8.16,12.61,9.69,19.37,1.16,4.88,1.45,9.76.66,14.57,0,.44-.08.87-.15,1.31-4.3,23.16-30.37,41-59.72,41H3.73c-2.06,0-3.73-1.67-3.73-3.73v-7.12c0-2.06,1.67-3.73,3.73-3.73h488.75c24.69.66,42.68-13.83,46.17-27.75.05-.16.11-.34.16-.52.09-.29.16-.59.2-.87.8-4.3.29-8.81-1.38-13.19-1.16-3.5-3.2-6.92-5.83-10.19-8.81-10.79-23.59-17.33-39.4-17.55H61.76c-16.02-.14-30.88-5.32-42.17-14.49-3.14-2.48-5.97-5.32-8.45-8.38C2.41,65.7-1.3,52.8.89,41,5.26,17.84,31.33,0,60.6,0h489.92c2.06,0,3.73,1.67,3.73,3.73v7.12c0,2.06-1.67,3.73-3.73,3.73H61.76c-25.64-.51-43.85,14.78-46.54,29.13v.03Z"/><path class="cls-1" d="M150.62,42.36c-25.27,0-48.21,13.25-56.73,31.75h17.04c7.65-9.55,21.92-17.18,39.69-17.18h486.12c2.06,0,3.73-1.67,3.73-3.73v-7.12c0-2.06-1.67-3.73-3.73-3.73H150.62Z"/><path class="cls-1" d="M564.01,141.47h72.74c2.06,0,3.73-1.67,3.73-3.73v-7.12c0-2.06-1.67-3.73-3.73-3.73h-73.32c1.02,4.96,1.24,9.84.58,14.57h0Z"/></g><path class="cls-1" d="M1284.83,218.96l16.76,44.27,17.4-44.27h7.07v50.49h-4.81v-43.63h-.14l-17.26,43.63h-4.53l-16.62-43.63h-.14v43.63h-4.81v-50.49h7.07Z"/><path class="cls-1" d="M1337.87,218.96v7.14h-4.46v-7.14h4.46ZM1337.87,232.96v36.49h-4.46v-36.49h4.46Z"/><path class="cls-1" d="M1349.04,232.96v6.29h.14c.85-2.22,2.36-4,4.53-5.34,2.17-1.34,4.55-2.02,7.14-2.02s4.68.33,6.4.99c1.72.66,3.1,1.59,4.14,2.79,1.04,1.2,1.77,2.68,2.19,4.42.42,1.74.64,3.7.64,5.87v23.48h-4.46v-22.77c0-1.56-.14-3.01-.42-4.35-.28-1.34-.78-2.51-1.49-3.5-.71-.99-1.66-1.77-2.86-2.33s-2.7-.85-4.49-.85-3.38.32-4.77.95c-1.39.64-2.57,1.51-3.54,2.62-.97,1.11-1.72,2.43-2.26,3.96-.54,1.53-.84,3.19-.88,4.99v21.29h-4.46v-36.49h4.46Z"/><path class="cls-1" d="M1385.39,218.96v7.14h-4.46v-7.14h4.46ZM1385.39,232.96v36.49h-4.46v-36.49h4.46Z"/><path class="cls-1" d="M1413.18,240.07c-.52-1.01-1.21-1.85-2.09-2.51-.87-.66-1.87-1.14-3.01-1.45-1.13-.31-2.33-.46-3.61-.46-.99,0-1.99.11-3,.32-1.01.21-1.95.57-2.79,1.06s-1.53,1.14-2.05,1.94c-.52.8-.78,1.79-.78,2.97,0,.99.25,1.83.74,2.51.5.68,1.12,1.26,1.87,1.73.75.47,1.58.86,2.47,1.17.9.31,1.72.55,2.48.74l5.94,1.34c1.27.19,2.53.53,3.78,1.03,1.25.5,2.36,1.14,3.32,1.94.97.8,1.76,1.79,2.37,2.97.61,1.18.92,2.57.92,4.17,0,1.98-.45,3.67-1.34,5.06-.9,1.39-2.04,2.52-3.43,3.39-1.39.87-2.96,1.5-4.7,1.87-1.74.38-3.46.57-5.16.57-4.29,0-7.77-1.01-10.43-3.04-2.66-2.03-4.18-5.28-4.56-9.76h4.46c.19,3.02,1.28,5.29,3.29,6.82,2,1.53,4.49,2.3,7.46,2.3,1.08,0,2.2-.12,3.36-.35,1.15-.24,2.23-.64,3.22-1.2.99-.57,1.8-1.28,2.44-2.16.64-.87.96-1.94.96-3.22,0-1.08-.22-1.99-.67-2.72-.45-.73-1.05-1.34-1.8-1.84-.75-.49-1.62-.91-2.58-1.24-.97-.33-1.94-.61-2.93-.85l-5.73-1.27c-1.46-.38-2.81-.81-4.03-1.31-1.23-.5-2.3-1.11-3.22-1.84-.92-.73-1.64-1.63-2.16-2.69-.52-1.06-.78-2.37-.78-3.92,0-1.84.41-3.42,1.24-4.74.82-1.32,1.9-2.38,3.22-3.18,1.32-.8,2.79-1.39,4.42-1.77,1.63-.38,3.24-.57,4.84-.57,1.84,0,3.55.24,5.13.71,1.58.47,2.97,1.2,4.17,2.19,1.2.99,2.16,2.22,2.86,3.68.71,1.46,1.11,3.18,1.2,5.16h-4.46c-.05-1.37-.33-2.56-.85-3.57Z"/><path class="cls-1" d="M1438.92,232.96v3.75h-7.43v24.61c0,1.46.2,2.61.6,3.43.4.83,1.4,1.29,3.01,1.38,1.27,0,2.55-.07,3.82-.21v3.75c-.66,0-1.32.02-1.98.07-.66.05-1.32.07-1.98.07-2.97,0-5.05-.58-6.22-1.73-1.18-1.15-1.74-3.29-1.7-6.4v-24.96h-6.36v-3.75h6.36v-10.96h4.46v10.96h7.43Z"/><path class="cls-1" d="M1446.87,257.4c.45,1.72,1.17,3.27,2.16,4.63.99,1.37,2.24,2.5,3.75,3.39,1.51.9,3.32,1.34,5.45,1.34,3.25,0,5.8-.85,7.64-2.55,1.84-1.7,3.11-3.96,3.82-6.79h4.46c-.94,4.15-2.68,7.35-5.2,9.62-2.52,2.26-6.09,3.39-10.71,3.39-2.88,0-5.36-.51-7.46-1.52-2.1-1.01-3.81-2.4-5.13-4.17-1.32-1.77-2.3-3.82-2.93-6.15-.64-2.33-.96-4.8-.96-7.39,0-2.4.32-4.76.96-7.07.64-2.31,1.61-4.37,2.93-6.19,1.32-1.81,3.03-3.28,5.13-4.38,2.1-1.11,4.58-1.66,7.46-1.66s5.42.59,7.5,1.77c2.07,1.18,3.76,2.72,5.06,4.63,1.3,1.91,2.23,4.1,2.79,6.58s.8,4.99.71,7.53h-28.08c0,1.6.22,3.27.67,4.99ZM1468.94,243.78c-.54-1.56-1.31-2.93-2.3-4.14-.99-1.2-2.19-2.17-3.61-2.9-1.41-.73-3.02-1.1-4.81-1.1s-3.46.37-4.88,1.1c-1.41.73-2.62,1.7-3.61,2.9s-1.78,2.59-2.37,4.17c-.59,1.58-.98,3.19-1.17,4.84h23.62c-.05-1.7-.34-3.32-.88-4.88ZM1454.48,217.9l7.43,9.97h-3.61l-9.33-9.97h5.52Z"/><path class="cls-1" d="M1482.62,232.96v8.56h.14c1.13-2.97,2.89-5.26,5.27-6.86,2.38-1.6,5.22-2.33,8.52-2.19v4.46c-2.03-.09-3.87.18-5.52.81-1.65.64-3.08,1.54-4.28,2.72-1.2,1.18-2.13,2.58-2.79,4.21-.66,1.63-.99,3.41-.99,5.34v19.45h-4.46v-36.49h4.1Z"/><path class="cls-1" d="M1501.04,257.4c.45,1.72,1.17,3.27,2.16,4.63.99,1.37,2.24,2.5,3.75,3.39,1.51.9,3.32,1.34,5.45,1.34,3.25,0,5.8-.85,7.64-2.55,1.84-1.7,3.11-3.96,3.82-6.79h4.46c-.94,4.15-2.68,7.35-5.2,9.62-2.52,2.26-6.09,3.39-10.71,3.39-2.88,0-5.36-.51-7.46-1.52-2.1-1.01-3.81-2.4-5.13-4.17-1.32-1.77-2.3-3.82-2.93-6.15-.64-2.33-.96-4.8-.96-7.39,0-2.4.32-4.76.96-7.07.64-2.31,1.61-4.37,2.93-6.19,1.32-1.81,3.03-3.28,5.13-4.38,2.1-1.11,4.58-1.66,7.46-1.66s5.42.59,7.5,1.77c2.07,1.18,3.76,2.72,5.06,4.63,1.3,1.91,2.23,4.1,2.79,6.58s.8,4.99.71,7.53h-28.08c0,1.6.22,3.27.67,4.99ZM1523.11,243.78c-.54-1.56-1.31-2.93-2.3-4.14-.99-1.2-2.19-2.17-3.61-2.9-1.41-.73-3.02-1.1-4.81-1.1s-3.46.37-4.88,1.1c-1.41.73-2.62,1.7-3.61,2.9s-1.78,2.59-2.37,4.17c-.59,1.58-.98,3.19-1.17,4.84h23.62c-.05-1.7-.34-3.32-.88-4.88Z"/><path class="cls-1" d="M1583.47,218.96v4.1h-27.23v18.25h24.19v4.1h-24.19v24.04h-4.81v-50.49h32.04Z"/><path class="cls-1" d="M1590.89,232.96v8.56h.14c1.13-2.97,2.89-5.26,5.27-6.86,2.38-1.6,5.22-2.33,8.52-2.19v4.46c-2.03-.09-3.87.18-5.52.81-1.65.64-3.08,1.54-4.28,2.72-1.2,1.18-2.13,2.58-2.79,4.21-.66,1.63-.99,3.41-.99,5.34v19.45h-4.46v-36.49h4.1Z"/><path class="cls-1" d="M1608.22,238.62c.75-1.56,1.78-2.83,3.08-3.82s2.82-1.72,4.56-2.19c1.74-.47,3.68-.71,5.8-.71,1.6,0,3.21.15,4.81.46,1.6.31,3.04.88,4.31,1.73,1.27.85,2.31,2.04,3.11,3.57.8,1.53,1.2,3.52,1.2,5.98v19.38c0,1.79.87,2.69,2.62,2.69.52,0,.99-.09,1.41-.28v3.75c-.52.09-.98.17-1.38.21-.4.05-.91.07-1.52.07-1.13,0-2.04-.15-2.72-.46-.68-.31-1.21-.74-1.59-1.31-.38-.57-.62-1.24-.74-2.02-.12-.78-.18-1.64-.18-2.58h-.14c-.8,1.18-1.62,2.23-2.44,3.15-.83.92-1.75,1.69-2.76,2.3-1.01.61-2.17,1.08-3.47,1.41-1.3.33-2.84.5-4.63.5-1.7,0-3.29-.2-4.77-.6-1.49-.4-2.78-1.04-3.89-1.91-1.11-.87-1.98-1.98-2.62-3.32s-.96-2.93-.96-4.77c0-2.55.57-4.54,1.7-5.98,1.13-1.44,2.63-2.53,4.49-3.29,1.86-.75,3.96-1.28,6.29-1.59,2.33-.31,4.7-.6,7.11-.88.94-.09,1.77-.21,2.48-.35s1.3-.39,1.77-.74c.47-.35.84-.84,1.1-1.45.26-.61.39-1.41.39-2.4,0-1.51-.25-2.75-.74-3.71-.5-.97-1.18-1.73-2.05-2.3-.87-.57-1.89-.95-3.04-1.17-1.16-.21-2.39-.32-3.71-.32-2.83,0-5.14.67-6.93,2.02-1.79,1.34-2.73,3.5-2.83,6.47h-4.46c.14-2.12.59-3.96,1.34-5.52ZM1630.49,249.51c-.28.52-.83.9-1.63,1.13-.8.24-1.51.4-2.12.5-1.89.33-3.83.63-5.83.88-2,.26-3.83.65-5.48,1.17-1.65.52-3.01,1.26-4.07,2.23-1.06.97-1.59,2.35-1.59,4.14,0,1.13.22,2.13.67,3.01.45.87,1.05,1.63,1.8,2.26.75.64,1.63,1.12,2.62,1.45.99.33,2,.49,3.04.49,1.7,0,3.32-.26,4.88-.78,1.56-.52,2.91-1.27,4.07-2.26,1.15-.99,2.07-2.19,2.76-3.61.68-1.41,1.03-3.02,1.03-4.81v-5.8h-.14Z"/><path class="cls-1" d="M1646.62,232.96v6.29h.14c.85-2.22,2.36-4,4.53-5.34,2.17-1.34,4.55-2.02,7.14-2.02s4.68.33,6.4.99c1.72.66,3.1,1.59,4.14,2.79,1.04,1.2,1.77,2.68,2.19,4.42.42,1.74.64,3.7.64,5.87v23.48h-4.46v-22.77c0-1.56-.14-3.01-.42-4.35-.28-1.34-.78-2.51-1.49-3.5-.71-.99-1.66-1.77-2.86-2.33s-2.7-.85-4.49-.85-3.38.32-4.77.95c-1.39.64-2.57,1.51-3.54,2.62-.97,1.11-1.72,2.43-2.26,3.96-.54,1.53-.84,3.19-.88,4.99v21.29h-4.46v-36.49h4.46Z"/><path class="cls-1" d="M1700.79,237.98c-1.65-1.56-3.96-2.33-6.93-2.33-2.12,0-3.98.45-5.59,1.34-1.6.9-2.94,2.08-4,3.54-1.06,1.46-1.86,3.12-2.4,4.99-.54,1.86-.81,3.76-.81,5.69s.27,3.83.81,5.69c.54,1.86,1.34,3.52,2.4,4.99,1.06,1.46,2.39,2.64,4,3.54,1.6.9,3.46,1.34,5.59,1.34,1.37,0,2.66-.26,3.89-.78,1.23-.52,2.31-1.24,3.25-2.16s1.72-2.02,2.33-3.29c.61-1.27.99-2.66,1.13-4.17h4.46c-.61,4.43-2.24,7.89-4.88,10.36-2.64,2.48-6.04,3.71-10.18,3.71-2.78,0-5.25-.51-7.39-1.52-2.15-1.01-3.95-2.39-5.41-4.14-1.46-1.74-2.57-3.78-3.32-6.12-.75-2.33-1.13-4.82-1.13-7.46s.38-5.13,1.13-7.46c.75-2.33,1.86-4.37,3.32-6.12,1.46-1.74,3.26-3.13,5.41-4.17,2.14-1.04,4.61-1.56,7.39-1.56,3.91,0,7.22,1.04,9.94,3.11,2.71,2.08,4.32,5.21,4.84,9.41h-4.46c-.61-2.73-1.75-4.88-3.39-6.44Z"/><path class="cls-1" d="M1736.18,233.46c2.14,1.04,3.95,2.43,5.41,4.17,1.46,1.74,2.57,3.78,3.32,6.12.75,2.33,1.13,4.82,1.13,7.46s-.38,5.13-1.13,7.46c-.75,2.33-1.86,4.37-3.32,6.12-1.46,1.74-3.27,3.12-5.41,4.14-2.15,1.01-4.61,1.52-7.39,1.52s-5.25-.51-7.39-1.52c-2.15-1.01-3.95-2.39-5.41-4.14-1.46-1.74-2.57-3.78-3.32-6.12-.75-2.33-1.13-4.82-1.13-7.46s.38-5.13,1.13-7.46c.75-2.33,1.86-4.37,3.32-6.12,1.46-1.74,3.26-3.13,5.41-4.17,2.14-1.04,4.61-1.56,7.39-1.56s5.25.52,7.39,1.56ZM1723.2,236.99c-1.6.9-2.94,2.08-4,3.54-1.06,1.46-1.86,3.12-2.4,4.99-.54,1.86-.81,3.76-.81,5.69s.27,3.83.81,5.69c.54,1.86,1.34,3.52,2.4,4.99,1.06,1.46,2.39,2.64,4,3.54,1.6.9,3.46,1.34,5.59,1.34s3.98-.45,5.59-1.34c1.6-.9,2.94-2.07,4-3.54,1.06-1.46,1.86-3.12,2.4-4.99.54-1.86.81-3.76.81-5.69s-.27-3.83-.81-5.69c-.54-1.86-1.34-3.52-2.4-4.99-1.06-1.46-2.39-2.64-4-3.54-1.6-.9-3.46-1.34-5.59-1.34s-3.98.45-5.59,1.34Z"/><path class="cls-1" d="M1755.03,232.96v6.93h.14c1.04-2.55,2.72-4.51,5.06-5.91,2.33-1.39,4.99-2.09,7.96-2.09,2.78,0,5.2.52,7.25,1.56,2.05,1.04,3.76,2.44,5.13,4.21,1.37,1.77,2.38,3.82,3.04,6.15.66,2.33.99,4.8.99,7.39s-.33,5.06-.99,7.39c-.66,2.33-1.67,4.38-3.04,6.15-1.37,1.77-3.08,3.16-5.13,4.17s-4.47,1.52-7.25,1.52c-1.32,0-2.64-.17-3.96-.5-1.32-.33-2.55-.82-3.68-1.49-1.13-.66-2.13-1.48-3-2.48-.87-.99-1.54-2.14-2.02-3.46h-.14v20.37h-4.46v-49.93h4.1ZM1779.46,245.59c-.45-1.86-1.16-3.52-2.12-4.99-.97-1.46-2.2-2.65-3.71-3.57s-3.32-1.38-5.45-1.38c-2.45,0-4.5.42-6.15,1.27-1.65.85-2.97,1.98-3.96,3.39-.99,1.41-1.69,3.06-2.09,4.95-.4,1.89-.6,3.87-.6,5.94,0,1.89.22,3.76.67,5.62.45,1.86,1.18,3.52,2.19,4.99,1.01,1.46,2.33,2.65,3.96,3.57,1.63.92,3.62,1.38,5.98,1.38,2.12,0,3.94-.46,5.45-1.38s2.75-2.11,3.71-3.57c.97-1.46,1.67-3.12,2.12-4.99.45-1.86.67-3.74.67-5.62s-.22-3.76-.67-5.62Z"/><path class="cls-1" d="M1794.13,218.96v20.3h.14c.85-2.22,2.36-4,4.53-5.34,2.17-1.34,4.55-2.02,7.14-2.02s4.68.33,6.4.99c1.72.66,3.1,1.59,4.14,2.79,1.04,1.2,1.77,2.68,2.19,4.42.42,1.74.64,3.7.64,5.87v23.48h-4.46v-22.77c0-1.56-.14-3.01-.42-4.35-.28-1.34-.78-2.51-1.49-3.5-.71-.99-1.66-1.77-2.86-2.33s-2.7-.85-4.49-.85-3.38.32-4.77.95c-1.39.64-2.57,1.51-3.54,2.62-.97,1.11-1.72,2.43-2.26,3.96-.54,1.53-.84,3.19-.88,4.99v21.29h-4.46v-50.49h4.46Z"/><path class="cls-1" d="M1848.76,233.46c2.14,1.04,3.95,2.43,5.41,4.17,1.46,1.74,2.57,3.78,3.32,6.12.75,2.33,1.13,4.82,1.13,7.46s-.38,5.13-1.13,7.46c-.75,2.33-1.86,4.37-3.32,6.12-1.46,1.74-3.27,3.12-5.41,4.14-2.15,1.01-4.61,1.52-7.39,1.52s-5.25-.51-7.39-1.52c-2.15-1.01-3.95-2.39-5.41-4.14-1.46-1.74-2.57-3.78-3.32-6.12-.75-2.33-1.13-4.82-1.13-7.46s.38-5.13,1.13-7.46c.75-2.33,1.86-4.37,3.32-6.12,1.46-1.74,3.26-3.13,5.41-4.17,2.14-1.04,4.61-1.56,7.39-1.56s5.25.52,7.39,1.56ZM1835.79,236.99c-1.6.9-2.94,2.08-4,3.54-1.06,1.46-1.86,3.12-2.4,4.99-.54,1.86-.81,3.76-.81,5.69s.27,3.83.81,5.69c.54,1.86,1.34,3.52,2.4,4.99,1.06,1.46,2.39,2.64,4,3.54,1.6.9,3.46,1.34,5.59,1.34s3.98-.45,5.59-1.34c1.6-.9,2.94-2.07,4-3.54,1.06-1.46,1.86-3.12,2.4-4.99.54-1.86.81-3.76.81-5.69s-.27-3.83-.81-5.69c-.54-1.86-1.34-3.52-2.4-4.99-1.06-1.46-2.39-2.64-4-3.54-1.6-.9-3.46-1.34-5.59-1.34s-3.98.45-5.59,1.34Z"/><path class="cls-1" d="M1867.89,232.96v6.29h.14c.85-2.22,2.36-4,4.53-5.34,2.17-1.34,4.55-2.02,7.14-2.02s4.68.33,6.4.99c1.72.66,3.1,1.59,4.14,2.79,1.04,1.2,1.77,2.68,2.19,4.42.42,1.74.64,3.7.64,5.87v23.48h-4.46v-22.77c0-1.56-.14-3.01-.42-4.35-.28-1.34-.78-2.51-1.49-3.5-.71-.99-1.66-1.77-2.86-2.33s-2.7-.85-4.49-.85-3.38.32-4.77.95c-1.39.64-2.57,1.51-3.54,2.62-.97,1.11-1.72,2.43-2.26,3.96-.54,1.53-.84,3.19-.88,4.99v21.29h-4.46v-36.49h4.46Z"/><path class="cls-1" d="M1903,257.4c.45,1.72,1.17,3.27,2.16,4.63.99,1.37,2.24,2.5,3.75,3.39,1.51.9,3.32,1.34,5.45,1.34,3.25,0,5.8-.85,7.64-2.55,1.84-1.7,3.11-3.96,3.82-6.79h4.46c-.94,4.15-2.68,7.35-5.2,9.62-2.52,2.26-6.09,3.39-10.71,3.39-2.88,0-5.36-.51-7.46-1.52-2.1-1.01-3.81-2.4-5.13-4.17-1.32-1.77-2.3-3.82-2.93-6.15-.64-2.33-.96-4.8-.96-7.39,0-2.4.32-4.76.96-7.07.64-2.31,1.61-4.37,2.93-6.19,1.32-1.81,3.03-3.28,5.13-4.38,2.1-1.11,4.58-1.66,7.46-1.66s5.42.59,7.5,1.77c2.07,1.18,3.76,2.72,5.06,4.63,1.3,1.91,2.23,4.1,2.79,6.58s.8,4.99.71,7.53h-28.08c0,1.6.22,3.27.67,4.99ZM1925.07,243.78c-.54-1.56-1.31-2.93-2.3-4.14-.99-1.2-2.19-2.17-3.61-2.9-1.41-.73-3.02-1.1-4.81-1.1s-3.46.37-4.88,1.1c-1.41.73-2.62,1.7-3.61,2.9s-1.78,2.59-2.37,4.17c-.59,1.58-.98,3.19-1.17,4.84h23.62c-.05-1.7-.34-3.32-.88-4.88Z"/></svg>