<?xml version="1.0" encoding="UTF-8"?><svg id="a" xmlns="http://www.w3.org/2000/svg" viewBox="0 0 1360 592"><path d="M296.58,362.47c-1.21-2.94-2.84-5.47-4.87-7.57-2.03-2.1-4.39-3.85-7.08-5.25-2.69-1.4-5.5-2.55-8.43-3.47-2.93-.92-5.91-1.66-8.92-2.24-3.02-.57-5.9-1.08-8.64-1.53l-6.63-1.08c-1.83-.33-3.66-.64-5.48-.94-1.82-.3-3.55-.67-5.19-1.11-1.64-.43-3.16-.94-4.57-1.51-1.41-.57-2.64-1.26-3.68-2.08s-1.85-1.75-2.44-2.82c-.58-1.07-.88-2.32-.88-3.76,0-1.83.51-3.5,1.54-5.01,1.02-1.5,2.46-2.8,4.33-3.87,1.87-1.08,4.1-1.92,6.72-2.5s5.48-.88,8.61-.88c3.55,0,6.68.38,9.4,1.13,2.71.75,5,1.82,6.85,3.2,1.85,1.39,3.24,3.06,4.17,5.01.54,1.13.93,2.35,1.15,3.64.3,1.69,1.73,2.94,3.45,2.94h16.7c1.29,0,2.33-1.08,2.25-2.36-.26-4.24-1.22-8.12-2.88-11.64-1.97-4.16-4.85-7.7-8.63-10.62-3.79-2.91-8.43-5.16-13.93-6.72-5.5-1.56-11.77-2.34-18.8-2.34s-12.72.71-18.06,2.14c-5.34,1.43-9.85,3.46-13.57,6.11-3.71,2.65-6.56,5.84-8.55,9.61-1.98,3.76-2.97,7.96-2.97,12.62,0,3.72.58,6.95,1.76,9.67,1.17,2.72,2.74,5.06,4.71,7.03,1.96,1.97,4.23,3.63,6.79,4.96,2.55,1.34,5.23,2.45,8.03,3.34,2.8.89,5.6,1.6,8.43,2.14,2.83.55,5.47,1.02,7.93,1.44l6.67,1.17c2.13.39,4.21.77,6.25,1.15,2.03.37,3.94.81,5.75,1.31,1.8.5,3.46,1.07,4.96,1.74,1.5.66,2.8,1.44,3.87,2.34,1.08.9,1.93,1.95,2.55,3.15.62,1.2.92,2.63.92,4.28,0,2.01-.53,3.81-1.6,5.39-1.07,1.57-2.62,2.91-4.64,4.01-2.03,1.1-4.51,1.93-7.42,2.5s-6.23.86-9.97.86c-4.15,0-7.76-.36-10.84-1.08-3.09-.73-5.65-1.79-7.69-3.2-2.05-1.41-3.56-3.15-4.55-5.23-.74-1.54-1.21-3.24-1.39-5.11-.12-1.14-1.09-2.01-2.23-2.01h-17.78c-1.28,0-2.32,1.06-2.25,2.34.24,4.61,1.22,8.74,2.94,12.41,2,4.26,4.96,7.86,8.88,10.8,3.92,2.93,8.81,5.16,14.68,6.67s12.66,2.27,20.38,2.27,13.93-.69,19.62-2.07c5.68-1.39,10.45-3.4,14.32-6.04,3.86-2.65,6.79-5.89,8.79-9.74,2-3.84,3-8.25,3-13.21,0-3.97-.61-7.42-1.83-10.37Z" fill="#f0efe7"/><path d="M334.03,366.98c0,3.1.29,5.76.86,8,.57,2.24,1.43,4.09,2.59,5.55,1.16,1.46,2.64,2.55,4.44,3.27,1.8.72,3.95,1.08,6.45,1.08,1.95,0,4.27-.22,6.94-.68,1.97-.33,4.2-.79,6.7-1.39,1.41-.34,2.77.73,2.77,2.19v13.73c0,1.01-.67,1.9-1.64,2.17-3.42.94-6.67,1.65-9.75,2.13-3.56.56-6.9.84-10.03.84-5.22,0-9.82-.78-13.8-2.34-3.97-1.56-7.29-3.89-9.98-6.99-2.69-3.09-4.73-6.94-6.11-11.54-1.38-4.6-2.07-9.95-2.07-16.05v-44.5c0-1.24-1.01-2.25-2.25-2.25h-8.49c-1.24,0-2.25-1.01-2.25-2.25v-13.9c0-1.24,1.01-2.25,2.25-2.25h8.49c1.24,0,2.25-1.01,2.25-2.25v-18.4c0-1.24,1.01-2.25,2.25-2.25h18.13c1.24,0,2.25,1.01,2.25,2.25v18.4c0,1.24,1.01,2.25,2.25,2.25h26.25c1.24,0,2.25,1.01,2.25,2.25v13.9c0,1.24-1.01,2.25-2.25,2.25h-26.25c-1.24,0-2.25,1.01-2.25,2.25v44.55Z" fill="#f0efe7"/><path d="M464.1,336.64c-1.08-4.63-2.63-8.89-4.66-12.79-2.03-3.89-4.51-7.37-7.42-10.44-2.92-3.06-6.21-5.66-9.88-7.78-3.66-2.12-7.68-3.74-12.04-4.87-4.36-1.13-8.99-1.69-13.89-1.69s-9.53.56-13.88,1.69c-4.36,1.13-8.37,2.75-12.04,4.87-3.67,2.12-6.96,4.72-9.87,7.78-2.91,3.07-5.39,6.54-7.42,10.44-2.03,3.9-3.58,8.16-4.67,12.79-1.08,4.63-1.62,9.58-1.62,14.83s.55,10.21,1.62,14.86c1.08,4.65,2.64,8.91,4.67,12.79,2.03,3.88,4.51,7.35,7.44,10.41,2.93,3.07,6.22,5.67,9.87,7.8,3.65,2.13,7.65,3.77,12.02,4.89,4.36,1.13,8.99,1.69,13.88,1.69s9.57-.56,13.91-1.69c4.34-1.12,8.34-2.76,11.99-4.89,3.65-2.13,6.94-4.73,9.87-7.8,2.93-3.06,5.41-6.53,7.44-10.41,2.03-3.88,3.58-8.14,4.66-12.79,1.08-4.64,1.62-9.59,1.62-14.86s-.54-10.2-1.62-14.83ZM441.17,365.11c-1.21,4.02-2.97,7.42-5.27,10.21-2.3,2.8-5.1,4.92-8.41,6.38-3.3,1.46-7.05,2.19-11.22,2.19s-7.93-.74-11.25-2.21c-3.32-1.47-6.14-3.6-8.45-6.38-2.32-2.78-4.08-6.17-5.3-10.19-1.22-4.01-1.83-8.56-1.83-13.64s.61-9.62,1.83-13.63c1.21-4.02,2.98-7.41,5.3-10.19,2.31-2.78,5.13-4.9,8.45-6.36,3.32-1.46,7.07-2.19,11.25-2.19s7.92.73,11.22,2.19c3.31,1.46,6.11,3.58,8.41,6.36,2.3,2.78,4.06,6.17,5.27,10.19,1.22,4.01,1.83,8.56,1.83,13.63s-.61,9.63-1.83,13.64Z" fill="#f0efe7"/><path d="M561.92,325.28c-1.55-5.65-3.79-10.42-6.72-14.3-2.93-3.87-6.54-6.83-10.85-8.86-4.3-2.03-9.21-3.04-14.74-3.04-4.63,0-8.91.73-12.85,2.19-3.94,1.46-7.44,3.58-10.5,6.35-3.07,2.78-5.67,6.2-7.8,10.24-.16.31-.32.62-.48.94-1.05,2.12-4.25,1.35-4.25-1.02v-13.75c0-1.24-1.01-2.25-2.25-2.25h-18.13c-1.24,0-2.25,1.01-2.25,2.25v94.92c0,1.24,1.01,2.25,2.25,2.25h18.13c1.24,0,2.25-1.01,2.25-2.25v-50.73c0-3.1.25-5.97.77-8.61.51-2.65,1.26-5.05,2.26-7.21.99-2.16,2.21-4.07,3.68-5.73,1.46-1.65,3.13-3.04,5.03-4.15,1.89-1.12,3.98-1.96,6.27-2.55,2.29-.59,4.78-.88,7.49-.88,3.76,0,7.03.58,9.83,1.74,2.8,1.16,5.13,2.89,7.01,5.21,1.88,2.32,3.27,5.19,4.19,8.63.92,3.45,1.38,7.48,1.38,12.11v52.17c0,1.24,1.01,2.25,2.25,2.25h18.13c1.24,0,2.25-1.01,2.25-2.25v-54.43c0-7.18-.77-13.6-2.32-19.25Z" fill="#f0efe7"/><path d="M666.64,329.67c-2.26-6.42-5.47-11.89-9.62-16.41-4.16-4.52-9.18-8.02-15.04-10.49-5.86-2.46-12.41-3.69-19.66-3.69s-13.96,1.25-19.97,3.76c-6.01,2.51-11.17,6.07-15.47,10.67-4.3,4.6-7.62,10.11-9.98,16.52-2.36,6.42-3.54,13.54-3.54,21.35s1.18,15,3.56,21.46c2.37,6.46,5.74,11.99,10.1,16.59,4.36,4.6,9.58,8.16,15.65,10.68,6.07,2.52,12.82,3.79,20.24,3.79,5.92,0,11.43-.82,16.55-2.45,5.11-1.64,9.67-4.02,13.68-7.13,4.01-3.11,7.42-6.89,10.23-11.34,2.32-3.67,4.13-7.74,5.44-12.2.42-1.45-.64-2.91-2.15-2.91h-17.4c-.89,0-1.7.53-2.06,1.35-.97,2.24-2.11,4.26-3.42,6.03-1.56,2.12-3.35,3.89-5.36,5.32-2.01,1.43-4.27,2.5-6.77,3.2-2.49.71-5.21,1.06-8.16,1.06-4.33,0-8.23-.74-11.7-2.23-3.47-1.49-6.43-3.63-8.86-6.43-2.44-2.8-4.3-6.19-5.62-10.16-.67-2.06-1.17-4.25-1.49-6.56-.12.09-.32.04-.35-.15-.85-4.61-1.61-12.54,1.27-20.72.02-.04.03-.09.04-.14.14-.53.29-1.06.45-1.59,1.25-4.03,3.04-7.44,5.37-10.26,2.32-2.81,5.16-4.95,8.5-6.42,3.33-1.47,7.12-2.21,11.36-2.21s7.87.73,11.07,2.19c3.2,1.46,5.89,3.61,8.08,6.45,2.18,2.84,3.83,6.35,4.96,10.5.2.74.38,1.5.55,2.29.3,1.41-.76,2.74-2.2,2.74h-39.4c-.58,0-1.13.22-1.55.62-1.14,1.06-2.29,2.34-3.37,3.87-2.22,3.14-3.4,6.32-4.03,8.96-.34,1.42.73,2.77,2.19,2.77h68.87c1.18,0,2.16-.92,2.25-2.1.04-.54.07-1.08.09-1.6.05-1.17.07-2.34.07-3.52,0-7.9-1.12-15.07-3.38-21.48Z" fill="#f0efe7"/><path d="M748.47,371.15c-1.23,2.57-2.84,4.8-4.82,6.69-1.98,1.9-4.36,3.38-7.13,4.44-2.76,1.07-5.95,1.6-9.56,1.6-4.18,0-7.93-.74-11.25-2.21-3.32-1.47-6.14-3.6-8.45-6.38-2.32-2.78-4.08-6.17-5.3-10.19-1.21-4.01-1.83-8.56-1.83-13.64s.61-9.62,1.83-13.63c1.21-4.02,2.98-7.41,5.3-10.19,2.31-2.78,5.13-4.9,8.45-6.36,3.32-1.46,7.07-2.19,11.25-2.19,3.61,0,6.79.53,9.56,1.6s5.14,2.54,7.13,4.42c1.98,1.88,3.59,4.11,4.82,6.69.99,2.09,1.77,4.29,2.34,6.63.24,1.01,1.15,1.71,2.18,1.71h18.15c1.39,0,2.47-1.26,2.22-2.63-.88-4.89-2.37-9.47-4.45-13.73-2.47-5.02-5.7-9.36-9.69-13.01-4-3.66-8.71-6.52-14.14-8.59-5.43-2.08-11.48-3.11-18.15-3.11-4.9,0-9.53.56-13.89,1.69-4.36,1.13-8.37,2.75-12.04,4.87-3.67,2.12-6.96,4.72-9.88,7.78-2.91,3.07-5.39,6.54-7.41,10.44-2.03,3.9-3.59,8.16-4.67,12.79-1.08,4.63-1.62,9.58-1.62,14.83s.54,10.21,1.62,14.86c1.08,4.65,2.63,8.91,4.67,12.79,2.03,3.88,4.51,7.35,7.44,10.41,2.93,3.07,6.22,5.67,9.87,7.8,3.65,2.13,7.66,3.77,12.02,4.89,4.36,1.13,8.99,1.69,13.89,1.69,6.67,0,12.71-1.04,18.12-3.11,5.41-2.07,10.12-4.93,14.14-8.59,4.01-3.65,7.25-7.98,9.72-13.01,2.09-4.26,3.58-8.84,4.45-13.73.25-1.37-.83-2.63-2.22-2.63h-18.15c-1.03,0-1.94.71-2.18,1.71-.57,2.33-1.34,4.53-2.34,6.6Z" fill="#f0efe7"/><path d="M841.85,301.78c-5.11,0-9.67.77-13.68,2.32-4.02,1.55-7.51,3.78-10.49,6.69-2.97,2.92-5.45,6.46-7.42,10.64-.02.04-.04.08-.06.12-1.01,2.17-4.24,1.48-4.24-.91v-16.62c0-1.24-1.01-2.25-2.25-2.25h-18.13c-1.24,0-2.25,1.01-2.25,2.25v94.92c0,1.24,1.01,2.25,2.25,2.25h18.13c1.24,0,2.25-1.01,2.25-2.25v-45.09c0-5.23.55-9.77,1.67-13.62,1.11-3.85,2.96-7.03,5.55-9.56,2.58-2.53,6.03-4.41,10.34-5.64,4.31-1.23,9.67-1.85,16.08-1.85h5.19c1.24,0,2.25-1.01,2.25-2.25v-16.92c0-1.24-1.01-2.25-2.25-2.25h-2.93Z" fill="#f0efe7"/><path d="M944.2,329.67c-2.26-6.42-5.47-11.89-9.62-16.41-4.16-4.52-9.18-8.02-15.04-10.49-5.86-2.46-12.41-3.69-19.65-3.69s-13.96,1.25-19.97,3.76c-6.01,2.51-11.17,6.07-15.47,10.67-4.3,4.6-7.62,10.11-9.98,16.52-2.36,6.42-3.54,13.54-3.54,21.35s1.18,15,3.56,21.46c2.37,6.46,5.74,11.99,10.1,16.59,4.36,4.6,9.58,8.16,15.65,10.68,6.07,2.52,12.82,3.79,20.24,3.79,5.92,0,11.43-.82,16.55-2.45,5.11-1.64,9.67-4.02,13.68-7.13,4.01-3.11,7.42-6.89,10.23-11.34,2.32-3.67,4.13-7.74,5.44-12.2.42-1.45-.64-2.91-2.15-2.91h-17.4c-.89,0-1.7.53-2.06,1.35-.97,2.24-2.11,4.26-3.42,6.03-1.56,2.12-3.35,3.89-5.36,5.32-2.01,1.43-4.27,2.5-6.77,3.2-2.49.71-5.21,1.06-8.16,1.06-4.33,0-8.23-.74-11.7-2.23-3.47-1.49-6.43-3.63-8.86-6.43-2.44-2.8-4.3-6.19-5.61-10.16-.56-1.7-1-3.49-1.31-5.38l-.39-1.27-.03-.11c-.42-2.31-.81-5.45-.75-9.03,0-.06,0-.11,0-.16-.06-6.64,1.41-13.31,4.82-19.08.03-.05.06-.1.09-.15.84-1.54,1.78-2.95,2.85-4.23.09-.11.17-.21.26-.31.48-.56.98-1.1,1.51-1.6,1.95-1.89,4.2-3.4,6.73-4.51,3.33-1.47,7.13-2.21,11.36-2.21s7.87.73,11.07,2.19c3.2,1.46,5.89,3.61,8.08,6.45,2.18,2.84,3.83,6.35,4.96,10.5.2.74.38,1.5.55,2.29.3,1.41-.76,2.74-2.2,2.74h-39.26c-.58,0-1.13.22-1.55.62-1.14,1.06-2.3,2.34-3.38,3.88-2.22,3.14-3.4,6.32-4.03,8.96-.34,1.42.73,2.77,2.19,2.77h68.74c1.18,0,2.16-.92,2.25-2.1.04-.54.07-1.08.09-1.6.04-1.17.06-2.34.06-3.52,0-7.9-1.12-15.07-3.38-21.48Z" fill="#f0efe7"/><path d="M1048.26,329.67c-2.26-6.42-5.47-11.89-9.63-16.41-4.16-4.52-9.17-8.02-15.04-10.49-5.86-2.46-12.41-3.69-19.66-3.69s-13.96,1.25-19.97,3.76c-6.01,2.51-11.16,6.07-15.46,10.67-4.29,4.6-7.63,10.11-9.98,16.52-2.36,6.42-3.54,13.54-3.54,21.35s1.18,15,3.56,21.46c2.37,6.46,5.75,11.99,10.1,16.59,4.36,4.6,9.58,8.16,15.64,10.68,6.07,2.52,12.82,3.79,20.25,3.79,5.92,0,11.43-.82,16.55-2.45,5.11-1.64,9.67-4.02,13.68-7.13,4.01-3.11,7.42-6.89,10.23-11.34,2.32-3.67,4.13-7.74,5.43-12.21.42-1.45-.64-2.9-2.15-2.9h-17.4c-.89,0-1.7.53-2.06,1.35-.97,2.24-2.11,4.25-3.42,6.03-1.56,2.12-3.35,3.89-5.37,5.32-2.01,1.43-4.26,2.5-6.76,3.2-2.49.71-5.21,1.06-8.16,1.06-4.33,0-8.22-.74-11.69-2.23-3.48-1.49-6.43-3.63-8.86-6.43s-4.31-6.19-5.61-10.16c-.68-2.07-1.18-4.28-1.51-6.61h0s-.03-.06-.04-.1c-.73-3.94-1.38-10.3.23-17.17h0c.3-1.85.71-3.6,1.23-5.27.37-1.18.78-2.31,1.24-3.38.01-.04.02-.07.04-.1,1.1-2.55,2.45-4.81,4.08-6.77.5-.6,1.02-1.17,1.56-1.71l.02-.02c.08-.08.17-.16.25-.24,1.94-1.86,4.16-3.35,6.67-4.45,3.33-1.47,7.12-2.21,11.36-2.21s7.87.73,11.07,2.19c3.2,1.46,5.89,3.61,8.07,6.45,2.18,2.84,3.84,6.35,4.96,10.5.2.74.38,1.5.55,2.29.3,1.41-.76,2.74-2.2,2.74h-39.1c-.58,0-1.13.22-1.55.62-1.14,1.06-2.3,2.34-3.38,3.88-2.22,3.14-3.4,6.32-4.03,8.97-.34,1.42.74,2.77,2.19,2.77h68.57c1.18,0,2.16-.92,2.25-2.1.04-.54.07-1.08.09-1.6.05-1.17.07-2.34.07-3.52,0-7.9-1.13-15.07-3.38-21.48Z" fill="#f0efe7"/><path d="M1104.42,350.59l45.24-44.96c1.42-1.42.42-3.85-1.59-3.85h-21.24c-.61,0-1.19.24-1.61.68l-37.54,38.42c-1.41,1.44-3.86.44-3.86-1.57v-69.31c0-1.24-1.01-2.25-2.25-2.25h-18.13c-1.24,0-2.25,1.01-2.25,2.25v128.96c0,1.24,1.01,2.25,2.25,2.25h18.13c1.24,0,2.25-1.01,2.25-2.25v-32.41c0-1.95,2.32-2.98,3.76-1.67l39.32,35.74c.41.38.95.59,1.51.59h23.5c2.07,0,3.04-2.56,1.49-3.93l-48.91-43.4c-.97-.86-1.01-2.36-.09-3.28Z" fill="#f0efe7"/><path d="M545.22,171.36h298.6c1.27,0,2.37-.86,2.68-2.09.06-.22.11-.43.14-.62,0,0,.67-3.23-.37-6.47-.19-.58-.4-.97-.49-1.13,0,0,0,0,0-.01-.49-.83-1.4-1.33-2.36-1.33h-298.14c-12.52-.12-24.23-5.3-31.28-13.8h-13.98c1.28,2.5,2.85,4.89,4.72,7.16,9.38,11.42,24.11,18.11,40.48,18.29Z" fill="#f0efe7"/><path d="M436.07,93.2c-1.17,6.11.87,12.75,5.71,18.7,7.11,8.62,18.93,13.86,31.57,13.98h344.4c12.81.18,24.7,4.31,33.73,11.65,2.5,1.98,4.78,4.19,6.76,6.7,3.9,4.72,6.52,10.08,7.75,15.49.93,3.9,1.17,7.8.53,11.65,0,.35-.06.7-.12,1.05-3.44,18.52-24.29,32.79-47.76,32.79h-391.74c-1.65,0-2.98-1.33-2.98-2.98v-5.69c0-1.65,1.33-2.98,2.98-2.98h390.87c19.74.52,34.13-11.07,36.93-22.19.04-.13.09-.27.13-.41.07-.23.13-.48.16-.7.64-3.44.23-7.05-1.11-10.54-.93-2.8-2.56-5.53-4.66-8.15-7.05-8.62-18.87-13.86-31.51-14.04h-344.4c-12.82-.12-24.7-4.25-33.73-11.59-2.51-1.98-4.78-4.25-6.76-6.7-6.99-8.44-9.96-18.75-8.21-28.19,3.5-18.52,24.35-32.79,47.76-32.79h391.8c1.65,0,2.98,1.33,2.98,2.98v5.69c0,1.65-1.33,2.98-2.98,2.98h-390.87c-20.5-.41-35.07,11.82-37.22,23.3Z" fill="#f0efe7"/><path d="M544.35,92.09c-20.21,0-38.56,10.6-45.37,25.39h13.63c6.12-7.63,17.53-13.74,31.74-13.74h388.77c1.65,0,2.98-1.33,2.98-2.98v-5.69c0-1.65-1.33-2.98-2.98-2.98h-388.77Z" fill="#f0efe7"/><path d="M874.95,171.36h58.17c1.65,0,2.98-1.33,2.98-2.98v-5.69c0-1.65-1.33-2.98-2.98-2.98h-58.64c.82,3.96.99,7.86.47,11.65Z" fill="#f0efe7"/><text transform="translate(510.36 518.82)" fill="#f0efe7" font-family="Recoleta-RegularDEMO, Recoleta" font-size="65.47"><tspan x="0" y="0" letter-spacing="-.05em">G</tspan><tspan x="44.19" y="0" letter-spacing="-.05em">o</tspan><tspan x="78.11" y="0" letter-spacing="-.08em"> </tspan><tspan x="87.86" y="0" letter-spacing="-.16em">T</tspan><tspan x="117.39" y="0" letter-spacing="-.05em">ogethe</tspan><tspan x="296" y="0" letter-spacing="-.07em">r</tspan></text></svg>