<?xml version="1.0" encoding="UTF-8"?><svg id="a" xmlns="http://www.w3.org/2000/svg" viewBox="0 0 1360 592"><path d="M149.35,481.09c-1.71-4.15-4-7.71-6.86-10.68-2.87-2.96-6.2-5.44-9.99-7.4-3.79-1.98-7.75-3.6-11.89-4.89-4.13-1.29-8.33-2.34-12.59-3.16-4.27-.8-8.32-1.52-12.18-2.16l-9.34-1.53c-2.59-.46-5.17-.91-7.73-1.33-2.56-.43-5-.94-7.32-1.56-2.31-.61-4.46-1.32-6.45-2.12-1.99-.8-3.72-1.78-5.18-2.93s-2.6-2.46-3.44-3.98c-.82-1.5-1.24-3.27-1.24-5.31,0-2.59.73-4.94,2.17-7.06,1.44-2.12,3.47-3.94,6.1-5.46,2.63-1.53,5.79-2.7,9.47-3.53,3.69-.83,7.74-1.24,12.15-1.24,5,0,9.42.53,13.26,1.59,3.83,1.06,7.05,2.57,9.66,4.51,2.61,1.96,4.57,4.31,5.88,7.06.77,1.6,1.31,3.31,1.63,5.13.42,2.38,2.44,4.15,4.86,4.15h23.55c1.81,0,3.28-1.52,3.17-3.33-.36-5.98-1.72-11.45-4.06-16.41-2.78-5.86-6.84-10.86-12.18-14.97-5.34-4.11-11.9-7.27-19.65-9.47-7.76-2.2-16.6-3.3-26.52-3.3s-17.94,1.01-25.47,3.02c-7.53,2.02-13.9,4.89-19.13,8.62-5.24,3.73-9.26,8.24-12.05,13.55-2.8,5.3-4.2,11.23-4.2,17.8,0,5.25.82,9.8,2.48,13.64,1.65,3.84,3.86,7.14,6.64,9.92,2.77,2.78,5.96,5.11,9.57,6.99,3.6,1.89,7.38,3.46,11.32,4.71,3.94,1.25,7.9,2.26,11.89,3.02,3.99.77,7.72,1.44,11.19,2.04l9.41,1.65c3.01.55,5.94,1.09,8.81,1.63,2.86.52,5.56,1.15,8.1,1.84,2.54.7,4.88,1.51,7,2.45,2.12.93,3.94,2.04,5.46,3.3,1.53,1.28,2.73,2.75,3.59,4.45.87,1.7,1.3,3.71,1.3,6.04,0,2.84-.75,5.38-2.26,7.6-1.5,2.22-3.69,4.11-6.55,5.66-2.87,1.55-6.35,2.73-10.46,3.53-4.11.8-8.79,1.21-14.05,1.21-5.85,0-10.94-.51-15.29-1.52-4.35-1.02-7.96-2.53-10.85-4.52-2.88-1.99-5.02-4.45-6.42-7.38-1.05-2.17-1.7-4.57-1.97-7.21-.16-1.61-1.53-2.83-3.15-2.83h-25.08c-1.8,0-3.27,1.5-3.17,3.3.34,6.5,1.72,12.33,4.14,17.5,2.81,6.01,6.99,11.09,12.53,15.23,5.53,4.13,12.43,7.27,20.7,9.41s17.85,3.21,28.74,3.21,19.65-.97,27.66-2.92c8.01-1.96,14.74-4.8,20.19-8.52,5.45-3.73,9.58-8.31,12.39-13.74,2.82-5.42,4.23-11.63,4.23-18.63,0-5.6-.86-10.47-2.58-14.63Z" fill="#f0efe7"/><path d="M202.17,487.45c0,4.37.4,8.13,1.21,11.28.8,3.16,2.02,5.77,3.65,7.82,1.63,2.05,3.72,3.59,6.27,4.61,2.54,1.01,5.57,1.52,9.09,1.52,2.75,0,6.02-.31,9.79-.95,2.78-.47,5.93-1.12,9.44-1.96,1.99-.47,3.91,1.04,3.91,3.08v19.36c0,1.42-.94,2.68-2.31,3.06-4.83,1.32-9.41,2.33-13.74,3-5.03.79-9.74,1.18-14.15,1.18-7.37,0-13.85-1.1-19.46-3.3-5.59-2.2-10.29-5.49-14.08-9.86-3.79-4.36-6.67-9.79-8.62-16.27-1.95-6.49-2.92-14.04-2.92-22.64v-62.77c0-1.75-1.42-3.17-3.17-3.17h-11.97c-1.75,0-3.17-1.42-3.17-3.17v-19.6c0-1.75,1.42-3.17,3.17-3.17h11.97c1.75,0,3.17-1.42,3.17-3.17v-25.95c0-1.75,1.42-3.17,3.17-3.17h25.57c1.75,0,3.17,1.42,3.17,3.17v25.95c0,1.75,1.42,3.17,3.17,3.17h37.02c1.75,0,3.17,1.42,3.17,3.17v19.6c0,1.75-1.42,3.17-3.17,3.17h-37.02c-1.75,0-3.17,1.42-3.17,3.17v62.83Z" fill="#f0efe7"/><path d="M385.61,444.66c-1.52-6.53-3.71-12.53-6.57-18.03-2.87-5.49-6.35-10.39-10.46-14.72-4.12-4.32-8.76-7.98-13.93-10.97-5.17-2.99-10.83-5.27-16.97-6.86-6.14-1.59-12.67-2.39-19.59-2.39s-13.43.8-19.58,2.39c-6.15,1.59-11.81,3.87-16.98,6.86-5.17,2.99-9.82,6.65-13.92,10.97-4.11,4.33-7.6,9.23-10.46,14.72-2.86,5.5-5.05,11.5-6.58,18.03-1.52,6.53-2.29,13.5-2.29,20.92s.77,14.4,2.29,20.95c1.53,6.56,3.72,12.56,6.58,18.03,2.87,5.47,6.36,10.37,10.5,14.68,4.13,4.33,8.78,8,13.92,11,5.15,3.01,10.79,5.31,16.95,6.9,6.14,1.59,12.67,2.39,19.58,2.39s13.5-.8,19.62-2.39c6.13-1.58,11.76-3.89,16.91-6.9,5.15-3.01,9.79-6.68,13.92-11,4.13-4.32,7.63-9.21,10.5-14.68,2.86-5.47,5.05-11.48,6.57-18.03,1.53-6.55,2.29-13.53,2.29-20.95s-.76-14.39-2.29-20.92ZM353.28,484.81c-1.71,5.66-4.2,10.46-7.44,14.4-3.24,3.94-7.19,6.94-11.86,8.99-4.66,2.06-9.94,3.09-15.83,3.09s-11.19-1.04-15.86-3.11c-4.69-2.08-8.66-5.08-11.92-9-3.27-3.92-5.76-8.71-7.47-14.37-1.72-5.66-2.58-12.07-2.58-19.24s.86-13.57,2.58-19.23c1.71-5.66,4.2-10.45,7.47-14.37,3.26-3.92,7.24-6.91,11.92-8.97,4.68-2.05,9.96-3.09,15.86-3.09s11.17,1.03,15.83,3.09c4.67,2.05,8.62,5.04,11.86,8.97,3.24,3.92,5.73,8.71,7.44,14.37,1.72,5.66,2.58,12.07,2.58,19.23s-.86,13.58-2.58,19.24Z" fill="#f0efe7"/><path d="M523.57,428.64c-2.19-7.97-5.34-14.69-9.47-20.16-4.13-5.46-9.23-9.63-15.3-12.49-6.07-2.86-12.99-4.29-20.79-4.29-6.53,0-12.57,1.02-18.12,3.09-5.56,2.05-10.5,5.04-14.82,8.96-4.33,3.92-8,8.74-11,14.44-.23.44-.46.88-.68,1.32-1.49,2.99-6,1.9-6-1.43v-19.39c0-1.75-1.42-3.17-3.17-3.17h-25.57c-1.75,0-3.17,1.42-3.17,3.17v133.87c0,1.75,1.42,3.17,3.17,3.17h25.57c1.75,0,3.17-1.42,3.17-3.17v-71.54c0-4.37.36-8.42,1.08-12.15.72-3.73,1.78-7.12,3.18-10.17,1.4-3.05,3.12-5.74,5.18-8.08,2.05-2.33,4.41-4.28,7.09-5.85,2.67-1.57,5.61-2.77,8.84-3.59,3.23-.83,6.74-1.24,10.56-1.24,5.3,0,9.92.81,13.86,2.45,3.94,1.63,7.24,4.08,9.89,7.34,2.65,3.27,4.62,7.32,5.91,12.18,1.29,4.86,1.94,10.55,1.94,17.08v73.58c0,1.75,1.42,3.17,3.17,3.17h25.57c1.75,0,3.17-1.42,3.17-3.17v-76.76c0-10.13-1.09-19.18-3.27-27.15Z" fill="#f0efe7"/><path d="M671.26,434.83c-3.18-9.06-7.71-16.76-13.57-23.15-5.87-6.38-12.94-11.31-21.21-14.79-8.26-3.47-17.51-5.21-27.73-5.21s-19.68,1.77-28.16,5.31c-8.48,3.54-15.75,8.56-21.82,15.04-6.06,6.49-10.75,14.26-14.08,23.3-3.33,9.06-4.99,19.09-4.99,30.11s1.67,21.15,5.03,30.27c3.35,9.12,8.09,16.91,14.24,23.4,6.14,6.49,13.5,11.51,22.07,15.07,8.56,3.56,18.08,5.34,28.55,5.34,8.35,0,16.13-1.15,23.34-3.46,7.2-2.32,13.64-5.66,19.3-10.05,5.66-4.39,10.47-9.72,14.43-15.99,3.27-5.17,5.82-10.91,7.67-17.21.6-2.04-.91-4.1-3.04-4.1h-24.53c-1.26,0-2.4.75-2.9,1.9-1.37,3.17-2.97,6-4.82,8.5-2.2,2.99-4.72,5.49-7.56,7.5-2.84,2.02-6.02,3.52-9.54,4.52-3.51,1-7.35,1.49-11.5,1.49-6.11,0-11.61-1.05-16.5-3.15-4.89-2.1-9.06-5.12-12.5-9.06-3.44-3.94-6.07-8.72-7.92-14.33-.94-2.9-1.65-5.99-2.11-9.26-.17.12-.45.06-.5-.21-1.19-6.5-2.27-17.69,1.79-29.22.02-.06.04-.13.06-.19.19-.75.4-1.5.63-2.24,1.76-5.68,4.28-10.5,7.57-14.47,3.28-3.96,7.28-6.98,11.98-9.06,4.7-2.08,10.04-3.12,16.02-3.12s11.1,1.03,15.61,3.09c4.52,2.05,8.31,5.09,11.39,9.09,3.07,4,5.4,8.95,6.99,14.82.28,1.05.54,2.12.77,3.22.42,1.99-1.07,3.86-3.1,3.86h-55.57c-.82,0-1.59.32-2.19.87-1.61,1.5-3.23,3.3-4.75,5.46-3.13,4.43-4.79,8.92-5.68,12.64-.48,2,1.04,3.91,3.09,3.91h97.13c1.67,0,3.04-1.29,3.17-2.96.06-.77.1-1.52.13-2.25.07-1.65.1-3.3.1-4.96,0-11.14-1.58-21.25-4.76-30.29Z" fill="#f0efe7"/><path d="M786.67,493.33c-1.74,3.63-4,6.77-6.8,9.44-2.8,2.67-6.15,4.76-10.05,6.27-3.9,1.5-8.39,2.26-13.48,2.26-5.89,0-11.18-1.04-15.86-3.11-4.68-2.08-8.66-5.08-11.92-9-3.27-3.92-5.76-8.71-7.47-14.37-1.71-5.66-2.58-12.07-2.58-19.24s.87-13.57,2.58-19.23c1.71-5.66,4.2-10.45,7.47-14.37,3.26-3.92,7.24-6.91,11.92-8.97,4.69-2.05,9.97-3.09,15.86-3.09,5.09,0,9.58.75,13.48,2.26s7.25,3.58,10.05,6.23c2.8,2.65,5.06,5.8,6.8,9.44,1.4,2.94,2.5,6.06,3.29,9.35.34,1.42,1.62,2.42,3.07,2.42h25.59c1.97,0,3.48-1.78,3.13-3.71-1.24-6.9-3.34-13.35-6.28-19.36-3.48-7.08-8.03-13.2-13.67-18.35-5.64-5.16-12.29-9.2-19.94-12.11-7.66-2.93-16.19-4.39-25.59-4.39-6.91,0-13.44.8-19.59,2.39-6.14,1.59-11.81,3.87-16.97,6.86-5.17,2.99-9.82,6.65-13.93,10.97-4.11,4.33-7.6,9.23-10.45,14.72-2.87,5.5-5.06,11.5-6.58,18.03-1.53,6.53-2.29,13.5-2.29,20.92s.76,14.4,2.29,20.95c1.52,6.56,3.71,12.56,6.58,18.03,2.86,5.47,6.35,10.37,10.49,14.68,4.13,4.33,8.78,8,13.92,11,5.15,3.01,10.8,5.31,16.95,6.9,6.14,1.59,12.67,2.39,19.59,2.39,9.4,0,17.93-1.46,25.56-4.39,7.63-2.92,14.27-6.96,19.94-12.11,5.66-5.15,10.23-11.26,13.71-18.35,2.95-6.01,5.04-12.47,6.28-19.36.35-1.94-1.16-3.71-3.13-3.71h-25.59c-1.46,0-2.73,1-3.07,2.41-.8,3.29-1.89,6.39-3.29,9.32Z" fill="#f0efe7"/><path d="M918.36,395.5c-7.21,0-13.64,1.09-19.3,3.28-5.66,2.19-10.59,5.33-14.79,9.44-4.2,4.12-7.68,9.12-10.46,15.01-.03.06-.05.11-.08.17-1.43,3.06-5.99,2.09-5.99-1.29v-23.43c0-1.75-1.42-3.17-3.17-3.17h-25.57c-1.75,0-3.17,1.42-3.17,3.17v133.87c0,1.75,1.42,3.17,3.17,3.17h25.57c1.75,0,3.17-1.42,3.17-3.17v-63.6c0-7.38.78-13.78,2.35-19.2,1.56-5.43,4.17-9.92,7.82-13.48,3.64-3.57,8.5-6.21,14.59-7.95,6.08-1.74,13.64-2.6,22.67-2.6h7.32c1.75,0,3.17-1.42,3.17-3.17v-23.86c0-1.75-1.42-3.17-3.17-3.17h-4.13Z" fill="#f0efe7"/><path d="M1062.71,434.83c-3.18-9.06-7.71-16.76-13.57-23.15-5.87-6.38-12.94-11.31-21.21-14.79-8.26-3.47-17.51-5.21-27.72-5.21s-19.69,1.77-28.17,5.31c-8.48,3.54-15.75,8.56-21.82,15.04-6.06,6.49-10.75,14.26-14.08,23.3-3.33,9.06-4.99,19.09-4.99,30.11s1.67,21.15,5.03,30.27c3.35,9.12,8.09,16.91,14.24,23.4,6.14,6.49,13.5,11.51,22.07,15.07,8.56,3.56,18.08,5.34,28.55,5.34,8.36,0,16.13-1.15,23.34-3.46,7.2-2.32,13.64-5.66,19.3-10.05,5.66-4.39,10.47-9.72,14.43-15.99,3.27-5.17,5.82-10.91,7.67-17.21.6-2.04-.91-4.1-3.04-4.1h-24.53c-1.26,0-2.4.75-2.9,1.9-1.37,3.17-2.97,6-4.82,8.5-2.2,2.99-4.72,5.49-7.56,7.5-2.84,2.02-6.02,3.52-9.54,4.52-3.51,1-7.35,1.49-11.5,1.49-6.11,0-11.61-1.05-16.5-3.15-4.89-2.1-9.06-5.12-12.5-9.06-3.44-3.94-6.07-8.72-7.91-14.33-.79-2.4-1.41-4.93-1.85-7.59l-.55-1.8-.04-.15c-.59-3.26-1.15-7.68-1.05-12.74,0-.08,0-.16,0-.23-.09-9.37,1.99-18.77,6.79-26.9.04-.07.08-.14.12-.21,1.18-2.17,2.52-4.16,4.02-5.97.12-.15.24-.3.37-.44.67-.8,1.38-1.55,2.12-2.26,2.75-2.67,5.92-4.79,9.49-6.36,4.7-2.08,10.05-3.12,16.02-3.12s11.1,1.03,15.61,3.09c4.52,2.05,8.31,5.09,11.39,9.09,3.07,4,5.4,8.95,6.99,14.82.28,1.05.54,2.12.77,3.22.42,1.99-1.07,3.86-3.1,3.86h-55.38c-.81,0-1.59.32-2.19.87-1.61,1.5-3.24,3.31-4.76,5.47-3.13,4.43-4.79,8.92-5.68,12.64-.48,2,1.04,3.91,3.09,3.91h96.95c1.67,0,3.04-1.29,3.17-2.96.06-.77.1-1.52.13-2.25.06-1.65.09-3.3.09-4.96,0-11.14-1.58-21.25-4.76-30.29Z" fill="#f0efe7"/><path d="M1209.47,434.83c-3.18-9.06-7.71-16.76-13.58-23.15-5.86-6.38-12.94-11.31-21.2-14.79-8.27-3.47-17.51-5.21-27.73-5.21s-19.69,1.77-28.17,5.31c-8.48,3.54-15.74,8.56-21.81,15.04-6.06,6.49-10.76,14.26-14.08,23.3-3.33,9.06-4.99,19.09-4.99,30.11s1.67,21.15,5.02,30.27c3.35,9.12,8.1,16.91,14.25,23.4,6.14,6.49,13.5,11.51,22.06,15.07,8.57,3.56,18.08,5.34,28.56,5.34,8.35,0,16.13-1.15,23.34-3.46,7.2-2.32,13.64-5.66,19.3-10.05,5.66-4.39,10.47-9.72,14.43-15.99,3.27-5.18,5.83-10.91,7.66-17.21.6-2.04-.91-4.1-3.04-4.1h-24.53c-1.26,0-2.4.75-2.9,1.9-1.37,3.17-2.98,6-4.82,8.5-2.2,2.99-4.73,5.49-7.57,7.5-2.84,2.02-6.01,3.52-9.54,4.52-3.51,1-7.35,1.49-11.51,1.49-6.1,0-11.6-1.05-16.49-3.15-4.9-2.1-9.06-5.12-12.5-9.06-3.44-3.94-6.07-8.72-7.92-14.33-.96-2.92-1.67-6.03-2.12-9.33h0s-.04-.09-.05-.14c-1.02-5.55-1.95-14.53.32-24.21h0c.43-2.6,1.01-5.08,1.74-7.44.52-1.67,1.1-3.25,1.75-4.77.02-.05.03-.1.06-.14,1.55-3.6,3.46-6.78,5.75-9.55.7-.85,1.43-1.65,2.2-2.41l.03-.03c.11-.11.24-.23.35-.34,2.74-2.62,5.87-4.72,9.41-6.28,4.7-2.08,10.04-3.12,16.02-3.12s11.1,1.03,15.61,3.09c4.52,2.05,8.31,5.09,11.38,9.09,3.08,4,5.41,8.95,7,14.82.28,1.05.54,2.12.77,3.22.42,1.99-1.07,3.86-3.1,3.86h-55.14c-.81,0-1.59.32-2.19.87-1.61,1.5-3.24,3.31-4.76,5.47-3.13,4.43-4.79,8.92-5.68,12.64-.48,2,1.04,3.91,3.09,3.91h96.71c1.67,0,3.04-1.29,3.17-2.96.06-.77.1-1.52.13-2.25.07-1.65.1-3.3.1-4.96,0-11.14-1.59-21.25-4.76-30.29Z" fill="#f0efe7"/><path d="M1288.68,464.34l63.81-63.41c2.01-2,.6-5.42-2.24-5.42h-29.95c-.85,0-1.67.34-2.27.96l-52.95,54.19c-1.99,2.03-5.44.63-5.44-2.22v-97.75c0-1.75-1.42-3.17-3.17-3.17h-25.57c-1.75,0-3.17,1.42-3.17,3.17v181.87c0,1.75,1.42,3.17,3.17,3.17h25.57c1.75,0,3.17-1.42,3.17-3.17v-45.72c0-2.76,3.27-4.2,5.31-2.35l55.46,50.41c.58.53,1.35.83,2.13.83h33.15c2.92,0,4.29-3.61,2.11-5.55l-68.99-61.21c-1.37-1.22-1.43-3.33-.13-4.62Z" fill="#f0efe7"/><path d="M500.03,211.57h421.12c1.79,0,3.34-1.22,3.78-2.94.08-.32.15-.61.2-.88,0,0,.94-4.56-.52-9.13-.26-.82-.56-1.37-.69-1.59,0,0,0-.01-.01-.02-.69-1.17-1.97-1.87-3.33-1.87h-420.47c-17.66-.16-34.17-7.47-44.11-19.47h-19.71c1.81,3.53,4.03,6.9,6.65,10.1,13.23,16.1,34.01,25.55,57.09,25.79Z" fill="#f0efe7"/><path d="M346.09,101.33c-1.64,8.62,1.23,17.99,8.05,26.37,10.02,12.16,26.7,19.55,44.52,19.71h485.72c18.07.25,34.83,6.08,47.56,16.43,3.53,2.79,6.74,5.91,9.53,9.44,5.5,6.66,9.2,14.21,10.92,21.85,1.32,5.5,1.64,11.01.74,16.43,0,.49-.08.99-.17,1.48-4.85,26.12-34.25,46.25-67.36,46.25H333.12c-2.32,0-4.2-1.88-4.2-4.2v-8.02c0-2.32,1.88-4.2,4.2-4.2h551.25c27.85.74,48.14-15.61,52.08-31.3.06-.18.12-.38.18-.58.1-.33.18-.67.23-.98.91-4.85.33-9.94-1.56-14.87-1.31-3.94-3.61-7.8-6.57-11.5-9.94-12.16-26.61-19.55-44.44-19.8h-485.72c-18.07-.16-34.83-6-47.56-16.35-3.53-2.79-6.74-6-9.53-9.45-9.86-11.91-14.05-26.45-11.58-39.75,4.93-26.12,34.33-46.25,67.36-46.25h552.57c2.32,0,4.2,1.88,4.2,4.2v8.02c0,2.32-1.88,4.2-4.2,4.2H398.58c-28.91-.57-49.45,16.67-52.49,32.86Z" fill="#f0efe7"/><path d="M498.79,99.77c-28.5,0-54.38,14.95-63.99,35.81h19.22c8.63-10.76,24.73-19.38,44.77-19.38h548.29c2.32,0,4.2-1.88,4.2-4.2v-8.02c0-2.32-1.88-4.2-4.2-4.2H498.79Z" fill="#f0efe7"/><path d="M965.04,211.57h82.04c2.32,0,4.2-1.88,4.2-4.2v-8.02c0-2.32-1.88-4.2-4.2-4.2h-82.7c1.15,5.59,1.4,11.09.66,16.43Z" fill="#f0efe7"/></svg>